<svg version="1.1" xmlns="http://www.w3.org/2000/svg" viewBox="0 0 768.2760625861197 542.3209817538601" width="768.2760625861197" height="542.3209817538601">
  <!-- svg-source:excalidraw -->
  
  <defs>
    <style>
      @font-face {
        font-family: "Virgil";
        src: url("https://excalidraw.com/Virgil.woff2");
      }
      @font-face {
        font-family: "Cascadia";
        src: url("https://excalidraw.com/Cascadia.woff2");
      }
    </style>
  </defs>
  <rect x="0" y="0" width="768.2760625861197" height="542.3209817538601" fill="#ffffff"></rect><g stroke-linecap="round"><g transform="translate(86.93669296143054 317.7525301750238) rotate(376.85473525232663 -2.847561093471228 -14.779156469186972)"><path d="M-1.83 -1.17 C-2.98 -9.25, -3.49 -17.52, -5.07 -29.31 M-0.35 -0.25 C-2.51 -11.33, -5.21 -19.85, -5.35 -28.08" stroke="#000000" stroke-width="1" fill="none"></path></g></g><g stroke-linecap="round" transform="translate(81.48800338500297 275.56969080059264) rotate(376.85473525232663 6.00177873702674 6.925129311954052)"><path d="M0.49 3.08 C0.49 3.08, 0.49 3.08, 0.49 3.08 M0.49 3.08 C0.49 3.08, 0.49 3.08, 0.49 3.08 M1.39 9.35 C2.23 6.51, 4.33 4.55, 6.16 2.21 M0.93 8.73 C2.72 7.02, 4.47 4.66, 6.05 2.41 M2.62 12.7 C5.16 10.5, 8.08 7.5, 9.56 4.74 M3.7 12.01 C5 10.03, 7.78 7.25, 10.1 3.91 M5.62 15.45 C7.85 13.33, 9.62 9.92, 12 8.67 M5.8 15.15 C7.33 13.24, 9.71 10.77, 11.21 8.72" stroke="#000000" stroke-width="0.5" fill="none"></path><path d="M3.64 0.53 C4.76 0.17, 6.3 0.78, 7.65 1.3 C8.99 1.82, 11.08 2.51, 11.72 3.67 C12.36 4.84, 11.91 6.95, 11.5 8.27 C11.09 9.58, 10.39 10.47, 9.25 11.56 C8.12 12.66, 5.89 14.79, 4.69 14.82 C3.5 14.85, 2.85 12.77, 2.09 11.75 C1.32 10.73, 0.34 10.14, 0.09 8.69 C-0.17 7.23, -0.29 4.47, 0.55 3.01 C1.39 1.56, 4.55 0.35, 5.13 -0.04 C5.71 -0.43, 4.02 0.5, 4.03 0.67 M8.27 0.06 C9.41 0, 11.14 1.2, 11.54 2.25 C11.95 3.29, 10.91 4.65, 10.69 6.34 C10.48 8.03, 11.23 11.09, 10.26 12.37 C9.3 13.66, 6.41 14, 4.91 14.06 C3.4 14.12, 2.26 13.71, 1.24 12.73 C0.22 11.76, -0.9 9.92, -1.21 8.2 C-1.53 6.48, -1.41 3.59, -0.65 2.41 C0.11 1.24, 1.88 1.23, 3.35 1.12 C4.81 1.02, 7.33 1.7, 8.13 1.79 C8.93 1.88, 8.47 2.03, 8.17 1.65" stroke="#000000" stroke-width="1" fill="none"></path></g><g stroke-linecap="round"><g transform="translate(95.95997985387265 377.4842739643277) rotate(356.02471234182775 -0.7054485360303033 60.14286854926422)" fill-rule="evenodd"><path d="M-23.24 14.25 C-23.24 14.25, -23.24 14.25, -23.24 14.25 M-23.24 14.25 C-23.24 14.25, -23.24 14.25, -23.24 14.25 M-29.93 26.22 C-26.56 22.78, -23.83 18.54, -14.76 6.79 M-27.11 26.2 C-23.18 20.23, -20.79 15.61, -13.3 8.09 M-30.18 32.58 C-19.81 22.25, -9.91 13.33, -4.14 4.36 M-28.55 32.72 C-24.05 26.04, -18.52 21.35, -3.52 4.11 M-28.78 38 C-17.13 25.85, -7.28 13.75, 1 1.03 M-27.62 38.25 C-18.41 27.33, -9.79 16.11, 3.73 3.04 M-26.86 45.96 C-19.89 33.01, -9.85 24.97, 6.86 3.39 M-27.51 44.73 C-14.72 28.72, -1.49 14.6, 5.76 5.31 M-25.35 47.54 C-16.7 36.05, -3.82 22.87, 10.51 7.29 M-25.76 48.18 C-13.43 32.83, -0.42 19.61, 10.56 5.17 M-27.32 53.67 C-8.13 33.03, 9.1 13.85, 15.6 4.61 M-24.52 53.27 C-16.59 44.01, -8.23 34.92, 15.68 6.79 M-24.61 56.95 C-11.52 40.73, 4.43 24.98, 20.48 7.4 M-23.93 58.52 C-8.97 41.22, 4.94 23.01, 18.54 8.79 M-24.79 65.21 C-8.9 46.8, 1.46 34.08, 20.47 10.57 M-24.98 64.16 C-9.24 48.11, 4.69 31.02, 21.8 10.21 M-23.64 70.14 C-12.26 56.36, 0.93 41.45, 23.4 13.33 M-22.84 70.12 C-12.01 56.72, -0.1 41.93, 25.09 14.35 M-23.6 74.94 C-8.84 60.98, 0.58 48.33, 28.54 17.65 M-23.13 74.04 C-8.01 57.48, 7.81 38.95, 27.09 18.54 M-22.18 80.11 C-5.64 63.32, 9.08 47.07, 26.11 21.16 M-23.14 80.38 C-4.84 58.31, 12.64 37.61, 27.22 23.39 M-19.76 83.54 C-4.5 66.13, 8.46 49.85, 28.21 27.6 M-21.57 84.86 C-6.07 67.32, 9.46 49.01, 27.67 28.61 M-19.31 89.99 C-7.73 71.57, 8.84 54.18, 29.04 35.53 M-21.01 91.31 C-2.69 68.3, 17.83 47.89, 27.83 34 M-23.56 96.8 C-11.57 86.13, -2.14 73.89, 27.15 40.99 M-20.97 97.66 C-3.66 75.98, 14.85 54.48, 27.65 41.53 M-22.1 101.49 C-9.85 90.55, -0.13 79.73, 26.96 49.19 M-19.87 102.98 C-9.24 90.82, 2.3 78.05, 27.4 47.34 M-20.43 105.06 C-4.25 91.64, 11.78 72.66, 26.38 55.74 M-19.85 107.03 C-6.5 92.6, 6.08 77.79, 24.31 56.28 M-17.72 110.11 C-4.43 96.48, 12.83 76.13, 24.96 63.24 M-17.48 111.78 C-3.74 95.99, 10.72 78.41, 25.01 62.92 M-16.02 114.55 C-7.34 104.78, 3.19 95.64, 21.56 69.34 M-14.7 115.42 C-0.22 98.04, 14.32 81.52, 22.27 70.88 M-13.25 118.52 C-2.85 107.5, 6.7 91.87, 22.47 78.85 M-12.75 118.68 C-1.68 103.41, 10.96 88.67, 21.32 79.31 M-10.39 119.83 C-3.7 112.36, 6 103.98, 19.71 86.93 M-9.13 120.59 C-1.1 111.75, 7.42 102.5, 19.31 87.47 M-2.54 122.17 C1.21 113.11, 9.84 102.68, 15.92 99.06 M-3.57 119.99 C1.49 112.32, 9.07 105.67, 14.3 98.95" stroke="#000000" stroke-width="0.5" fill="none"></path><path d="M-0.7 -0.7 C3.42 3.02, 23.65 3.59, 25.7 21.22 C27.75 38.84, 18.86 89.38, 11.6 105.03 C4.34 120.68, -11.31 128.33, -17.87 115.09 C-24.44 101.85, -30.71 44.82, -27.8 25.59 C-24.89 6.36, -4.98 4.15, -0.42 -0.3 M1.13 1.54 C5.56 5.56, 25.89 5.24, 28.05 22.74 C30.21 40.23, 21.79 91.45, 14.1 106.5 C6.41 121.54, -10.89 126.43, -18.08 113 C-25.27 99.57, -32.19 44.98, -29.04 25.9 C-25.9 6.81, -4.07 2.72, 0.78 -1.49" stroke="#000000" stroke-width="1" fill="none"></path></g></g><g stroke-linecap="round"><g transform="translate(124.46049658441956 404.4050193971684) rotate(7.182594496707925 22.043521076806257 -50.77905182691998)"><path d="M-0.7 -0.69 C6.95 -8.64, 42.41 -31.31, 44.79 -48.39 C47.17 -65.46, 18.69 -94.22, 13.59 -103.12 M1.13 1.56 C8.71 -6.19, 41.85 -29.94, 43.82 -47.25 C45.8 -64.55, 17.8 -93.39, 12.98 -102.26" stroke="#000000" stroke-width="1" fill="none"></path></g></g><g stroke-linecap="round"><g transform="translate(55.36931274377997 408.89635856801044) rotate(348.60478902668814 -23.672048154526237 -48.83811914032195)"><path d="M-0.69 -0.03 C-8.53 -4.19, -43.04 -9.67, -47.77 -25.63 C-52.51 -41.58, -32.45 -83.9, -29.12 -95.76 M1.15 -1.1 C-6.25 -5.57, -40.82 -11.51, -45.46 -27.6 C-50.1 -43.69, -29.7 -86.28, -26.68 -97.64" stroke="#000000" stroke-width="1" fill="none"></path></g></g><g stroke-linecap="round" transform="translate(45.96395226824416 319.43749508795827) rotate(350.1341930569157 39.207350018823746 25.770952679129223)"><path d="M3.43 2.98 C3.43 2.98, 3.43 2.98, 3.43 2.98 M3.43 2.98 C3.43 2.98, 3.43 2.98, 3.43 2.98 M1.86 10.89 C4.76 8.64, 7.11 4.17, 9.07 2.59 M1.86 10.89 C4.65 8.27, 7.03 5.45, 9.07 2.59 M1.59 17.29 C5.72 12.6, 9.42 4.96, 14.72 2.19 M1.59 17.29 C3.31 14.35, 6.14 11.35, 14.72 2.19 M1.33 23.68 C3.58 18.81, 10.12 15.14, 20.36 1.8 M1.33 23.68 C8 13.82, 15.78 5.79, 20.36 1.8 M1.73 29.33 C8.39 20.59, 13.74 15.58, 25.35 2.16 M1.73 29.33 C8.52 21.14, 14.66 12.52, 25.35 2.16 M1.47 35.73 C6.19 26.85, 13.61 21.65, 30.99 1.76 M1.47 35.73 C12.87 22.81, 22.53 10.98, 30.99 1.76 M1.21 42.12 C13.33 27.74, 21.84 17.1, 35.98 2.12 M1.21 42.12 C11.32 30.14, 22.06 16.92, 35.98 2.12 M2.26 47.01 C11.69 35.27, 23.75 22.92, 41.62 1.73 M2.26 47.01 C18.04 30.15, 32.29 12.44, 41.62 1.73 M5.27 49.64 C22.53 32.57, 37.22 12.39, 46.61 2.09 M5.27 49.64 C19.21 34.79, 31.43 19.78, 46.61 2.09 M9.61 50.75 C24.6 35.14, 38 18.86, 52.25 1.69 M9.61 50.75 C25.53 32, 43.15 12.33, 52.25 1.69 M13.94 51.87 C23.24 39.56, 35.81 27.99, 57.24 2.05 M13.94 51.87 C30.72 32.87, 47.06 14.38, 57.24 2.05 M18.92 52.23 C34.04 35.62, 49.4 20.11, 62.88 1.66 M18.92 52.23 C35.85 33.23, 52.32 14, 62.88 1.66 M24.57 51.83 C37.06 34.84, 50.77 20.78, 67.87 2.02 M24.57 51.83 C36.63 38.36, 47.82 24.98, 67.87 2.02 M29.55 52.19 C41.78 34.68, 56.31 20.97, 72.2 3.13 M29.55 52.19 C41.38 38.24, 55.36 22.39, 72.2 3.13 M34.54 52.55 C43.64 41.51, 53.8 29.55, 76.53 4.25 M34.54 52.55 C43.34 42.85, 51.05 32.51, 76.53 4.25 M40.18 52.16 C48.28 42.86, 57.36 31.81, 78.89 7.63 M40.18 52.16 C53.97 35.31, 68.42 19.4, 78.89 7.63 M45.17 52.52 C54.49 42.37, 64.34 28.84, 80.6 11.76 M45.17 52.52 C55.75 39.12, 66.82 27.14, 80.6 11.76 M50.81 52.12 C63.26 41.96, 71.97 27.93, 80.34 18.16 M50.81 52.12 C62.16 38.92, 74.16 26.32, 80.34 18.16 M55.8 52.48 C60.88 44.82, 66.01 39.97, 80.73 23.8 M55.8 52.48 C63.93 44.08, 69.8 34.44, 80.73 23.8 M61.44 52.09 C66.26 44.64, 74.51 34.61, 80.47 30.2 M61.44 52.09 C66.23 47.77, 70.51 43.56, 80.47 30.2 M66.43 52.45 C70.35 46.32, 76.24 42.46, 78.24 38.86 M66.43 52.45 C70.13 48.47, 72.47 45.43, 78.24 38.86" stroke="#000000" stroke-width="0.5" fill="none"></path><path d="M12.89 0 M12.89 0 C28.3 0.89, 45.62 1.21, 65.53 0 M12.89 0 C25.5 -0.72, 39.79 -0.67, 65.53 0 M65.53 0 C75.35 0.76, 80.24 4.74, 78.41 12.89 M65.53 0 C73.78 -0.62, 79.98 2.39, 78.41 12.89 M78.41 12.89 C78.63 17.66, 76.61 25.57, 78.41 38.66 M78.41 12.89 C78.28 18.83, 78.06 24.61, 78.41 38.66 M78.41 38.66 C78.01 47.06, 75.72 52.53, 65.53 51.54 M78.41 38.66 C76.76 48.83, 73.85 50.59, 65.53 51.54 M65.53 51.54 C53.38 51.91, 38.98 52.13, 12.89 51.54 M65.53 51.54 C51.47 50.77, 36.77 51, 12.89 51.54 M12.89 51.54 C4.62 52.41, -1.31 47.64, 0 38.66 M12.89 51.54 C3.57 53.23, 0.72 48.16, 0 38.66 M0 38.66 C1.31 27.03, 0.58 18.08, 0 12.89 M0 38.66 C-0.12 33.48, 0.43 26.54, 0 12.89 M0 12.89 C1.32 3.8, 4.1 0.14, 12.89 0 M0 12.89 C-0.34 2.09, 4.82 -0.75, 12.89 0" stroke="#000000" stroke-width="1" fill="none"></path></g><g stroke-linecap="round"><g transform="translate(98.87745668458678 354.21537127364127) rotate(0 -14.117998340450583 4.1435106671812605)" fill-rule="evenodd"><path d="M0.09 1.9 L-19.71 1.02 L-39.01 -0.5 L-30.32 9.58 L-18.44 13.7 L-10.26 16.09 L-2.95 12.4 L9.83 -5.09 L-1.25 -1.68" stroke="none" stroke-width="0" fill="#ffffff" fill-rule="evenodd"></path><path d="M-0.76 0.29 C-3.93 0.65, -13.25 2.22, -19.72 2.14 C-26.2 2.06, -40.92 -2.31, -39.62 -0.2 C-38.31 1.9, -20.12 15.87, -11.89 14.76 C-3.66 13.66, 7.98 -4.57, 9.77 -6.83 C11.56 -9.1, 0.42 0.08, -1.16 1.18 M1.04 -0.61 C-1.7 -0.57, -10.6 0.21, -17.47 0.48 C-24.33 0.75, -41.09 -1.51, -40.15 1.03 C-39.22 3.57, -20.51 17.05, -11.86 15.71 C-3.21 14.37, 9.83 -4.52, 11.74 -7.01 C13.66 -9.51, 1.43 -0.12, -0.36 0.75" stroke="#000000" stroke-width="1" fill="none"></path></g></g><g stroke-linecap="round" transform="translate(60.89911510881012 327.185332285031) rotate(0 8.049505943615372 8.938539866862698)"><path d="M8.55 -0.03 C10.19 -0.39, 12.09 0.11, 13.23 1.22 C14.37 2.34, 15.13 4.55, 15.4 6.66 C15.66 8.76, 15.74 12.16, 14.81 13.85 C13.88 15.53, 11.49 16.08, 9.81 16.76 C8.13 17.43, 6.09 18.52, 4.72 17.91 C3.36 17.29, 2.28 14.71, 1.62 13.08 C0.96 11.44, 0.64 9.97, 0.75 8.12 C0.86 6.27, 0.98 3.3, 2.28 1.98 C3.57 0.67, 7.29 0.6, 8.53 0.23 C9.76 -0.14, 9.53 -0.2, 9.67 -0.24 M4.84 2.09 C6.19 1.44, 8.34 0.96, 9.96 1.16 C11.59 1.35, 13.65 1.54, 14.61 3.29 C15.56 5.03, 15.76 9.7, 15.68 11.63 C15.6 13.55, 15.26 13.79, 14.14 14.83 C13.03 15.86, 10.7 17.46, 9.01 17.84 C7.32 18.21, 5.47 18.49, 4 17.08 C2.54 15.68, 0.52 11.48, 0.23 9.41 C-0.05 7.33, 1.43 6.21, 2.29 4.62 C3.15 3.03, 4.71 0.55, 5.4 -0.14 C6.09 -0.82, 6.61 0.06, 6.43 0.51" stroke="none" stroke-width="0" fill="#ffffff"></path><path d="M10.6 0.35 C12.05 0.77, 14.03 1.83, 14.76 3.71 C15.49 5.59, 15.22 9.65, 14.98 11.64 C14.73 13.63, 14.47 14.48, 13.3 15.68 C12.13 16.87, 9.77 18.84, 7.94 18.82 C6.11 18.8, 3.55 17.01, 2.33 15.56 C1.11 14.1, 0.97 11.89, 0.62 10.09 C0.26 8.29, -0.66 6.33, 0.22 4.75 C1.09 3.17, 3.9 1.19, 5.87 0.62 C7.85 0.05, 10.9 1.19, 12.05 1.35 C13.2 1.51, 12.97 1.48, 12.79 1.58 M5.76 0.79 C7.27 0.4, 8.32 0.16, 9.7 0.87 C11.08 1.58, 13.23 3.44, 14.04 5.05 C14.85 6.67, 14.95 8.96, 14.56 10.56 C14.17 12.16, 12.87 13.34, 11.68 14.66 C10.49 15.97, 8.86 18.06, 7.42 18.46 C5.97 18.86, 4.15 18.23, 3 17.05 C1.84 15.87, 1 13.76, 0.49 11.37 C-0.02 8.98, -0.74 4.6, -0.06 2.71 C0.63 0.81, 3.76 0.2, 4.59 -0.01 C5.41 -0.22, 4.62 1.1, 4.9 1.42" stroke="#000000" stroke-width="1" fill="none"></path></g><g stroke-linecap="round" transform="translate(64.84060751150804 331.4789674486635) rotate(0 2.4582323540383584 3.2776431387178775)"><path d="M4.92 3.28 C4.92 3.47, 4.9 3.66, 4.88 3.85 C4.85 4.03, 4.82 4.22, 4.77 4.4 C4.72 4.58, 4.66 4.75, 4.59 4.92 C4.52 5.08, 4.43 5.24, 4.34 5.38 C4.25 5.53, 4.15 5.67, 4.04 5.79 C3.93 5.91, 3.81 6.02, 3.69 6.12 C3.56 6.21, 3.43 6.29, 3.3 6.36 C3.17 6.42, 3.03 6.47, 2.89 6.51 C2.74 6.54, 2.6 6.56, 2.46 6.56 C2.32 6.56, 2.17 6.54, 2.03 6.51 C1.89 6.47, 1.75 6.42, 1.62 6.36 C1.48 6.29, 1.35 6.21, 1.23 6.12 C1.11 6.02, 0.99 5.91, 0.88 5.79 C0.77 5.67, 0.67 5.53, 0.58 5.38 C0.48 5.24, 0.4 5.08, 0.33 4.92 C0.26 4.75, 0.2 4.58, 0.15 4.4 C0.1 4.22, 0.06 4.03, 0.04 3.85 C0.01 3.66, 0 3.47, 0 3.28 C0 3.09, 0.01 2.9, 0.04 2.71 C0.06 2.52, 0.1 2.33, 0.15 2.16 C0.2 1.98, 0.26 1.8, 0.33 1.64 C0.4 1.47, 0.48 1.32, 0.58 1.17 C0.67 1.03, 0.77 0.89, 0.88 0.77 C0.99 0.64, 1.11 0.53, 1.23 0.44 C1.35 0.34, 1.48 0.26, 1.62 0.2 C1.75 0.13, 1.89 0.08, 2.03 0.05 C2.17 0.02, 2.32 0, 2.46 0 C2.6 0, 2.74 0.02, 2.89 0.05 C3.03 0.08, 3.17 0.13, 3.3 0.2 C3.43 0.26, 3.56 0.34, 3.69 0.44 C3.81 0.53, 3.93 0.64, 4.04 0.77 C4.15 0.89, 4.25 1.03, 4.34 1.17 C4.43 1.32, 4.52 1.47, 4.59 1.64 C4.66 1.8, 4.72 1.98, 4.77 2.16 C4.82 2.33, 4.85 2.52, 4.88 2.71 C4.9 2.9, 4.91 3.18, 4.92 3.28 C4.92 3.37, 4.92 3.18, 4.92 3.28" stroke="none" stroke-width="0" fill="#000000"></path><path d="M4.92 3.28 C4.92 3.47, 4.9 3.66, 4.88 3.85 C4.85 4.03, 4.82 4.22, 4.77 4.4 C4.72 4.58, 4.66 4.75, 4.59 4.92 C4.52 5.08, 4.43 5.24, 4.34 5.38 C4.25 5.53, 4.15 5.67, 4.04 5.79 C3.93 5.91, 3.81 6.02, 3.69 6.12 C3.56 6.21, 3.43 6.29, 3.3 6.36 C3.17 6.42, 3.03 6.47, 2.89 6.51 C2.74 6.54, 2.6 6.56, 2.46 6.56 C2.32 6.56, 2.17 6.54, 2.03 6.51 C1.89 6.47, 1.75 6.42, 1.62 6.36 C1.48 6.29, 1.35 6.21, 1.23 6.12 C1.11 6.02, 0.99 5.91, 0.88 5.79 C0.77 5.67, 0.67 5.53, 0.58 5.38 C0.48 5.24, 0.4 5.08, 0.33 4.92 C0.26 4.75, 0.2 4.58, 0.15 4.4 C0.1 4.22, 0.06 4.03, 0.04 3.85 C0.01 3.66, 0 3.47, 0 3.28 C0 3.09, 0.01 2.9, 0.04 2.71 C0.06 2.52, 0.1 2.33, 0.15 2.16 C0.2 1.98, 0.26 1.8, 0.33 1.64 C0.4 1.47, 0.48 1.32, 0.58 1.17 C0.67 1.03, 0.77 0.89, 0.88 0.77 C0.99 0.64, 1.11 0.53, 1.23 0.44 C1.35 0.34, 1.48 0.26, 1.62 0.2 C1.75 0.13, 1.89 0.08, 2.03 0.05 C2.17 0.02, 2.32 0, 2.46 0 C2.6 0, 2.74 0.02, 2.89 0.05 C3.03 0.08, 3.17 0.13, 3.3 0.2 C3.43 0.26, 3.56 0.34, 3.69 0.44 C3.81 0.53, 3.93 0.64, 4.04 0.77 C4.15 0.89, 4.25 1.03, 4.34 1.17 C4.43 1.32, 4.52 1.47, 4.59 1.64 C4.66 1.8, 4.72 1.98, 4.77 2.16 C4.82 2.33, 4.85 2.52, 4.88 2.71 C4.9 2.9, 4.91 3.18, 4.92 3.28 C4.92 3.37, 4.92 3.18, 4.92 3.28" stroke="#000000" stroke-width="1" fill="none"></path></g><g stroke-linecap="round" transform="translate(89.65037071159367 325.2685819115112) rotate(0 8.049505943615372 8.938539866862698)"><path d="M10.62 -0.42 C12.03 -0.07, 13.48 1.68, 14.34 3.53 C15.21 5.38, 16.14 8.78, 15.81 10.7 C15.49 12.62, 13.75 13.77, 12.4 15.06 C11.04 16.36, 9.16 18.37, 7.69 18.46 C6.22 18.55, 4.73 16.78, 3.57 15.61 C2.42 14.45, 1.31 13.3, 0.78 11.46 C0.24 9.62, -0.3 6.34, 0.36 4.56 C1.03 2.78, 2.89 1.49, 4.77 0.79 C6.66 0.09, 10.3 0.35, 11.68 0.35 C13.05 0.34, 13.23 0.52, 13.04 0.77 M7.42 0.67 C9.06 0.15, 11.57 -0.25, 12.94 1.1 C14.32 2.45, 15.19 6.84, 15.67 8.76 C16.14 10.68, 16.48 11.2, 15.79 12.62 C15.11 14.05, 13.14 16.35, 11.55 17.33 C9.95 18.31, 7.98 19.38, 6.24 18.51 C4.51 17.63, 1.93 13.96, 1.13 12.09 C0.32 10.23, 1.08 9.11, 1.42 7.32 C1.76 5.52, 1.85 2.57, 3.17 1.3 C4.49 0.04, 8.7 -0.25, 9.34 -0.26 C9.98 -0.26, 7.11 1.02, 7 1.26" stroke="none" stroke-width="0" fill="#ffffff"></path><path d="M7.17 -0.89 C8.7 -0.92, 10.35 1.46, 11.83 2.7 C13.31 3.95, 15.48 4.73, 16.06 6.58 C16.64 8.44, 16.19 12.1, 15.32 13.83 C14.45 15.57, 12.37 16.42, 10.87 17 C9.37 17.58, 8.07 17.74, 6.32 17.29 C4.58 16.85, 1.39 15.87, 0.42 14.34 C-0.56 12.81, 0.03 10, 0.48 8.11 C0.92 6.22, 1.44 4.28, 3.08 3 C4.72 1.72, 8.99 0.74, 10.3 0.44 C11.6 0.13, 11.18 1.22, 10.9 1.17 M2.89 1.27 C4.07 0.3, 6.91 0.18, 8.6 0.5 C10.29 0.82, 12 1.95, 13.03 3.19 C14.06 4.42, 14.67 5.86, 14.78 7.92 C14.89 9.97, 14.57 13.62, 13.69 15.51 C12.81 17.4, 11.09 18.9, 9.51 19.27 C7.93 19.64, 5.93 19.23, 4.2 17.72 C2.46 16.21, -0.12 12.31, -0.89 10.21 C-1.66 8.12, -1.14 6.54, -0.4 5.15 C0.34 3.75, 2.69 2.42, 3.55 1.87 C4.42 1.32, 4.83 1.82, 4.78 1.85" stroke="#000000" stroke-width="1" fill="none"></path></g><g stroke-linecap="round" transform="translate(93.59186311429443 329.5622170751453) rotate(0 2.4582323540383584 3.2776431387178775)"><path d="M4.92 3.28 C4.92 3.47, 4.9 3.66, 4.88 3.85 C4.85 4.03, 4.82 4.22, 4.77 4.4 C4.72 4.58, 4.66 4.75, 4.59 4.92 C4.52 5.08, 4.43 5.24, 4.34 5.38 C4.25 5.53, 4.15 5.67, 4.04 5.79 C3.93 5.91, 3.81 6.02, 3.69 6.12 C3.56 6.21, 3.43 6.29, 3.3 6.36 C3.17 6.42, 3.03 6.47, 2.89 6.51 C2.74 6.54, 2.6 6.56, 2.46 6.56 C2.32 6.56, 2.17 6.54, 2.03 6.51 C1.89 6.47, 1.75 6.42, 1.62 6.36 C1.48 6.29, 1.35 6.21, 1.23 6.12 C1.11 6.02, 0.99 5.91, 0.88 5.79 C0.77 5.67, 0.67 5.53, 0.58 5.38 C0.48 5.24, 0.4 5.08, 0.33 4.92 C0.26 4.75, 0.2 4.58, 0.15 4.4 C0.1 4.22, 0.06 4.03, 0.04 3.85 C0.01 3.66, 0 3.47, 0 3.28 C0 3.09, 0.01 2.9, 0.04 2.71 C0.06 2.52, 0.1 2.33, 0.15 2.16 C0.2 1.98, 0.26 1.8, 0.33 1.64 C0.4 1.47, 0.48 1.32, 0.58 1.17 C0.67 1.03, 0.77 0.89, 0.88 0.77 C0.99 0.64, 1.11 0.53, 1.23 0.44 C1.35 0.34, 1.48 0.26, 1.62 0.2 C1.75 0.13, 1.89 0.08, 2.03 0.05 C2.17 0.02, 2.32 0, 2.46 0 C2.6 0, 2.74 0.02, 2.89 0.05 C3.03 0.08, 3.17 0.13, 3.3 0.2 C3.43 0.26, 3.56 0.34, 3.69 0.44 C3.81 0.53, 3.93 0.64, 4.04 0.77 C4.15 0.89, 4.25 1.03, 4.34 1.17 C4.43 1.32, 4.52 1.47, 4.59 1.64 C4.66 1.8, 4.72 1.98, 4.77 2.16 C4.82 2.33, 4.85 2.52, 4.88 2.71 C4.9 2.9, 4.91 3.18, 4.92 3.28 C4.92 3.37, 4.92 3.18, 4.92 3.28" stroke="none" stroke-width="0" fill="#000000"></path><path d="M4.92 3.28 C4.92 3.47, 4.9 3.66, 4.88 3.85 C4.85 4.03, 4.82 4.22, 4.77 4.4 C4.72 4.58, 4.66 4.75, 4.59 4.92 C4.52 5.08, 4.43 5.24, 4.34 5.38 C4.25 5.53, 4.15 5.67, 4.04 5.79 C3.93 5.91, 3.81 6.02, 3.69 6.12 C3.56 6.21, 3.43 6.29, 3.3 6.36 C3.17 6.42, 3.03 6.47, 2.89 6.51 C2.74 6.54, 2.6 6.56, 2.46 6.56 C2.32 6.56, 2.17 6.54, 2.03 6.51 C1.89 6.47, 1.75 6.42, 1.62 6.36 C1.48 6.29, 1.35 6.21, 1.23 6.12 C1.11 6.02, 0.99 5.91, 0.88 5.79 C0.77 5.67, 0.67 5.53, 0.58 5.38 C0.48 5.24, 0.4 5.08, 0.33 4.92 C0.26 4.75, 0.2 4.58, 0.15 4.4 C0.1 4.22, 0.06 4.03, 0.04 3.85 C0.01 3.66, 0 3.47, 0 3.28 C0 3.09, 0.01 2.9, 0.04 2.71 C0.06 2.52, 0.1 2.33, 0.15 2.16 C0.2 1.98, 0.26 1.8, 0.33 1.64 C0.4 1.47, 0.48 1.32, 0.58 1.17 C0.67 1.03, 0.77 0.89, 0.88 0.77 C0.99 0.64, 1.11 0.53, 1.23 0.44 C1.35 0.34, 1.48 0.26, 1.62 0.2 C1.75 0.13, 1.89 0.08, 2.03 0.05 C2.17 0.02, 2.32 0, 2.46 0 C2.6 0, 2.74 0.02, 2.89 0.05 C3.03 0.08, 3.17 0.13, 3.3 0.2 C3.43 0.26, 3.56 0.34, 3.69 0.44 C3.81 0.53, 3.93 0.64, 4.04 0.77 C4.15 0.89, 4.25 1.03, 4.34 1.17 C4.43 1.32, 4.52 1.47, 4.59 1.64 C4.66 1.8, 4.72 1.98, 4.77 2.16 C4.82 2.33, 4.85 2.52, 4.88 2.71 C4.9 2.9, 4.91 3.18, 4.92 3.28 C4.92 3.37, 4.92 3.18, 4.92 3.28" stroke="#000000" stroke-width="1" fill="none"></path></g><g stroke-linecap="round"><g transform="translate(383.79991841921543 498.67436129517307) rotate(0 160.2227911380224 0.3035568539606004)"><path d="M0.7 0.24 C54.37 0.13, 267.59 -0.33, 320.83 -0.27 M-0.39 -0.68 C53.3 -0.62, 267.05 1.38, 320.36 1.29" stroke="black" stroke-width="4" fill="none"></path></g></g><g stroke-linecap="round"><g transform="translate(385.4449675427118 498.246309830531) rotate(0 -4.538159378351736 -52.54658368819034)"><path d="M0.24 0.91 C-2.86 0.02, -14.15 -2.57, -18.23 -4.64 C-22.31 -6.7, -22.26 -7.82, -24.25 -11.51 C-26.25 -15.19, -29.37 -19.11, -30.19 -26.75 C-31.02 -34.4, -30.49 -49.91, -29.22 -57.37 C-27.96 -64.82, -26.18 -65.91, -22.61 -71.49 C-19.04 -77.06, -13.62 -85.43, -7.8 -90.84 C-1.99 -96.24, 7.39 -101.88, 12.28 -103.92 C17.16 -105.96, 20.05 -103.1, 21.51 -103.1 M-1.09 0.34 C-4.39 -1, -15.25 -4.36, -19.16 -6.63 C-23.07 -8.91, -22.76 -10.09, -24.54 -13.3 C-26.32 -16.52, -29.4 -18.69, -29.86 -25.91 C-30.31 -33.13, -28.13 -48.95, -27.25 -56.62 C-26.36 -64.29, -27.94 -66.53, -24.53 -71.92 C-21.12 -77.31, -12.79 -83.48, -6.77 -88.96 C-0.75 -94.43, 7.1 -102.14, 11.57 -104.75 C16.04 -107.36, 18.37 -105.2, 20.07 -104.63" stroke="black" stroke-width="4" fill="none"></path></g></g><g stroke-linecap="round"><g transform="translate(406.5737692979306 392.47335924218726) rotate(0 66.26743544301246 -53.561999504118916)"><path d="M0.91 0.03 C-0.95 -6.1, -8.58 -26.92, -10.45 -36.55 C-12.32 -46.18, -10.93 -52.06, -10.32 -57.76 C-9.71 -63.47, -10.31 -65.47, -6.79 -70.78 C-3.27 -76.09, 4.7 -84.73, 10.8 -89.64 C16.9 -94.54, 23.92 -97.55, 29.82 -100.21 C35.71 -102.88, 37.99 -104.64, 46.17 -105.62 C54.35 -106.59, 67.85 -107.14, 78.89 -106.07 C89.94 -104.99, 105.46 -101.32, 112.43 -99.17 C119.4 -97.02, 115.36 -100.5, 120.71 -93.17 C126.07 -85.83, 140.78 -61.46, 144.56 -55.14 M-0.07 -1 C-2.13 -7.48, -9.53 -28.96, -11.27 -38.19 C-13.02 -47.42, -11.29 -51.07, -10.54 -56.36 C-9.8 -61.64, -10.18 -64.46, -6.8 -69.89 C-3.43 -75.32, 3.86 -83.76, 9.69 -88.92 C15.52 -94.08, 22.06 -97.91, 28.17 -100.86 C34.29 -103.82, 37.57 -105.76, 46.38 -106.64 C55.19 -107.53, 69.73 -107.19, 81.04 -106.18 C92.36 -105.17, 107.63 -102.63, 114.27 -100.57 C120.91 -98.52, 116.31 -101.61, 120.89 -93.84 C125.47 -86.08, 138.24 -60.38, 141.75 -53.98" stroke="black" stroke-width="4" fill="none"></path></g></g><g stroke-linecap="round"><g transform="translate(548.3011272955937 335.25499821608366) rotate(0 60.860970524978484 14.740592029851712)"><path d="M0.03 0.23 C3.12 -1.67, 11.58 -7.7, 18.79 -10.51 C26 -13.31, 30.44 -16.73, 43.29 -16.61 C56.14 -16.48, 83.69 -13.25, 95.89 -9.73 C108.09 -6.22, 111.94 -4.45, 116.48 4.49 C121.02 13.42, 122.05 37.35, 123.14 43.9 M-1.41 -0.69 C1.58 -2.98, 10.98 -9.61, 18.32 -12.08 C25.66 -14.56, 29.68 -15.57, 42.62 -15.55 C55.55 -15.52, 83.8 -14.82, 95.92 -11.93 C108.05 -9.04, 111.12 -7.85, 115.34 1.82 C119.57 11.49, 119.84 38.79, 121.28 46.09" stroke="black" stroke-width="4" fill="none"></path></g></g><g stroke-linecap="round"><g transform="translate(701.3819218262145 498.39109220494504) rotate(0 15.017355874330178 -63.96911370246036)"><path d="M0.23 0.91 C5.06 -1.66, 21.9 -8.97, 29.84 -15.41 C37.78 -21.85, 43.61 -30.83, 47.87 -37.75 C52.12 -44.67, 54.05 -48.94, 55.38 -56.95 C56.71 -64.95, 57.76 -77.18, 55.85 -85.76 C53.94 -94.34, 49.1 -101.96, 43.9 -108.43 C38.7 -114.9, 31.01 -121.3, 24.65 -124.58 C18.28 -127.86, 12.72 -128.41, 5.71 -128.12 C-1.3 -127.83, -12.39 -124.82, -17.42 -122.85 C-22.46 -120.87, -23.12 -117.35, -24.49 -116.27 M-1.1 0.35 C3.57 -2.01, 21.45 -7.62, 29.44 -13.78 C37.43 -19.95, 42.42 -29.08, 46.84 -36.64 C51.27 -44.21, 54.63 -51.12, 55.99 -59.17 C57.34 -67.23, 56.83 -76.65, 54.98 -84.98 C53.13 -93.31, 49.91 -102.36, 44.88 -109.14 C39.85 -115.93, 31.53 -122.47, 24.8 -125.69 C18.08 -128.92, 11.34 -129.3, 4.54 -128.48 C-2.26 -127.67, -10.79 -122.78, -16.02 -120.79 C-21.25 -118.81, -25.3 -117.48, -26.86 -116.55" stroke="black" stroke-width="4" fill="none"></path></g></g><g stroke-linecap="round"><g transform="translate(151.08252930042698 390.3209817538601) rotate(0 105.68162724632771 0.6559931425377954)"><path d="M0.51 -1.01 C35.74 -0.71, 176.96 0.59, 212.04 1.2 M-0.67 1.07 C34.33 1.57, 175.45 2.39, 211.11 2.32" stroke="#000000" stroke-width="1" fill="none"></path></g><g transform="translate(151.08252930042698 390.3209817538601) rotate(0 105.68162724632771 0.6559931425377954)"><path d="M181.21 12.57 C191.75 7, 204.35 3.64, 210.53 1.96 M181.96 11.95 C188.96 10.32, 197.94 8.2, 210.64 3.06" stroke="#000000" stroke-width="1" fill="none"></path></g><g transform="translate(151.08252930042698 390.3209817538601) rotate(0 105.68162724632771 0.6559931425377954)"><path d="M181.26 -7.95 C191.68 -6.15, 204.26 -2.13, 210.53 1.96 M182.01 -8.57 C189.17 -5.05, 198.14 -2.02, 210.64 3.06" stroke="#000000" stroke-width="1" fill="none"></path></g></g><g stroke-linecap="round"><g transform="translate(354.082529300427 420.3209817538601) rotate(0 -101.0533994453773 -1.9162551809847344)"><path d="M-0.91 -0.74 C-34.92 -1.16, -169.34 -2.97, -202.92 -3.47 M0.81 1.48 C-32.93 0.78, -166.66 -4.69, -200.69 -5.31" stroke="#000000" stroke-width="1" fill="none"></path></g><g transform="translate(354.082529300427 420.3209817538601) rotate(0 -101.0533994453773 -1.9162551809847344)"><path d="M-173.44 -16.23 C-182.68 -11.84, -194.38 -8.94, -202.1 -6.04 M-171.41 -15.37 C-178.6 -12.76, -184.63 -10.88, -200.35 -6.17" stroke="#000000" stroke-width="1" fill="none"></path></g><g transform="translate(354.082529300427 420.3209817538601) rotate(0 -101.0533994453773 -1.9162551809847344)"><path d="M-174.07 4.28 C-182.9 0.54, -194.35 -4.69, -202.1 -6.04 M-172.04 5.14 C-178.95 3, -184.83 0.13, -200.35 -6.17" stroke="#000000" stroke-width="1" fill="none"></path></g></g><g transform="translate(41.082529300426984 497.8209817538601) rotate(0 29 13)"><text x="0" y="18" font-family="Virgil, Segoe UI Emoji" font-size="20px" fill="#000000" text-anchor="start" style="white-space: pre;" direction="ltr">Robot</text></g><g transform="translate(444.082529300427 506.3209817538601) rotate(0 65 13)"><text x="0" y="18" font-family="Virgil, Segoe UI Emoji" font-size="20px" fill="#000000" text-anchor="start" style="white-space: pre;" direction="ltr">Robot's brain</text></g><g stroke-linecap="round"><g transform="translate(423.27605116416106 128.63521162933534) rotate(0 88.7947739529576 0.1302404341765211)"><path d="M-0.3 0.76 C29.27 0.73, 148.33 -0.2, 177.89 -0.55 M1.74 0.11 C31.16 0.29, 148.14 0.91, 177.22 0.79" stroke="black" stroke-width="4" fill="none"></path></g></g><g stroke-linecap="round"><g transform="translate(437.8611856248711 174.5214499197421) rotate(0 -15.903174350838015 -74.58659325605566)"><path d="M-12.78 -45.37 C-14.46 -45.81, -21.39 -47.51, -24.04 -48.86 C-26.68 -50.2, -27.62 -51.34, -28.64 -53.44 C-29.67 -55.55, -30.21 -57.47, -30.16 -61.5 C-30.11 -65.52, -28.92 -73.63, -28.35 -77.62 C-27.78 -81.6, -28.49 -82.23, -26.73 -85.42 C-24.98 -88.62, -21.18 -94.03, -17.82 -96.79 C-14.46 -99.55, -9.25 -101, -6.56 -101.97 C-3.86 -102.94, -2.58 -102.28, -1.65 -102.58 M-13.84 -46.14 C-15.68 -46.38, -23.1 -46.41, -25.18 -47.46 C-27.27 -48.51, -25.59 -50.19, -26.36 -52.44 C-27.13 -54.69, -29.33 -56.85, -29.81 -60.94 C-30.28 -65.03, -29.94 -72.79, -29.22 -76.98 C-28.5 -81.17, -27.53 -83.07, -25.49 -86.07 C-23.44 -89.08, -19.97 -92.38, -16.94 -94.99 C-13.91 -97.61, -9.6 -100.3, -7.32 -101.77 C-5.03 -103.24, -3.87 -103.31, -3.21 -103.8" stroke="black" stroke-width="4" fill="none"></path></g></g><g stroke-linecap="round"><g transform="translate(441.5519082434782 117.20088457489774) rotate(0 30.207160496780773 -77.52015663212987)"><path d="M-4.54 -47.84 C-5.52 -51.62, -10.01 -64.13, -11.25 -69.39 C-12.49 -74.64, -12.23 -76.72, -11.96 -79.37 C-11.68 -82.03, -11.76 -82.24, -9.6 -85.32 C-7.44 -88.39, -2.52 -94.88, 1.01 -97.82 C4.54 -100.76, 8.41 -101.64, 11.57 -102.98 C14.74 -104.32, 15.23 -105.29, 20 -105.84 C24.78 -106.4, 33.93 -107.02, 40.22 -106.3 C46.51 -105.58, 54.18 -102.6, 57.74 -101.53 C61.3 -100.45, 58.93 -103.84, 61.59 -99.83 C64.26 -95.81, 71.77 -80.89, 73.73 -77.43 M-5.73 -49.09 C-6.86 -52.83, -11.12 -63.65, -12.34 -68.46 C-13.56 -73.27, -13.44 -74.81, -13.04 -77.95 C-12.63 -81.08, -12.04 -83.99, -9.9 -87.27 C-7.76 -90.54, -3.49 -94.84, -0.22 -97.6 C3.05 -100.35, 6.32 -102.23, 9.71 -103.78 C13.1 -105.34, 15.12 -106.46, 20.13 -106.92 C25.13 -107.38, 33.71 -107.28, 39.73 -106.54 C45.75 -105.79, 52.54 -104.01, 56.23 -102.44 C59.93 -100.87, 58.99 -100.91, 61.89 -97.12 C64.79 -93.33, 71.44 -82.56, 73.63 -79.7" stroke="black" stroke-width="4" fill="none"></path></g></g><g stroke-linecap="round"><g transform="translate(514.5101606737353 45.52163089540883) rotate(0 33.961557878094254 0.7707635786694027)"><path d="M-0.38 -7.44 C0.95 -8.7, 4.67 -12.56, 8.75 -14.18 C12.83 -15.79, 16.48 -17.44, 24.11 -17.16 C31.74 -16.88, 47.91 -14.59, 54.54 -12.49 C61.18 -10.4, 61.62 -9.44, 63.91 -4.59 C66.21 0.26, 67.56 12.75, 68.31 16.62 M1.62 -8.63 C3.23 -9.77, 7.21 -11.66, 10.85 -12.95 C14.49 -14.24, 16.64 -16.69, 23.45 -16.39 C30.27 -16.09, 44.66 -13.24, 51.74 -11.15 C58.82 -9.05, 63.51 -8.79, 65.94 -3.81 C68.36 1.17, 65.74 15.12, 66.29 18.73" stroke="black" stroke-width="4" fill="none"></path></g></g><g stroke-linecap="round"><g transform="translate(610.5727930368575 185.4985765491067) rotate(0 -2.9667680583561378 -92.17690110581495)"><path d="M-11.63 -58.23 C-9.15 -59.57, -0.33 -62.44, 4.01 -65.5 C8.35 -68.57, 11.84 -72.65, 14.41 -76.62 C16.97 -80.58, 18.54 -84.65, 19.42 -89.31 C20.31 -93.97, 20.87 -99.96, 19.71 -104.58 C18.54 -109.2, 15.09 -113.41, 12.44 -117.01 C9.8 -120.61, 7.2 -124.48, 3.84 -126.18 C0.48 -127.87, -3.54 -127.24, -7.73 -127.19 C-11.91 -127.14, -18.2 -126.94, -21.29 -125.9 C-24.39 -124.85, -25.4 -121.49, -26.3 -120.93 M-9.57 -56.23 C-6.74 -57.92, 2.02 -63.83, 6.41 -67.52 C10.8 -71.21, 14.5 -74.88, 16.75 -78.35 C19 -81.83, 19.6 -84.1, 19.91 -88.37 C20.22 -92.64, 19.72 -99.05, 18.62 -103.95 C17.53 -108.86, 16.21 -113.88, 13.33 -117.79 C10.46 -121.7, 5.01 -125.87, 1.36 -127.42 C-2.29 -128.96, -5.06 -127.61, -8.59 -127.06 C-12.11 -126.52, -16.88 -125.14, -19.77 -124.12 C-22.67 -123.11, -24.75 -121.33, -25.95 -120.98" stroke="black" stroke-width="4" fill="none"></path></g></g><g transform="translate(482.082529300427 136.32098175386014) rotate(0 70 13)"><text x="0" y="18" font-family="Virgil, Segoe UI Emoji" font-size="20px" fill="#000000" text-anchor="start" style="white-space: pre;" direction="ltr">Cloud services</text></g><g transform="translate(449.082529300427 74.32098175386014) rotate(0 75.5 13)"><text x="0" y="18" font-family="Virgil, Segoe UI Emoji" font-size="20px" fill="#000000" text-anchor="start" style="white-space: pre;" direction="ltr">speech to text</text></g><g stroke-linecap="round"><g transform="translate(417.082529300427 302.3209817538601) rotate(0 12.582503130659461 -81.24177587484942)"><path d="M-0.55 0.83 C3.87 -26.31, 21.41 -134.32, 25.72 -161.82 M1.35 0.22 C5.66 -26.7, 20.22 -136.04, 24.62 -163.32" stroke="#000000" stroke-width="1" fill="none"></path></g><g transform="translate(417.082529300427 302.3209817538601) rotate(0 12.582503130659461 -81.24177587484942)"><path d="M32.1 -134.41 C31.02 -142.01, 25.69 -148.45, 23.48 -162.53 M30.56 -134.17 C29.13 -143.4, 26.27 -154.53, 24.05 -164.29" stroke="#000000" stroke-width="1" fill="none"></path></g><g transform="translate(417.082529300427 302.3209817538601) rotate(0 12.582503130659461 -81.24177587484942)"><path d="M11.8 -137.37 C15.47 -144.19, 14.87 -149.94, 23.48 -162.53 M10.25 -137.12 C15.93 -145.25, 20.15 -155.35, 24.05 -164.29" stroke="#000000" stroke-width="1" fill="none"></path></g></g></svg>