<svg version="1.1" xmlns="http://www.w3.org/2000/svg" viewBox="0 0 768.2760625861197 276.6784579771271" width="768.2760625861197" height="276.6784579771271">
  <!-- svg-source:excalidraw -->
  
  <defs>
    <style>
      @font-face {
        font-family: "Virgil";
        src: url("https://excalidraw.com/Virgil.woff2");
      }
      @font-face {
        font-family: "Cascadia";
        src: url("https://excalidraw.com/Cascadia.woff2");
      }
    </style>
  </defs>
  <rect x="0" y="0" width="768.2760625861197" height="276.6784579771271" fill="#ffffff"></rect><g stroke-linecap="round"><g transform="translate(86.93669296143054 52.11000639829081) rotate(376.85473525232663 -2.847561093471228 -14.779156469186972)"><path d="M-1.83 -1.17 C-2.98 -9.25, -3.49 -17.52, -5.07 -29.31 M-0.35 -0.25 C-2.51 -11.33, -5.21 -19.85, -5.35 -28.08" stroke="#000000" stroke-width="1" fill="none"></path></g></g><g stroke-linecap="round" transform="translate(81.48800338500297 9.927167023859653) rotate(376.85473525232663 6.00177873702674 6.925129311954052)"><path d="M0.49 3.08 C0.49 3.08, 0.49 3.08, 0.49 3.08 M0.49 3.08 C0.49 3.08, 0.49 3.08, 0.49 3.08 M1.39 9.35 C2.23 6.51, 4.33 4.55, 6.16 2.21 M0.93 8.73 C2.72 7.02, 4.47 4.66, 6.05 2.41 M2.62 12.7 C5.16 10.5, 8.08 7.5, 9.56 4.74 M3.7 12.01 C5 10.03, 7.78 7.25, 10.1 3.91 M5.62 15.45 C7.85 13.33, 9.62 9.92, 12 8.67 M5.8 15.15 C7.33 13.24, 9.71 10.77, 11.21 8.72" stroke="#000000" stroke-width="0.5" fill="none"></path><path d="M3.64 0.53 C4.76 0.17, 6.3 0.78, 7.65 1.3 C8.99 1.82, 11.08 2.51, 11.72 3.67 C12.36 4.84, 11.91 6.95, 11.5 8.27 C11.09 9.58, 10.39 10.47, 9.25 11.56 C8.12 12.66, 5.89 14.79, 4.69 14.82 C3.5 14.85, 2.85 12.77, 2.09 11.75 C1.32 10.73, 0.34 10.14, 0.09 8.69 C-0.17 7.23, -0.29 4.47, 0.55 3.01 C1.39 1.56, 4.55 0.35, 5.13 -0.04 C5.71 -0.43, 4.02 0.5, 4.03 0.67 M8.27 0.06 C9.41 0, 11.14 1.2, 11.54 2.25 C11.95 3.29, 10.91 4.65, 10.69 6.34 C10.48 8.03, 11.23 11.09, 10.26 12.37 C9.3 13.66, 6.41 14, 4.91 14.06 C3.4 14.12, 2.26 13.71, 1.24 12.73 C0.22 11.76, -0.9 9.92, -1.21 8.2 C-1.53 6.48, -1.41 3.59, -0.65 2.41 C0.11 1.24, 1.88 1.23, 3.35 1.12 C4.81 1.02, 7.33 1.7, 8.13 1.79 C8.93 1.88, 8.47 2.03, 8.17 1.65" stroke="#000000" stroke-width="1" fill="none"></path></g><g stroke-linecap="round"><g transform="translate(85.26219604110389 111.84175018759473) rotate(356.02471234182775 9.992335276738459 60.14286854926422)" fill-rule="evenodd"><path d="M-12.56 14.26 C-12.56 14.26, -12.56 14.26, -12.56 14.26 M-12.56 14.26 C-12.56 14.26, -12.56 14.26, -12.56 14.26 M-19.24 26.23 C-15.87 22.8, -13.14 18.55, -4.08 6.81 M-16.43 26.22 C-12.5 20.24, -10.1 15.63, -2.62 8.1 M-19.49 32.59 C-9.13 22.26, 0.77 13.35, 6.55 4.37 M-17.86 32.74 C-13.36 26.05, -7.83 21.36, 7.17 4.12 M-18.1 38.02 C-6.45 25.86, 3.41 13.77, 11.68 1.04 M-16.93 38.27 C-7.73 27.34, 0.89 16.12, 14.42 3.05 M-16.18 45.98 C-9.2 33.03, 0.83 24.99, 17.54 3.4 M-16.82 44.74 C-4.04 28.74, 9.2 14.61, 16.45 5.32 M-14.67 47.56 C-6.01 36.06, 6.87 22.88, 21.2 7.31 M-15.08 48.19 C-2.75 32.84, 10.27 19.63, 21.25 5.18 M-16.63 53.68 C2.56 33.05, 19.78 13.87, 26.28 4.62 M-13.83 53.28 C-5.91 44.02, 2.46 34.93, 26.37 6.81 M-13.93 56.96 C-0.83 40.75, 15.12 24.99, 31.16 7.41 M-13.25 58.53 C1.72 41.23, 15.63 23.03, 29.22 8.8 M-14.1 65.23 C1.78 46.82, 12.15 34.1, 31.16 10.58 M-14.3 64.18 C1.45 48.12, 15.38 31.03, 32.48 10.23 M-12.95 70.15 C-1.57 56.37, 11.62 41.47, 34.09 13.34 M-12.16 70.13 C-1.33 56.74, 10.59 41.94, 35.77 14.37 M-12.92 74.96 C1.85 60.99, 11.27 48.35, 39.23 17.66 M-12.44 74.06 C2.67 57.5, 18.49 38.96, 37.78 18.56 M-11.49 80.13 C5.05 63.33, 19.76 47.08, 36.8 21.17 M-12.45 80.39 C5.85 58.33, 23.32 37.63, 37.9 23.41 M-9.07 83.55 C6.19 66.14, 19.15 49.86, 38.89 27.61 M-10.88 84.87 C4.62 67.34, 20.14 49.03, 38.35 28.62 M-8.63 90.01 C2.96 71.58, 19.53 54.19, 39.73 35.55 M-10.32 91.32 C7.99 68.31, 28.52 47.9, 38.51 34.01 M-12.87 96.81 C-0.89 86.15, 8.55 73.91, 37.83 41 M-10.28 97.68 C7.03 75.99, 25.53 54.49, 38.34 41.54 M-11.42 101.5 C0.83 90.56, 10.55 79.74, 37.65 49.21 M-9.18 102.99 C1.45 90.84, 12.98 78.06, 38.08 47.35 M-9.74 105.07 C6.43 91.66, 22.47 72.67, 37.07 55.75 M-9.17 107.04 C4.18 92.61, 16.76 77.8, 34.99 56.29 M-7.03 110.13 C6.25 96.49, 23.52 76.15, 35.65 63.25 M-6.79 111.79 C6.95 96.01, 21.41 78.42, 35.69 62.93 M-5.33 114.56 C3.35 104.79, 13.88 95.65, 32.25 69.36 M-4.02 115.43 C10.46 98.06, 25.01 81.53, 32.95 70.89 M-2.57 118.53 C8.04 107.28, 17.79 91.41, 33.81 78.11 M-2.07 118.7 C9.24 103.15, 22.12 88.13, 32.66 78.57 M0.3 119.85 C6.98 112.38, 16.68 104, 30.4 86.94 M1.56 120.61 C9.59 111.76, 18.11 102.52, 30 87.48 M8.15 122.18 C11.9 113.13, 20.53 102.7, 26.6 99.08 M7.12 120.01 C12.17 112.34, 19.75 105.68, 24.99 98.96" stroke="#000000" stroke-width="0.5" fill="none"></path><path d="M10 -0.7 C14.12 3.02, 34.35 3.59, 36.4 21.22 C38.45 38.84, 29.56 89.38, 22.3 105.03 C15.04 120.68, -0.61 128.33, -7.18 115.09 C-13.74 101.85, -20.01 44.82, -17.1 25.59 C-14.19 6.36, 5.72 4.15, 10.28 -0.3 M11.83 1.54 C16.26 5.56, 36.59 5.24, 38.75 22.74 C40.91 40.23, 32.48 91.45, 24.79 106.5 C17.11 121.54, -0.2 126.43, -7.39 113 C-14.58 99.57, -21.49 44.98, -18.35 25.9 C-15.2 6.81, 6.63 2.72, 11.47 -1.49" stroke="#000000" stroke-width="1" fill="none"></path></g></g><g stroke-linecap="round"><g transform="translate(124.46049658441956 100.01810128059984) rotate(7.182594496707925 22.043521076806257 -12.034657487084345)"><path d="M-0.7 38.06 C6.95 30.11, 42.41 7.43, 44.79 -9.64 C47.17 -26.71, 18.69 -55.47, 13.59 -64.38 M1.13 40.31 C8.71 32.56, 41.85 8.8, 43.82 -8.5 C45.8 -25.81, 17.8 -54.64, 12.98 -63.52" stroke="#000000" stroke-width="1" fill="none"></path></g></g><g stroke-linecap="round"><g transform="translate(37.555344738763324 106.6324209632136) rotate(348.60478902668814 -5.85808014950959 -12.2167053122581)"><path d="M17.12 36.59 C9.28 32.43, -25.22 26.95, -29.96 11 C-34.7 -4.96, -14.63 -47.28, -11.31 -59.14 M18.96 35.52 C11.56 31.05, -23.01 25.11, -27.65 9.02 C-32.29 -7.07, -11.89 -49.66, -8.87 -61.02" stroke="#000000" stroke-width="1" fill="none"></path></g></g><g stroke-linecap="round" transform="translate(45.96395226824416 53.794971311225254) rotate(350.1341930569157 39.207350018823746 25.770952679129223)"><path d="M3.43 2.98 C3.43 2.98, 3.43 2.98, 3.43 2.98 M3.43 2.98 C3.43 2.98, 3.43 2.98, 3.43 2.98 M1.86 10.89 C4.76 8.64, 7.11 4.17, 9.07 2.59 M1.86 10.89 C4.65 8.27, 7.03 5.45, 9.07 2.59 M1.59 17.29 C5.72 12.6, 9.42 4.96, 14.72 2.19 M1.59 17.29 C3.31 14.35, 6.14 11.35, 14.72 2.19 M1.33 23.68 C3.58 18.81, 10.12 15.14, 20.36 1.8 M1.33 23.68 C8 13.82, 15.78 5.79, 20.36 1.8 M1.73 29.33 C8.39 20.59, 13.74 15.58, 25.35 2.16 M1.73 29.33 C8.52 21.14, 14.66 12.52, 25.35 2.16 M1.47 35.73 C6.19 26.85, 13.61 21.65, 30.99 1.76 M1.47 35.73 C12.87 22.81, 22.53 10.98, 30.99 1.76 M1.21 42.12 C13.33 27.74, 21.84 17.1, 35.98 2.12 M1.21 42.12 C11.32 30.14, 22.06 16.92, 35.98 2.12 M2.26 47.01 C11.69 35.27, 23.75 22.92, 41.62 1.73 M2.26 47.01 C18.04 30.15, 32.29 12.44, 41.62 1.73 M5.27 49.64 C22.53 32.57, 37.22 12.39, 46.61 2.09 M5.27 49.64 C19.21 34.79, 31.43 19.78, 46.61 2.09 M9.61 50.75 C24.6 35.14, 38 18.86, 52.25 1.69 M9.61 50.75 C25.53 32, 43.15 12.33, 52.25 1.69 M13.94 51.87 C23.24 39.56, 35.81 27.99, 57.24 2.05 M13.94 51.87 C30.72 32.87, 47.06 14.38, 57.24 2.05 M18.92 52.23 C34.04 35.62, 49.4 20.11, 62.88 1.66 M18.92 52.23 C35.85 33.23, 52.32 14, 62.88 1.66 M24.57 51.83 C37.06 34.84, 50.77 20.78, 67.87 2.02 M24.57 51.83 C36.63 38.36, 47.82 24.98, 67.87 2.02 M29.55 52.19 C41.78 34.68, 56.31 20.97, 72.2 3.13 M29.55 52.19 C41.38 38.24, 55.36 22.39, 72.2 3.13 M34.54 52.55 C43.64 41.51, 53.8 29.55, 76.53 4.25 M34.54 52.55 C43.34 42.85, 51.05 32.51, 76.53 4.25 M40.18 52.16 C48.28 42.86, 57.36 31.81, 78.89 7.63 M40.18 52.16 C53.97 35.31, 68.42 19.4, 78.89 7.63 M45.17 52.52 C54.49 42.37, 64.34 28.84, 80.6 11.76 M45.17 52.52 C55.75 39.12, 66.82 27.14, 80.6 11.76 M50.81 52.12 C63.26 41.96, 71.97 27.93, 80.34 18.16 M50.81 52.12 C62.16 38.92, 74.16 26.32, 80.34 18.16 M55.8 52.48 C60.88 44.82, 66.01 39.97, 80.73 23.8 M55.8 52.48 C63.93 44.08, 69.8 34.44, 80.73 23.8 M61.44 52.09 C66.26 44.64, 74.51 34.61, 80.47 30.2 M61.44 52.09 C66.23 47.77, 70.51 43.56, 80.47 30.2 M66.43 52.45 C70.35 46.32, 76.24 42.46, 78.24 38.86 M66.43 52.45 C70.13 48.47, 72.47 45.43, 78.24 38.86" stroke="#000000" stroke-width="0.5" fill="none"></path><path d="M12.89 0 M12.89 0 C28.3 0.89, 45.62 1.21, 65.53 0 M12.89 0 C25.5 -0.72, 39.79 -0.67, 65.53 0 M65.53 0 C75.35 0.76, 80.24 4.74, 78.41 12.89 M65.53 0 C73.78 -0.62, 79.98 2.39, 78.41 12.89 M78.41 12.89 C78.63 17.66, 76.61 25.57, 78.41 38.66 M78.41 12.89 C78.28 18.83, 78.06 24.61, 78.41 38.66 M78.41 38.66 C78.01 47.06, 75.72 52.53, 65.53 51.54 M78.41 38.66 C76.76 48.83, 73.85 50.59, 65.53 51.54 M65.53 51.54 C53.38 51.91, 38.98 52.13, 12.89 51.54 M65.53 51.54 C51.47 50.77, 36.77 51, 12.89 51.54 M12.89 51.54 C4.62 52.41, -1.31 47.64, 0 38.66 M12.89 51.54 C3.57 53.23, 0.72 48.16, 0 38.66 M0 38.66 C1.31 27.03, 0.58 18.08, 0 12.89 M0 38.66 C-0.12 33.48, 0.43 26.54, 0 12.89 M0 12.89 C1.32 3.8, 4.1 0.14, 12.89 0 M0 12.89 C-0.34 2.09, 4.82 -0.75, 12.89 0" stroke="#000000" stroke-width="1" fill="none"></path></g><g stroke-linecap="round"><g transform="translate(83.70220466463189 86.39741687837497) rotate(0 1.0572536795042708 6.318941285714544)" fill-rule="evenodd"><path d="M15.27 4.07 L-4.54 3.2 L-23.84 1.67 L-15.15 11.76 L-3.26 15.88 L4.91 18.26 L12.23 14.58 L25.01 -2.91 L13.92 0.49" stroke="none" stroke-width="0" fill="#ffffff" fill-rule="evenodd"></path><path d="M14.41 2.46 C11.24 2.82, 1.93 4.39, -4.55 4.31 C-11.02 4.23, -25.75 -0.13, -24.44 1.97 C-23.14 4.08, -4.94 18.05, 3.29 16.94 C11.52 15.84, 23.16 -2.39, 24.94 -4.66 C26.73 -6.92, 15.6 2.26, 14.01 3.35 M16.21 1.57 C13.48 1.6, 4.57 2.38, -2.29 2.65 C-9.16 2.93, -25.91 0.67, -24.98 3.21 C-24.05 5.75, -5.33 19.23, 3.32 17.89 C11.97 16.55, 25 -2.35, 26.92 -4.84 C28.84 -7.33, 16.6 2.05, 14.81 2.93" stroke="#000000" stroke-width="1" fill="none"></path></g></g><g stroke-linecap="round" transform="translate(60.89911510881012 61.54280850829801) rotate(0 8.049505943615372 8.938539866862698)"><path d="M8.55 -0.03 C10.19 -0.39, 12.09 0.11, 13.23 1.22 C14.37 2.34, 15.13 4.55, 15.4 6.66 C15.66 8.76, 15.74 12.16, 14.81 13.85 C13.88 15.53, 11.49 16.08, 9.81 16.76 C8.13 17.43, 6.09 18.52, 4.72 17.91 C3.36 17.29, 2.28 14.71, 1.62 13.08 C0.96 11.44, 0.64 9.97, 0.75 8.12 C0.86 6.27, 0.98 3.3, 2.28 1.98 C3.57 0.67, 7.29 0.6, 8.53 0.23 C9.76 -0.14, 9.53 -0.2, 9.67 -0.24 M4.84 2.09 C6.19 1.44, 8.34 0.96, 9.96 1.16 C11.59 1.35, 13.65 1.54, 14.61 3.29 C15.56 5.03, 15.76 9.7, 15.68 11.63 C15.6 13.55, 15.26 13.79, 14.14 14.83 C13.03 15.86, 10.7 17.46, 9.01 17.84 C7.32 18.21, 5.47 18.49, 4 17.08 C2.54 15.68, 0.52 11.48, 0.23 9.41 C-0.05 7.33, 1.43 6.21, 2.29 4.62 C3.15 3.03, 4.71 0.55, 5.4 -0.14 C6.09 -0.82, 6.61 0.06, 6.43 0.51" stroke="none" stroke-width="0" fill="#ffffff"></path><path d="M10.6 0.35 C12.05 0.77, 14.03 1.83, 14.76 3.71 C15.49 5.59, 15.22 9.65, 14.98 11.64 C14.73 13.63, 14.47 14.48, 13.3 15.68 C12.13 16.87, 9.77 18.84, 7.94 18.82 C6.11 18.8, 3.55 17.01, 2.33 15.56 C1.11 14.1, 0.97 11.89, 0.62 10.09 C0.26 8.29, -0.66 6.33, 0.22 4.75 C1.09 3.17, 3.9 1.19, 5.87 0.62 C7.85 0.05, 10.9 1.19, 12.05 1.35 C13.2 1.51, 12.97 1.48, 12.79 1.58 M5.76 0.79 C7.27 0.4, 8.32 0.16, 9.7 0.87 C11.08 1.58, 13.23 3.44, 14.04 5.05 C14.85 6.67, 14.95 8.96, 14.56 10.56 C14.17 12.16, 12.87 13.34, 11.68 14.66 C10.49 15.97, 8.86 18.06, 7.42 18.46 C5.97 18.86, 4.15 18.23, 3 17.05 C1.84 15.87, 1 13.76, 0.49 11.37 C-0.02 8.98, -0.74 4.6, -0.06 2.71 C0.63 0.81, 3.76 0.2, 4.59 -0.01 C5.41 -0.22, 4.62 1.1, 4.9 1.42" stroke="#000000" stroke-width="1" fill="none"></path></g><g stroke-linecap="round" transform="translate(64.84060751150804 65.83644367193054) rotate(0 2.4582323540383584 3.2776431387178775)"><path d="M4.92 3.28 C4.92 3.47, 4.9 3.66, 4.88 3.85 C4.85 4.03, 4.82 4.22, 4.77 4.4 C4.72 4.58, 4.66 4.75, 4.59 4.92 C4.52 5.08, 4.43 5.24, 4.34 5.38 C4.25 5.53, 4.15 5.67, 4.04 5.79 C3.93 5.91, 3.81 6.02, 3.69 6.12 C3.56 6.21, 3.43 6.29, 3.3 6.36 C3.17 6.42, 3.03 6.47, 2.89 6.51 C2.74 6.54, 2.6 6.56, 2.46 6.56 C2.32 6.56, 2.17 6.54, 2.03 6.51 C1.89 6.47, 1.75 6.42, 1.62 6.36 C1.48 6.29, 1.35 6.21, 1.23 6.12 C1.11 6.02, 0.99 5.91, 0.88 5.79 C0.77 5.67, 0.67 5.53, 0.58 5.38 C0.48 5.24, 0.4 5.08, 0.33 4.92 C0.26 4.75, 0.2 4.58, 0.15 4.4 C0.1 4.22, 0.06 4.03, 0.04 3.85 C0.01 3.66, 0 3.47, 0 3.28 C0 3.09, 0.01 2.9, 0.04 2.71 C0.06 2.52, 0.1 2.33, 0.15 2.16 C0.2 1.98, 0.26 1.8, 0.33 1.64 C0.4 1.47, 0.48 1.32, 0.58 1.17 C0.67 1.03, 0.77 0.89, 0.88 0.77 C0.99 0.64, 1.11 0.53, 1.23 0.44 C1.35 0.34, 1.48 0.26, 1.62 0.2 C1.75 0.13, 1.89 0.08, 2.03 0.05 C2.17 0.02, 2.32 0, 2.46 0 C2.6 0, 2.74 0.02, 2.89 0.05 C3.03 0.08, 3.17 0.13, 3.3 0.2 C3.43 0.26, 3.56 0.34, 3.69 0.44 C3.81 0.53, 3.93 0.64, 4.04 0.77 C4.15 0.89, 4.25 1.03, 4.34 1.17 C4.43 1.32, 4.52 1.47, 4.59 1.64 C4.66 1.8, 4.72 1.98, 4.77 2.16 C4.82 2.33, 4.85 2.52, 4.88 2.71 C4.9 2.9, 4.91 3.18, 4.92 3.28 C4.92 3.37, 4.92 3.18, 4.92 3.28" stroke="none" stroke-width="0" fill="#000000"></path><path d="M4.92 3.28 C4.92 3.47, 4.9 3.66, 4.88 3.85 C4.85 4.03, 4.82 4.22, 4.77 4.4 C4.72 4.58, 4.66 4.75, 4.59 4.92 C4.52 5.08, 4.43 5.24, 4.34 5.38 C4.25 5.53, 4.15 5.67, 4.04 5.79 C3.93 5.91, 3.81 6.02, 3.69 6.12 C3.56 6.21, 3.43 6.29, 3.3 6.36 C3.17 6.42, 3.03 6.47, 2.89 6.51 C2.74 6.54, 2.6 6.56, 2.46 6.56 C2.32 6.56, 2.17 6.54, 2.03 6.51 C1.89 6.47, 1.75 6.42, 1.62 6.36 C1.48 6.29, 1.35 6.21, 1.23 6.12 C1.11 6.02, 0.99 5.91, 0.88 5.79 C0.77 5.67, 0.67 5.53, 0.58 5.38 C0.48 5.24, 0.4 5.08, 0.33 4.92 C0.26 4.75, 0.2 4.58, 0.15 4.4 C0.1 4.22, 0.06 4.03, 0.04 3.85 C0.01 3.66, 0 3.47, 0 3.28 C0 3.09, 0.01 2.9, 0.04 2.71 C0.06 2.52, 0.1 2.33, 0.15 2.16 C0.2 1.98, 0.26 1.8, 0.33 1.64 C0.4 1.47, 0.48 1.32, 0.58 1.17 C0.67 1.03, 0.77 0.89, 0.88 0.77 C0.99 0.64, 1.11 0.53, 1.23 0.44 C1.35 0.34, 1.48 0.26, 1.62 0.2 C1.75 0.13, 1.89 0.08, 2.03 0.05 C2.17 0.02, 2.32 0, 2.46 0 C2.6 0, 2.74 0.02, 2.89 0.05 C3.03 0.08, 3.17 0.13, 3.3 0.2 C3.43 0.26, 3.56 0.34, 3.69 0.44 C3.81 0.53, 3.93 0.64, 4.04 0.77 C4.15 0.89, 4.25 1.03, 4.34 1.17 C4.43 1.32, 4.52 1.47, 4.59 1.64 C4.66 1.8, 4.72 1.98, 4.77 2.16 C4.82 2.33, 4.85 2.52, 4.88 2.71 C4.9 2.9, 4.91 3.18, 4.92 3.28 C4.92 3.37, 4.92 3.18, 4.92 3.28" stroke="#000000" stroke-width="1" fill="none"></path></g><g stroke-linecap="round" transform="translate(89.65037071159367 59.62605813477822) rotate(0 8.049505943615372 8.938539866862698)"><path d="M10.62 -0.42 C12.03 -0.07, 13.48 1.68, 14.34 3.53 C15.21 5.38, 16.14 8.78, 15.81 10.7 C15.49 12.62, 13.75 13.77, 12.4 15.06 C11.04 16.36, 9.16 18.37, 7.69 18.46 C6.22 18.55, 4.73 16.78, 3.57 15.61 C2.42 14.45, 1.31 13.3, 0.78 11.46 C0.24 9.62, -0.3 6.34, 0.36 4.56 C1.03 2.78, 2.89 1.49, 4.77 0.79 C6.66 0.09, 10.3 0.35, 11.68 0.35 C13.05 0.34, 13.23 0.52, 13.04 0.77 M7.42 0.67 C9.06 0.15, 11.57 -0.25, 12.94 1.1 C14.32 2.45, 15.19 6.84, 15.67 8.76 C16.14 10.68, 16.48 11.2, 15.79 12.62 C15.11 14.05, 13.14 16.35, 11.55 17.33 C9.95 18.31, 7.98 19.38, 6.24 18.51 C4.51 17.63, 1.93 13.96, 1.13 12.09 C0.32 10.23, 1.08 9.11, 1.42 7.32 C1.76 5.52, 1.85 2.57, 3.17 1.3 C4.49 0.04, 8.7 -0.25, 9.34 -0.26 C9.98 -0.26, 7.11 1.02, 7 1.26" stroke="none" stroke-width="0" fill="#ffffff"></path><path d="M7.17 -0.89 C8.7 -0.92, 10.35 1.46, 11.83 2.7 C13.31 3.95, 15.48 4.73, 16.06 6.58 C16.64 8.44, 16.19 12.1, 15.32 13.83 C14.45 15.57, 12.37 16.42, 10.87 17 C9.37 17.58, 8.07 17.74, 6.32 17.29 C4.58 16.85, 1.39 15.87, 0.42 14.34 C-0.56 12.81, 0.03 10, 0.48 8.11 C0.92 6.22, 1.44 4.28, 3.08 3 C4.72 1.72, 8.99 0.74, 10.3 0.44 C11.6 0.13, 11.18 1.22, 10.9 1.17 M2.89 1.27 C4.07 0.3, 6.91 0.18, 8.6 0.5 C10.29 0.82, 12 1.95, 13.03 3.19 C14.06 4.42, 14.67 5.86, 14.78 7.92 C14.89 9.97, 14.57 13.62, 13.69 15.51 C12.81 17.4, 11.09 18.9, 9.51 19.27 C7.93 19.64, 5.93 19.23, 4.2 17.72 C2.46 16.21, -0.12 12.31, -0.89 10.21 C-1.66 8.12, -1.14 6.54, -0.4 5.15 C0.34 3.75, 2.69 2.42, 3.55 1.87 C4.42 1.32, 4.83 1.82, 4.78 1.85" stroke="#000000" stroke-width="1" fill="none"></path></g><g stroke-linecap="round" transform="translate(93.59186311429443 63.91969329841234) rotate(0 2.4582323540383584 3.2776431387178775)"><path d="M4.92 3.28 C4.92 3.47, 4.9 3.66, 4.88 3.85 C4.85 4.03, 4.82 4.22, 4.77 4.4 C4.72 4.58, 4.66 4.75, 4.59 4.92 C4.52 5.08, 4.43 5.24, 4.34 5.38 C4.25 5.53, 4.15 5.67, 4.04 5.79 C3.93 5.91, 3.81 6.02, 3.69 6.12 C3.56 6.21, 3.43 6.29, 3.3 6.36 C3.17 6.42, 3.03 6.47, 2.89 6.51 C2.74 6.54, 2.6 6.56, 2.46 6.56 C2.32 6.56, 2.17 6.54, 2.03 6.51 C1.89 6.47, 1.75 6.42, 1.62 6.36 C1.48 6.29, 1.35 6.21, 1.23 6.12 C1.11 6.02, 0.99 5.91, 0.88 5.79 C0.77 5.67, 0.67 5.53, 0.58 5.38 C0.48 5.24, 0.4 5.08, 0.33 4.92 C0.26 4.75, 0.2 4.58, 0.15 4.4 C0.1 4.22, 0.06 4.03, 0.04 3.85 C0.01 3.66, 0 3.47, 0 3.28 C0 3.09, 0.01 2.9, 0.04 2.71 C0.06 2.52, 0.1 2.33, 0.15 2.16 C0.2 1.98, 0.26 1.8, 0.33 1.64 C0.4 1.47, 0.48 1.32, 0.58 1.17 C0.67 1.03, 0.77 0.89, 0.88 0.77 C0.99 0.64, 1.11 0.53, 1.23 0.44 C1.35 0.34, 1.48 0.26, 1.62 0.2 C1.75 0.13, 1.89 0.08, 2.03 0.05 C2.17 0.02, 2.32 0, 2.46 0 C2.6 0, 2.74 0.02, 2.89 0.05 C3.03 0.08, 3.17 0.13, 3.3 0.2 C3.43 0.26, 3.56 0.34, 3.69 0.44 C3.81 0.53, 3.93 0.64, 4.04 0.77 C4.15 0.89, 4.25 1.03, 4.34 1.17 C4.43 1.32, 4.52 1.47, 4.59 1.64 C4.66 1.8, 4.72 1.98, 4.77 2.16 C4.82 2.33, 4.85 2.52, 4.88 2.71 C4.9 2.9, 4.91 3.18, 4.92 3.28 C4.92 3.37, 4.92 3.18, 4.92 3.28" stroke="none" stroke-width="0" fill="#000000"></path><path d="M4.92 3.28 C4.92 3.47, 4.9 3.66, 4.88 3.85 C4.85 4.03, 4.82 4.22, 4.77 4.4 C4.72 4.58, 4.66 4.75, 4.59 4.92 C4.52 5.08, 4.43 5.24, 4.34 5.38 C4.25 5.53, 4.15 5.67, 4.04 5.79 C3.93 5.91, 3.81 6.02, 3.69 6.12 C3.56 6.21, 3.43 6.29, 3.3 6.36 C3.17 6.42, 3.03 6.47, 2.89 6.51 C2.74 6.54, 2.6 6.56, 2.46 6.56 C2.32 6.56, 2.17 6.54, 2.03 6.51 C1.89 6.47, 1.75 6.42, 1.62 6.36 C1.48 6.29, 1.35 6.21, 1.23 6.12 C1.11 6.02, 0.99 5.91, 0.88 5.79 C0.77 5.67, 0.67 5.53, 0.58 5.38 C0.48 5.24, 0.4 5.08, 0.33 4.92 C0.26 4.75, 0.2 4.58, 0.15 4.4 C0.1 4.22, 0.06 4.03, 0.04 3.85 C0.01 3.66, 0 3.47, 0 3.28 C0 3.09, 0.01 2.9, 0.04 2.71 C0.06 2.52, 0.1 2.33, 0.15 2.16 C0.2 1.98, 0.26 1.8, 0.33 1.64 C0.4 1.47, 0.48 1.32, 0.58 1.17 C0.67 1.03, 0.77 0.89, 0.88 0.77 C0.99 0.64, 1.11 0.53, 1.23 0.44 C1.35 0.34, 1.48 0.26, 1.62 0.2 C1.75 0.13, 1.89 0.08, 2.03 0.05 C2.17 0.02, 2.32 0, 2.46 0 C2.6 0, 2.74 0.02, 2.89 0.05 C3.03 0.08, 3.17 0.13, 3.3 0.2 C3.43 0.26, 3.56 0.34, 3.69 0.44 C3.81 0.53, 3.93 0.64, 4.04 0.77 C4.15 0.89, 4.25 1.03, 4.34 1.17 C4.43 1.32, 4.52 1.47, 4.59 1.64 C4.66 1.8, 4.72 1.98, 4.77 2.16 C4.82 2.33, 4.85 2.52, 4.88 2.71 C4.9 2.9, 4.91 3.18, 4.92 3.28 C4.92 3.37, 4.92 3.18, 4.92 3.28" stroke="#000000" stroke-width="1" fill="none"></path></g><g stroke-linecap="round"><g transform="translate(383.79991841921543 233.03183751844008) rotate(0 160.2227911380224 0.3035568539606004)"><path d="M0.7 0.24 C54.37 0.13, 267.59 -0.33, 320.83 -0.27 M-0.39 -0.68 C53.3 -0.62, 267.05 1.38, 320.36 1.29" stroke="black" stroke-width="4" fill="none"></path></g></g><g stroke-linecap="round"><g transform="translate(385.4449675427118 232.60378605379802) rotate(0 -4.538159378351736 -52.54658368819034)"><path d="M0.24 0.91 C-2.86 0.02, -14.15 -2.57, -18.23 -4.64 C-22.31 -6.7, -22.26 -7.82, -24.25 -11.51 C-26.25 -15.19, -29.37 -19.11, -30.19 -26.75 C-31.02 -34.4, -30.49 -49.91, -29.22 -57.37 C-27.96 -64.82, -26.18 -65.91, -22.61 -71.49 C-19.04 -77.06, -13.62 -85.43, -7.8 -90.84 C-1.99 -96.24, 7.39 -101.88, 12.28 -103.92 C17.16 -105.96, 20.05 -103.1, 21.51 -103.1 M-1.09 0.34 C-4.39 -1, -15.25 -4.36, -19.16 -6.63 C-23.07 -8.91, -22.76 -10.09, -24.54 -13.3 C-26.32 -16.52, -29.4 -18.69, -29.86 -25.91 C-30.31 -33.13, -28.13 -48.95, -27.25 -56.62 C-26.36 -64.29, -27.94 -66.53, -24.53 -71.92 C-21.12 -77.31, -12.79 -83.48, -6.77 -88.96 C-0.75 -94.43, 7.1 -102.14, 11.57 -104.75 C16.04 -107.36, 18.37 -105.2, 20.07 -104.63" stroke="black" stroke-width="4" fill="none"></path></g></g><g stroke-linecap="round"><g transform="translate(406.5737692979306 126.83083546545427) rotate(0 66.26743544301246 -53.561999504118916)"><path d="M0.91 0.03 C-0.95 -6.1, -8.58 -26.92, -10.45 -36.55 C-12.32 -46.18, -10.93 -52.06, -10.32 -57.76 C-9.71 -63.47, -10.31 -65.47, -6.79 -70.78 C-3.27 -76.09, 4.7 -84.73, 10.8 -89.64 C16.9 -94.54, 23.92 -97.55, 29.82 -100.21 C35.71 -102.88, 37.99 -104.64, 46.17 -105.62 C54.35 -106.59, 67.85 -107.14, 78.89 -106.07 C89.94 -104.99, 105.46 -101.32, 112.43 -99.17 C119.4 -97.02, 115.36 -100.5, 120.71 -93.17 C126.07 -85.83, 140.78 -61.46, 144.56 -55.14 M-0.07 -1 C-2.13 -7.48, -9.53 -28.96, -11.27 -38.19 C-13.02 -47.42, -11.29 -51.07, -10.54 -56.36 C-9.8 -61.64, -10.18 -64.46, -6.8 -69.89 C-3.43 -75.32, 3.86 -83.76, 9.69 -88.92 C15.52 -94.08, 22.06 -97.91, 28.17 -100.86 C34.29 -103.82, 37.57 -105.76, 46.38 -106.64 C55.19 -107.53, 69.73 -107.19, 81.04 -106.18 C92.36 -105.17, 107.63 -102.63, 114.27 -100.57 C120.91 -98.52, 116.31 -101.61, 120.89 -93.84 C125.47 -86.08, 138.24 -60.38, 141.75 -53.98" stroke="black" stroke-width="4" fill="none"></path></g></g><g stroke-linecap="round"><g transform="translate(548.3011272955937 69.61247443935068) rotate(0 60.860970524978484 14.740592029851712)"><path d="M0.03 0.23 C3.12 -1.67, 11.58 -7.7, 18.79 -10.51 C26 -13.31, 30.44 -16.73, 43.29 -16.61 C56.14 -16.48, 83.69 -13.25, 95.89 -9.73 C108.09 -6.22, 111.94 -4.45, 116.48 4.49 C121.02 13.42, 122.05 37.35, 123.14 43.9 M-1.41 -0.69 C1.58 -2.98, 10.98 -9.61, 18.32 -12.08 C25.66 -14.56, 29.68 -15.57, 42.62 -15.55 C55.55 -15.52, 83.8 -14.82, 95.92 -11.93 C108.05 -9.04, 111.12 -7.85, 115.34 1.82 C119.57 11.49, 119.84 38.79, 121.28 46.09" stroke="black" stroke-width="4" fill="none"></path></g></g><g stroke-linecap="round"><g transform="translate(701.3819218262145 232.74856842821205) rotate(0 15.017355874330178 -63.96911370246036)"><path d="M0.23 0.91 C5.06 -1.66, 21.9 -8.97, 29.84 -15.41 C37.78 -21.85, 43.61 -30.83, 47.87 -37.75 C52.12 -44.67, 54.05 -48.94, 55.38 -56.95 C56.71 -64.95, 57.76 -77.18, 55.85 -85.76 C53.94 -94.34, 49.1 -101.96, 43.9 -108.43 C38.7 -114.9, 31.01 -121.3, 24.65 -124.58 C18.28 -127.86, 12.72 -128.41, 5.71 -128.12 C-1.3 -127.83, -12.39 -124.82, -17.42 -122.85 C-22.46 -120.87, -23.12 -117.35, -24.49 -116.27 M-1.1 0.35 C3.57 -2.01, 21.45 -7.62, 29.44 -13.78 C37.43 -19.95, 42.42 -29.08, 46.84 -36.64 C51.27 -44.21, 54.63 -51.12, 55.99 -59.17 C57.34 -67.23, 56.83 -76.65, 54.98 -84.98 C53.13 -93.31, 49.91 -102.36, 44.88 -109.14 C39.85 -115.93, 31.53 -122.47, 24.8 -125.69 C18.08 -128.92, 11.34 -129.3, 4.54 -128.48 C-2.26 -127.67, -10.79 -122.78, -16.02 -120.79 C-21.25 -118.81, -25.3 -117.48, -26.86 -116.55" stroke="black" stroke-width="4" fill="none"></path></g></g><g stroke-linecap="round"><g transform="translate(151.08252930042698 124.67845797712712) rotate(0 105.68162724632771 0.6559931425377954)"><path d="M0.51 -1.01 C35.74 -0.71, 176.96 0.59, 212.04 1.2 M-0.67 1.07 C34.33 1.57, 175.45 2.39, 211.11 2.32" stroke="#000000" stroke-width="1" fill="none"></path></g><g transform="translate(151.08252930042698 124.67845797712712) rotate(0 105.68162724632771 0.6559931425377954)"><path d="M181.21 12.57 C191.75 7, 204.35 3.64, 210.53 1.96 M181.96 11.95 C188.96 10.32, 197.94 8.2, 210.64 3.06" stroke="#000000" stroke-width="1" fill="none"></path></g><g transform="translate(151.08252930042698 124.67845797712712) rotate(0 105.68162724632771 0.6559931425377954)"><path d="M181.26 -7.95 C191.68 -6.15, 204.26 -2.13, 210.53 1.96 M182.01 -8.57 C189.17 -5.05, 198.14 -2.02, 210.64 3.06" stroke="#000000" stroke-width="1" fill="none"></path></g></g><g stroke-linecap="round"><g transform="translate(354.082529300427 154.67845797712712) rotate(0 -101.0533994453773 -1.9162551809847344)"><path d="M-0.91 -0.74 C-34.92 -1.16, -169.34 -2.97, -202.92 -3.47 M0.81 1.48 C-32.93 0.78, -166.66 -4.69, -200.69 -5.31" stroke="#000000" stroke-width="1" fill="none"></path></g><g transform="translate(354.082529300427 154.67845797712712) rotate(0 -101.0533994453773 -1.9162551809847344)"><path d="M-173.44 -16.23 C-182.68 -11.84, -194.38 -8.94, -202.1 -6.04 M-171.41 -15.37 C-178.6 -12.76, -184.63 -10.88, -200.35 -6.17" stroke="#000000" stroke-width="1" fill="none"></path></g><g transform="translate(354.082529300427 154.67845797712712) rotate(0 -101.0533994453773 -1.9162551809847344)"><path d="M-174.07 4.28 C-182.9 0.54, -194.35 -4.69, -202.1 -6.04 M-172.04 5.14 C-178.95 3, -184.83 0.13, -200.35 -6.17" stroke="#000000" stroke-width="1" fill="none"></path></g></g><g transform="translate(41.082529300426984 232.17845797712712) rotate(0 29 13)"><text x="0" y="18" font-family="Virgil, Segoe UI Emoji" font-size="20px" fill="#000000" text-anchor="start" style="white-space: pre;" direction="ltr">Robot</text></g><g transform="translate(444.082529300427 240.67845797712712) rotate(0 65 13)"><text x="0" y="18" font-family="Virgil, Segoe UI Emoji" font-size="20px" fill="#000000" text-anchor="start" style="white-space: pre;" direction="ltr">Robot's brain</text></g></svg>