<svg version="1.1" xmlns="http://www.w3.org/2000/svg" viewBox="0 0 835 287" width="835" height="287">
  <!-- svg-source:excalidraw -->
  
  <defs>
    <style>
      @font-face {
        font-family: "Virgil";
        src: url("https://excalidraw.com/Virgil.woff2");
      }
      @font-face {
        font-family: "Cascadia";
        src: url("https://excalidraw.com/Cascadia.woff2");
      }
    </style>
  </defs>
  <rect x="0" y="0" width="835" height="287" fill="#ffffff"></rect><g stroke-linecap="round" transform="translate(10 19) rotate(0 120.5 123)"><path d="M0.71 -0.43 C86.98 0.62, 174.92 0.15, 241.47 -0.74 M0.38 -0.14 C75.79 2.46, 151.5 1.36, 241.83 -0.45 M240.34 1.14 C241.83 78.94, 240.74 155.75, 241.51 246.03 M240.87 0.4 C239.58 94.05, 238.77 189.98, 240.67 245.63 M239.38 247.36 C152.64 244.34, 62.22 243.48, 1.66 245.33 M241.19 246.79 C147.49 246.81, 53.57 246.15, -0.29 245.62 M-0.77 246.84 C-0.11 170.65, 2.62 99.32, -0.83 -1.11 M-0.43 245.49 C-0.45 159.8, -0.72 72.48, 0.7 -0.58" stroke="#000000" stroke-width="1" fill="none"></path></g><g stroke-linecap="round" transform="translate(582 14) rotate(0 121.5 131.5)"><path d="M-0.34 0.98 C89.41 1.52, 181.48 2.7, 242.12 -0.98 M-0.31 0.56 C96.17 -1.28, 194.39 -0.44, 243.44 0.11 M243.47 -0.14 C243.99 68.55, 244.8 139.95, 243.33 261.54 M242.33 -0.11 C241.9 75.31, 241.62 150.69, 242.39 262.92 M242.31 264.24 C177.04 262.76, 111.98 262.76, 1.46 264.56 M243.74 262.67 C184.12 263.74, 124.49 263.93, 0.64 262.27 M-1.38 262.5 C-0.14 173.28, -1.7 84.97, 0.17 1.55 M-0.25 262.98 C-1.36 174.2, -0.6 84.65, -0.63 -0.29" stroke="#000000" stroke-width="1" fill="none"></path></g><g stroke-linecap="round"><g transform="translate(283 38.72161507641623) rotate(0 133.3591697238386 2.220779390612062)"><path d="M-0.31 1.18 C44.28 1.65, 222.3 3.28, 267.03 3.68 M1.72 0.76 C46.2 0.84, 221.75 1.99, 266.1 2.18" stroke="#000000" stroke-width="1" fill="none"></path></g><g transform="translate(283 38.72161507641623) rotate(0 133.3591697238386 2.220779390612062)"><path d="M239.82 12.34 C247.04 11.51, 254.25 6.05, 266.34 3.3 M237.39 13.04 C248.66 8.89, 259.01 4.58, 266.86 2.74" stroke="#000000" stroke-width="1" fill="none"></path></g><g transform="translate(283 38.72161507641623) rotate(0 133.3591697238386 2.220779390612062)"><path d="M239.94 -8.18 C247.28 -3.71, 254.46 -3.88, 266.34 3.3 M237.51 -7.48 C248.65 -3.64, 258.96 0.04, 266.86 2.74" stroke="#000000" stroke-width="1" fill="none"></path></g></g><g stroke-linecap="round"><g transform="translate(283.0000000000001 92.58654321987875) rotate(0 133.2940045448904 0.5867008360453312)"><path d="M0.84 0.92 C45.5 1.37, 222.47 1.5, 266.76 1.48 M-0.17 0.36 C44.4 0.57, 221.39 -0.55, 265.69 -0.26" stroke="#000000" stroke-width="1" fill="none"></path></g><g transform="translate(283.0000000000001 92.58654321987875) rotate(0 133.2940045448904 0.5867008360453312)"><path d="M239.04 9.62 C244.6 7.03, 249.19 7.16, 265.72 1.53 M237.31 10.15 C247.08 7.09, 254.51 3.15, 264.95 -0.65" stroke="#000000" stroke-width="1" fill="none"></path></g><g transform="translate(283.0000000000001 92.58654321987875) rotate(0 133.2940045448904 0.5867008360453312)"><path d="M239.03 -10.9 C244.39 -9.3, 248.98 -4.98, 265.72 1.53 M237.29 -10.37 C246.89 -7.18, 254.32 -4.86, 264.95 -0.65" stroke="#000000" stroke-width="1" fill="none"></path></g></g><g stroke-linecap="round"><g transform="translate(282 139.95382896079423) rotate(0 133.72508914451578 0.6944920659672427)"><path d="M0.61 0.21 C45.35 0.44, 223.66 0.44, 267.98 0.48 M-0.53 -0.73 C44.18 -0.2, 223.21 1.69, 267.55 2.12" stroke="#000000" stroke-width="1" fill="none"></path></g><g transform="translate(282 139.95382896079423) rotate(0 133.72508914451578 0.6944920659672427)"><path d="M239.6 13.73 C247 8.6, 254.3 6.71, 269.21 1.77 M239.32 11.19 C249.43 8.46, 260.82 3.7, 267.58 1.39" stroke="#000000" stroke-width="1" fill="none"></path></g><g transform="translate(282 139.95382896079423) rotate(0 133.72508914451578 0.6944920659672427)"><path d="M239.81 -6.79 C247 -6.58, 254.25 -3.15, 269.21 1.77 M239.53 -9.33 C249.76 -4.13, 261.07 -0.97, 267.58 1.39" stroke="#000000" stroke-width="1" fill="none"></path></g></g><g stroke-linecap="round"><g transform="translate(282 185.02593972784604) rotate(0 133.7584240723914 -1.7034510050767935)"><path d="M-1.01 -0.12 C43.35 -0.35, 221.76 -1.22, 266.23 -1.71 M0.66 -1.22 C45.4 -1.75, 223.96 -3.18, 268.53 -3.29" stroke="#000000" stroke-width="1" fill="none"></path></g><g transform="translate(282 185.02593972784604) rotate(0 133.7584240723914 -1.7034510050767935)"><path d="M240.21 5.84 C250.67 2.22, 256.99 0.52, 268.93 -2.33 M241.1 6.66 C245.77 5.19, 252.52 3.17, 269.41 -2.88" stroke="#000000" stroke-width="1" fill="none"></path></g><g transform="translate(282 185.02593972784604) rotate(0 133.7584240723914 -1.7034510050767935)"><path d="M240.09 -14.68 C250.54 -12.08, 256.89 -7.56, 268.93 -2.33 M240.98 -13.86 C245.59 -10.83, 252.36 -8.36, 269.41 -2.88" stroke="#000000" stroke-width="1" fill="none"></path></g></g><g stroke-linecap="round"><g transform="translate(549 224) rotate(0 -135.08248080926484 0.5370520471316951)"><path d="M-0.08 0.81 C-44.81 0.61, -224.44 -0.13, -269.09 -0.2 M-1.58 0.19 C-46.41 0.09, -225.65 1.55, -270.09 1.23" stroke="#000000" stroke-width="1" fill="none"></path></g><g transform="translate(549 224) rotate(0 -135.08248080926484 0.5370520471316951)"><path d="M-240.56 -9.22 C-248.95 -4.87, -254.73 -4.24, -271.55 1.37 M-241.61 -8.44 C-249.91 -6.86, -256.72 -3, -270.99 2.13" stroke="#000000" stroke-width="1" fill="none"></path></g><g transform="translate(549 224) rotate(0 -135.08248080926484 0.5370520471316951)"><path d="M-240.53 11.3 C-249.09 10.71, -254.88 6.4, -271.55 1.37 M-241.58 12.09 C-249.88 8.16, -256.7 6.53, -270.99 2.13" stroke="#000000" stroke-width="1" fill="none"></path></g></g><g stroke-linecap="round"><g transform="translate(545 266) rotate(0 -135.56107620466963 0.315776786953208)"><path d="M-0.96 1.17 C-46.39 1.22, -226.74 -0.23, -271.85 -0.54 M0.73 0.74 C-44.38 1.02, -224.02 0.79, -269.59 0.71" stroke="#000000" stroke-width="1" fill="none"></path></g><g transform="translate(545 266) rotate(0 -135.56107620466963 0.315776786953208)"><path d="M-239.43 -10.93 C-252.45 -7.11, -262.77 -0.78, -270.75 0.08 M-241.49 -8.88 C-252.58 -5.57, -262.47 -2.21, -268.81 0.38" stroke="#000000" stroke-width="1" fill="none"></path></g><g transform="translate(545 266) rotate(0 -135.56107620466963 0.315776786953208)"><path d="M-239.46 9.59 C-252.33 6.06, -262.64 5.05, -270.75 0.08 M-241.51 11.64 C-252.75 7.34, -262.64 3.09, -268.81 0.38" stroke="#000000" stroke-width="1" fill="none"></path></g></g><g transform="translate(69 114.5) rotate(0 23.5 13)"><text x="0" y="18" font-family="Virgil, Segoe UI Emoji" font-size="20px" fill="#000000" text-anchor="start" style="white-space: pre;" direction="ltr">Body</text></g><g transform="translate(656 122) rotate(0 25.5 13)"><text x="0" y="18" font-family="Virgil, Segoe UI Emoji" font-size="20px" fill="#000000" text-anchor="start" style="white-space: pre;" direction="ltr">Brain</text></g><g transform="translate(350 10) rotate(0 26 13)"><text x="0" y="18" font-family="Virgil, Segoe UI Emoji" font-size="20px" fill="#000000" text-anchor="start" style="white-space: pre;" direction="ltr">Audio</text></g><g transform="translate(354 62) rotate(0 24.5 13)"><text x="0" y="18" font-family="Virgil, Segoe UI Emoji" font-size="20px" fill="#000000" text-anchor="start" style="white-space: pre;" direction="ltr">Video</text></g><g transform="translate(357 112) rotate(0 68 13)"><text x="0" y="18" font-family="Virgil, Segoe UI Emoji" font-size="20px" fill="#000000" text-anchor="start" style="white-space: pre;" direction="ltr">Sensor values</text></g><g transform="translate(350 154) rotate(0 67.5 13)"><text x="0" y="18" font-family="Virgil, Segoe UI Emoji" font-size="20px" fill="#000000" text-anchor="start" style="white-space: pre;" direction="ltr">Proprioception</text></g><g transform="translate(350 199) rotate(0 70 13)"><text x="0" y="18" font-family="Virgil, Segoe UI Emoji" font-size="20px" fill="#000000" text-anchor="start" style="white-space: pre;" direction="ltr">Speech / text</text></g><g transform="translate(351 237) rotate(0 80 13)"><text x="0" y="18" font-family="Virgil, Segoe UI Emoji" font-size="20px" fill="#000000" text-anchor="start" style="white-space: pre;" direction="ltr">Motor commands</text></g></svg>