<svg version="1.1" xmlns="http://www.w3.org/2000/svg" viewBox="0 0 1124 486.5" width="1124" height="486.5">
  <!-- svg-source:excalidraw -->
  
  <defs>
    <style>
      @font-face {
        font-family: "Virgil";
        src: url("https://excalidraw.com/Virgil.woff2");
      }
      @font-face {
        font-family: "Cascadia";
        src: url("https://excalidraw.com/Cascadia.woff2");
      }
    </style>
  </defs>
  <rect x="0" y="0" width="1124" height="486.5" fill="#ffffff"></rect><g stroke-linecap="round" transform="translate(739 54.5) rotate(0 187.5 211)"><path d="M-0.25 0.72 C138.39 1.68, 278.74 2.54, 374.35 -0.72 M-0.23 0.41 C148.91 -1.29, 299.33 -0.67, 375.32 0.08 M375.31 -0.09 C376.04 111.42, 376.58 224.75, 375.22 421.03 M374.55 -0.07 C374 120.62, 373.81 241.29, 374.59 421.95 M374.49 422.91 C273.55 421.08, 172.78 421.08, 1.07 423.15 M375.54 421.76 C283.58 422.99, 191.61 423.13, 0.47 421.47 M-0.92 421.67 C-0.73 278.37, -1.77 135.69, 0.11 1.04 M-0.16 421.98 C-1.28 278.94, -0.77 135.39, -0.42 -0.19" stroke="#000000" stroke-width="1" fill="none"></path></g><g stroke-linecap="round" transform="translate(10 38.5) rotate(0 187.5 211)"><path d="M-1.09 0.74 C141.09 -1.12, 281 -1.1, 374.12 0.32 M0.15 0.13 C113.07 -0.64, 225.58 -1.18, 374.8 0.04 M374.04 0.66 C374.45 152.16, 375.87 305.3, 374.38 422.31 M374.75 -0.5 C374.78 107.6, 374.38 215.35, 374.78 422.43 M375.94 422.37 C290.7 424.06, 202.95 423.57, -0.66 421.15 M375.25 422.51 C246.07 422.1, 115.82 421.59, 0.52 422.42 M-0.53 421.6 C-3.15 280.68, -2.75 138.74, 0.93 -0.59 M0.12 422.52 C-1.09 316.16, -0.54 209.48, 0.16 0.46" stroke="#000000" stroke-width="1" fill="none"></path></g><g stroke-linecap="round"><g transform="translate(431 159.22161507641624) rotate(0 133.3591697238386 2.220779390612062)"><path d="M-0.31 1.18 C44.28 1.65, 222.3 3.28, 267.03 3.68 M1.72 0.76 C46.2 0.84, 221.75 1.99, 266.1 2.18" stroke="#000000" stroke-width="1" fill="none"></path></g><g transform="translate(431 159.22161507641624) rotate(0 133.3591697238386 2.220779390612062)"><path d="M239.82 12.34 C247.04 11.51, 254.25 6.05, 266.34 3.3 M237.39 13.04 C248.66 8.89, 259.01 4.58, 266.86 2.74" stroke="#000000" stroke-width="1" fill="none"></path></g><g transform="translate(431 159.22161507641624) rotate(0 133.3591697238386 2.220779390612062)"><path d="M239.94 -8.18 C247.28 -3.71, 254.46 -3.88, 266.34 3.3 M237.51 -7.48 C248.65 -3.64, 258.96 0.04, 266.86 2.74" stroke="#000000" stroke-width="1" fill="none"></path></g></g><g stroke-linecap="round"><g transform="translate(431.0000000000001 197.08654321987873) rotate(0 133.2940045448904 0.5867008360453315)"><path d="M0.84 0.92 C45.5 1.37, 222.47 1.5, 266.76 1.48 M-0.17 0.36 C44.4 0.57, 221.39 -0.55, 265.69 -0.26" stroke="#000000" stroke-width="1" fill="none"></path></g><g transform="translate(431.0000000000001 197.08654321987873) rotate(0 133.2940045448904 0.5867008360453315)"><path d="M239.04 9.62 C244.6 7.03, 249.19 7.16, 265.72 1.53 M237.31 10.15 C247.08 7.09, 254.51 3.15, 264.95 -0.65" stroke="#000000" stroke-width="1" fill="none"></path></g><g transform="translate(431.0000000000001 197.08654321987873) rotate(0 133.2940045448904 0.5867008360453315)"><path d="M239.03 -10.9 C244.39 -9.3, 248.98 -4.98, 265.72 1.53 M237.29 -10.37 C246.89 -7.18, 254.32 -4.86, 264.95 -0.65" stroke="#000000" stroke-width="1" fill="none"></path></g></g><g stroke-linecap="round"><g transform="translate(430 233.45382896079423) rotate(0 133.72508914451578 0.6944920659672427)"><path d="M0.61 0.21 C45.35 0.44, 223.66 0.44, 267.98 0.48 M-0.53 -0.73 C44.18 -0.2, 223.21 1.69, 267.55 2.12" stroke="#000000" stroke-width="1" fill="none"></path></g><g transform="translate(430 233.45382896079423) rotate(0 133.72508914451578 0.6944920659672427)"><path d="M239.6 13.73 C247 8.6, 254.3 6.71, 269.21 1.77 M239.32 11.19 C249.43 8.46, 260.82 3.7, 267.58 1.39" stroke="#000000" stroke-width="1" fill="none"></path></g><g transform="translate(430 233.45382896079423) rotate(0 133.72508914451578 0.6944920659672427)"><path d="M239.81 -6.79 C247 -6.58, 254.25 -3.15, 269.21 1.77 M239.53 -9.33 C249.76 -4.13, 261.07 -0.97, 267.58 1.39" stroke="#000000" stroke-width="1" fill="none"></path></g></g><g stroke-linecap="round"><g transform="translate(429 273.52593972784604) rotate(0 133.7584240723914 -1.7034510050767935)"><path d="M-1.01 -0.12 C43.35 -0.35, 221.76 -1.22, 266.23 -1.71 M0.66 -1.22 C45.4 -1.75, 223.96 -3.18, 268.53 -3.29" stroke="#000000" stroke-width="1" fill="none"></path></g><g transform="translate(429 273.52593972784604) rotate(0 133.7584240723914 -1.7034510050767935)"><path d="M240.21 5.84 C250.67 2.22, 256.99 0.52, 268.93 -2.33 M241.1 6.66 C245.77 5.19, 252.52 3.17, 269.41 -2.88" stroke="#000000" stroke-width="1" fill="none"></path></g><g transform="translate(429 273.52593972784604) rotate(0 133.7584240723914 -1.7034510050767935)"><path d="M240.09 -14.68 C250.54 -12.08, 256.89 -7.56, 268.93 -2.33 M240.98 -13.86 C245.59 -10.83, 252.36 -8.36, 269.41 -2.88" stroke="#000000" stroke-width="1" fill="none"></path></g></g><g stroke-linecap="round"><g transform="translate(695 307.5) rotate(0 -135.08248080926484 0.5370520471316951)"><path d="M-0.08 0.81 C-44.81 0.61, -224.44 -0.13, -269.09 -0.2 M-1.58 0.19 C-46.41 0.09, -225.65 1.55, -270.09 1.23" stroke="#000000" stroke-width="1" fill="none"></path></g><g transform="translate(695 307.5) rotate(0 -135.08248080926484 0.5370520471316951)"><path d="M-240.56 -9.22 C-248.95 -4.87, -254.73 -4.24, -271.55 1.37 M-241.61 -8.44 C-249.91 -6.86, -256.72 -3, -270.99 2.13" stroke="#000000" stroke-width="1" fill="none"></path></g><g transform="translate(695 307.5) rotate(0 -135.08248080926484 0.5370520471316951)"><path d="M-240.53 11.3 C-249.09 10.71, -254.88 6.4, -271.55 1.37 M-241.58 12.09 C-249.88 8.16, -256.7 6.53, -270.99 2.13" stroke="#000000" stroke-width="1" fill="none"></path></g></g><g stroke-linecap="round"><g transform="translate(694 339.5) rotate(0 -135.56107620466963 0.315776786953208)"><path d="M-0.96 1.17 C-46.39 1.22, -226.74 -0.23, -271.85 -0.54 M0.73 0.74 C-44.38 1.02, -224.02 0.79, -269.59 0.71" stroke="#000000" stroke-width="1" fill="none"></path></g><g transform="translate(694 339.5) rotate(0 -135.56107620466963 0.315776786953208)"><path d="M-239.43 -10.93 C-252.45 -7.11, -262.77 -0.78, -270.75 0.08 M-241.49 -8.88 C-252.58 -5.57, -262.47 -2.21, -268.81 0.38" stroke="#000000" stroke-width="1" fill="none"></path></g><g transform="translate(694 339.5) rotate(0 -135.56107620466963 0.315776786953208)"><path d="M-239.46 9.59 C-252.33 6.06, -262.64 5.05, -270.75 0.08 M-241.51 11.64 C-252.75 7.34, -262.64 3.09, -268.81 0.38" stroke="#000000" stroke-width="1" fill="none"></path></g></g><g transform="translate(176 10) rotate(0 23.5 13)"><text x="0" y="18" font-family="Virgil, Segoe UI Emoji" font-size="20px" fill="#000000" text-anchor="start" style="white-space: pre;" direction="ltr">Body</text></g><g transform="translate(894 30.5) rotate(0 25.5 13)"><text x="0" y="18" font-family="Virgil, Segoe UI Emoji" font-size="20px" fill="#000000" text-anchor="start" style="white-space: pre;" direction="ltr">Brain</text></g><g transform="translate(498 131.5) rotate(0 26 13)"><text x="0" y="18" font-family="Virgil, Segoe UI Emoji" font-size="20px" fill="#000000" text-anchor="start" style="white-space: pre;" direction="ltr">Audio</text></g><g transform="translate(503 165.5) rotate(0 24.5 13)"><text x="0" y="18" font-family="Virgil, Segoe UI Emoji" font-size="20px" fill="#000000" text-anchor="start" style="white-space: pre;" direction="ltr">Video</text></g><g transform="translate(499 202.5) rotate(0 68 13)"><text x="0" y="18" font-family="Virgil, Segoe UI Emoji" font-size="20px" fill="#000000" text-anchor="start" style="white-space: pre;" direction="ltr">Sensor values</text></g><g transform="translate(491 238.5) rotate(0 67.5 13)"><text x="0" y="18" font-family="Virgil, Segoe UI Emoji" font-size="20px" fill="#000000" text-anchor="start" style="white-space: pre;" direction="ltr">Proprioception</text></g><g transform="translate(496 275.5) rotate(0 70 13)"><text x="0" y="18" font-family="Virgil, Segoe UI Emoji" font-size="20px" fill="#000000" text-anchor="start" style="white-space: pre;" direction="ltr">Speech / text</text></g><g transform="translate(498 311.5) rotate(0 80 13)"><text x="0" y="18" font-family="Virgil, Segoe UI Emoji" font-size="20px" fill="#000000" text-anchor="start" style="white-space: pre;" direction="ltr">Motor commands</text></g><g stroke-linecap="round" transform="translate(394 116.5) rotate(0 41.5 131.5)"><path d="M53.04 6.69 C58.3 9.43, 64.5 19.3, 68.74 29.83 C72.99 40.35, 76.14 54.81, 78.5 69.86 C80.87 84.9, 82.61 103.18, 82.95 120.11 C83.29 137.04, 82.15 155.65, 80.55 171.43 C78.95 187.22, 76.7 202.06, 73.34 214.81 C69.97 227.57, 65.07 240.13, 60.37 247.96 C55.68 255.79, 50.41 260.34, 45.18 261.79 C39.94 263.24, 33.85 261.61, 28.97 256.66 C24.09 251.7, 20.03 242.83, 15.9 232.06 C11.77 221.28, 6.94 206.7, 4.2 192 C1.45 177.29, -0.17 160.36, -0.56 143.83 C-0.94 127.3, 0.14 108.72, 1.88 92.8 C3.61 76.87, 6.6 61.4, 9.86 48.29 C13.12 35.19, 16.74 22.03, 21.46 14.15 C26.19 6.27, 32.6 2.12, 38.23 1.01 C43.87 -0.1, 52.01 5.28, 55.28 7.48 C58.54 9.67, 57.94 12.05, 57.83 14.15 M29.16 5.15 C33.47 -1.61, 39.13 -0.98, 44.59 0.42 C50.06 1.83, 57.33 5.68, 61.95 13.57 C66.57 21.47, 69.01 34.84, 72.3 47.79 C75.59 60.75, 79.81 75.7, 81.71 91.31 C83.6 106.93, 84.05 124.51, 83.69 141.48 C83.33 158.46, 82.07 177.87, 79.55 193.16 C77.03 208.45, 72.99 222.73, 68.58 233.22 C64.17 243.71, 58.29 250.96, 53.1 256.08 C47.9 261.2, 42.32 265.17, 37.39 263.93 C32.46 262.7, 28.06 256.76, 23.52 248.67 C18.98 240.58, 13.51 228.1, 10.13 215.38 C6.75 202.66, 4.91 188.13, 3.23 172.34 C1.54 156.54, -0.43 137.61, 0.03 120.62 C0.49 103.63, 3.35 85.48, 5.98 70.4 C8.61 55.31, 12.17 40.56, 15.83 30.1 C19.48 19.64, 25.43 11.32, 27.9 7.62 C30.37 3.92, 30.31 6.04, 30.66 7.89" stroke="#000000" stroke-width="1" fill="none"></path></g><g stroke-linecap="round" transform="translate(642 119.5) rotate(0 41.5 131.5)"><path d="M56.72 8.95 C61.67 12.61, 65.33 23.43, 69.07 34.51 C72.81 45.59, 76.7 60.26, 79.17 75.43 C81.64 90.6, 83.79 108.52, 83.88 125.51 C83.98 142.51, 81.61 161.46, 79.74 177.42 C77.86 193.38, 76.03 208.97, 72.63 221.27 C69.22 233.57, 64.29 244.45, 59.3 251.23 C54.32 258.02, 48.05 261.39, 42.73 262.01 C37.41 262.62, 32.09 260.64, 27.36 254.93 C22.62 249.22, 18.11 238.94, 14.31 227.75 C10.52 216.56, 6.93 202.94, 4.6 187.8 C2.27 172.65, 0.75 153.9, 0.33 136.89 C-0.09 119.88, 0.4 101.52, 2.07 85.76 C3.73 70, 6.8 54.62, 10.31 42.34 C13.81 30.06, 18.19 19.08, 23.1 12.05 C28.01 5.03, 34.02 0.15, 39.78 0.2 C45.54 0.24, 54.09 9.22, 57.67 12.32 C61.25 15.42, 61.29 17.08, 61.27 18.8 M58.8 12.01 C63.21 16.94, 66.8 30.17, 70.63 42.62 C74.45 55.06, 79.85 70.92, 81.76 86.69 C83.66 102.46, 82.57 120.74, 82.04 137.23 C81.51 153.72, 80.42 170.47, 78.56 185.63 C76.69 200.8, 74.61 216.71, 70.84 228.23 C67.08 239.75, 61.2 248.85, 55.97 254.77 C50.74 260.68, 44.59 264.47, 39.45 263.72 C34.31 262.97, 29.88 257.41, 25.11 250.25 C20.34 243.09, 14.63 232.98, 10.85 220.76 C7.07 208.54, 4.19 192.65, 2.45 176.92 C0.71 161.18, -0.01 142.84, 0.4 126.33 C0.81 109.83, 2.98 93.29, 4.9 77.88 C6.82 62.47, 8.16 45.32, 11.91 33.87 C15.67 22.43, 22.28 14.89, 27.44 9.21 C32.61 3.54, 37.71 -0.52, 42.89 -0.16 C48.08 0.2, 56.09 8.76, 58.55 11.39 C61.01 14.02, 58.11 13.52, 57.66 15.6" stroke="#000000" stroke-width="1" fill="none"></path></g><g stroke-linecap="round"><g transform="translate(434 116.5) rotate(0 126.04720988532063 0.9661945254076301)"><path d="M0.5 0.78 C42.81 0.78, 210.7 0.49, 252.79 0.85 M-0.69 0.14 C41.61 0.17, 210 1.63, 252.26 1.79" stroke="#000000" stroke-width="1" fill="none"></path></g></g><g stroke-linecap="round"><g transform="translate(440 378.5) rotate(0 125.25555395444394 1.1349349612230526)"><path d="M-0.04 0.3 C41.96 0.79, 209.83 2.77, 252.04 2.87 M-1.52 -0.6 C40.32 -0.42, 208.68 0.83, 251.11 1.2" stroke="#000000" stroke-width="1" fill="none"></path></g></g><g transform="translate(503 391.5) rotate(0 25.5 13)"><text x="0" y="18" font-family="Virgil, Segoe UI Emoji" font-size="20px" fill="#000000" text-anchor="start" style="white-space: pre;" direction="ltr">gRPC</text></g><g stroke-linecap="round" transform="translate(754 123.5) rotate(0 26.5 129.5)"><path d="M-1.49 1.06 C15 -1.16, 32.59 -2.01, 54.46 -0.8 M-0.13 -0.32 C21.41 -0.13, 42.37 -0.44, 52.71 0.09 M53.73 -1.23 C54.6 85.87, 55.19 173.62, 52.66 258.8 M53.62 -0.3 C51.42 52.46, 51.75 103.62, 52.32 258.25 M53.94 258.75 C33.35 259.33, 13.21 259.15, -1.46 258.28 M53.56 258.29 C37.7 258.29, 21.31 258.95, 0.89 258.46 M0.5 260.07 C-0.32 189.93, 0.79 122.65, -1.06 0.3 M-0.68 258.36 C0.98 192.5, 0.88 125.92, -0.34 -0.54" stroke="#000000" stroke-width="1" fill="none"></path></g><g stroke-linecap="round" transform="translate(322 118.5) rotate(0 26.5 129.5)"><path d="M-0.12 -1.46 C14.26 0.16, 29.32 0.11, 54.13 -1.41 M0 0.89 C16.41 0.02, 33.66 -0.2, 53.31 0.67 M54.12 -1.06 C52.87 63.8, 51.57 130.06, 51.64 257.73 M53.03 -0.34 C52.6 67.71, 52.5 135.65, 52.58 259.67 M54.74 259.67 C34.74 260.62, 20.62 258.82, -0.8 258.45 M52.99 259.35 C41.16 259.22, 29.37 259.27, 0.14 258.37 M-0.1 260.54 C-1.59 190.87, -0.76 119.4, 1.54 -1.18 M-0.09 258.7 C-0.98 195.64, -0.55 133.64, -0.55 -0.07" stroke="#000000" stroke-width="1" fill="none"></path></g><g transform="translate(280 220.5) rotate(90 69 13)"><text x="0" y="18" font-family="Virgil, Segoe UI Emoji" font-size="20px" fill="#000000" text-anchor="start" style="white-space: pre;" direction="ltr">gRPC endpoint</text></g><g transform="translate(713 238.5) rotate(270 69 13)"><text x="0" y="18" font-family="Virgil, Segoe UI Emoji" font-size="20px" fill="#000000" text-anchor="start" style="white-space: pre;" direction="ltr">gRPC endpoint</text></g><g stroke-linecap="round" transform="translate(841 90.5) rotate(0 114 32)"><path d="M0.7 0.95 C76.87 1.43, 152.16 0.37, 227.02 -1.43 M0.66 0.26 C60.9 -0.47, 122.89 -0.83, 227.68 -0.22 M227.59 0.6 C226.71 14.37, 226.29 26.09, 226.44 63.33 M228.66 -0.32 C227.28 21.6, 228.28 41.37, 227.93 64.19 M227.24 63 C158.18 65.99, 90.29 66.34, 0.8 62.44 M228.23 64.85 C171.98 64.43, 114.79 65.4, -0.41 63.26 M0.76 62.32 C1.14 36.96, -0.9 12.4, -1.55 1.12 M-0.8 64.82 C-0.81 48.84, -0.3 34.46, -0.42 0.85" stroke="#000000" stroke-width="1" fill="none"></path></g><g stroke-linecap="round" transform="translate(839 180.5) rotate(0 114 32)"><path d="M0.65 -1.43 C90.84 -0.52, 179.34 0.13, 226.68 0.96 M-0.69 0.7 C51.46 0.27, 103.98 0.47, 227.64 0.72 M228.3 0.18 C229.91 20.32, 228.44 41.79, 228.76 63.67 M228.55 0.27 C229.45 24.88, 228.28 49.8, 228.07 63.87 M228.15 65.49 C166.51 64.36, 107.57 64.79, -0.21 64.12 M227.77 63.3 C173.88 62.04, 118.59 62.69, 0.51 63.25 M1.92 62.19 C1.13 42.04, -0.7 19.71, 1.79 1.37 M-0.76 64.34 C-0.54 50.16, -0.97 35.79, -0.82 0.17" stroke="#000000" stroke-width="1" fill="none"></path></g><g stroke-linecap="round" transform="translate(837 272.5) rotate(0 114 32)"><path d="M1.49 -1.55 C86.28 -0.71, 172.89 -0.38, 228.12 -1.03 M-0.7 0.52 C46.82 0.39, 94.75 1.04, 227.25 0.43 M226.19 1.71 C227.86 24.91, 227.95 51.83, 229.37 62.53 M228.34 -0.55 C228.08 18.16, 228.21 37.44, 228.17 63.41 M228.16 63.08 C148.28 64.15, 67.54 62.63, 0.21 62.71 M227.67 64.71 C150.07 63.87, 72.44 62.27, -0.57 64.43 M-0.53 65.82 C-1.13 44.3, -1.34 24.1, 1.42 0.32 M0.16 63.3 C1.23 49.08, 0.44 32.01, -0.05 0.4" stroke="#000000" stroke-width="1" fill="none"></path></g><g stroke-linecap="round" transform="translate(80 62.5) rotate(0 114 32)"><path d="M0.72 1.15 C68.14 0.81, 139.31 1.69, 229.58 1.04 M0.03 0.12 C46.1 -1.2, 93.91 -1.42, 227.88 -0.53 M226.92 -1.64 C227.97 16.15, 227.06 33.05, 229.65 63.82 M227.65 -0.06 C228 15.27, 227.83 31.79, 227.27 64.45 M226.81 65.16 C178.16 63.59, 125.14 61.32, 0.73 63.25 M227.27 63.44 C143.2 62.23, 58.56 61.96, -0.82 64.33 M0.13 64.71 C-1.93 48.13, 0.61 32.9, 1.32 -1.57 M0.26 63.93 C-0.41 42.15, -1.13 19.16, 0.69 -0.83" stroke="#000000" stroke-width="1" fill="none"></path></g><g stroke-linecap="round" transform="translate(76 143.5) rotate(0 114 32)"><path d="M-0.6 0.88 C65.46 -0.63, 133.31 0.15, 229.43 1.06 M-0.49 -0.4 C90.4 -1.42, 181.17 -0.39, 227.45 -0.3 M226.19 -0.31 C228.77 25.05, 228.85 46.97, 226.02 65.03 M227.66 0.85 C227.61 14.54, 228.57 27.39, 227.05 64.87 M228.72 64.27 C139.43 64.79, 48.01 66.05, -1.02 63.47 M228.4 64.11 C146.54 62.09, 64.84 61.31, -0.29 63.86 M-0.84 62.94 C-1.68 51.7, -1.64 38.87, -1.39 0.07 M0.22 63.17 C-0.09 42.57, -0.16 21.4, -0.91 0.1" stroke="#000000" stroke-width="1" fill="none"></path></g><g stroke-linecap="round" transform="translate(71 230.5) rotate(0 114 32)"><path d="M0.8 0.22 C80.76 1.8, 161.05 0.23, 227.41 -0.27 M-0.36 -0.45 C45.25 1.12, 91.16 1.14, 227.41 0.03 M228.45 -1.66 C227.05 20.53, 226.9 41.58, 226.18 64.2 M227.68 -0.92 C229.18 19.83, 227.52 38.8, 228.87 64.05 M229.31 64.58 C140.24 63.44, 49.97 64.79, 0.14 63 M227.33 64.35 C147.26 62.83, 68.39 63.55, -0.62 63.7 M0.51 65.49 C-1.5 39.85, 0.71 19.81, 1.95 -0.05 M0.19 63.81 C-0.73 41.28, 0.73 18.71, 0.96 0.98" stroke="#000000" stroke-width="1" fill="none"></path></g><g stroke-linecap="round" transform="translate(71 316.5) rotate(0 114 32)"><path d="M0.9 1.02 C83.57 1.13, 171.26 -0.26, 226.66 0.93 M0.51 0.14 C78.85 0.21, 158.93 -0.48, 228.29 0.71 M226.19 -0.83 C230.57 24.36, 229.4 47.58, 229.37 64.71 M227.59 0.82 C229.34 21.8, 227.68 42.75, 227.79 64.96 M228.89 64.79 C168.23 60.9, 112.4 63.57, 0.71 64.01 M228.33 64.61 C177.66 65.08, 127.02 65.54, -0.24 63.63 M1.8 62.12 C0.12 40.32, -1.02 20.14, 1.05 -0.96 M0.35 63.18 C0.43 40.3, 0.9 17.94, -0.62 0.39" stroke="#000000" stroke-width="1" fill="none"></path></g><g stroke-linecap="round" transform="translate(836 358.5) rotate(0 114 32)"><path d="M-1.54 1.46 C89.55 -1.96, 178.77 -0.34, 229.17 -1.25 M0.29 -0.47 C68.74 0.64, 137.01 0.77, 228.14 -0.5 M228.18 -1.08 C228.21 24.12, 226.63 44.62, 228.25 62.48 M227.61 0.83 C228.56 22.83, 229.04 42.86, 227.33 64.5 M227.55 65.55 C157.92 62.7, 88.55 62.03, 1.21 64.27 M228.14 63.41 C172.52 64.23, 115.75 63.1, -0.04 64.35 M-1.47 63.73 C-0.43 45.56, 0.94 28.52, -1.15 -1.57 M0.65 63.42 C-1.11 49.71, -0.87 35.28, 0.51 -0.95" stroke="#000000" stroke-width="1" fill="none"></path></g><g transform="translate(868 110.5) rotate(0 79.5 13)"><text x="0" y="18" font-family="Virgil, Segoe UI Emoji" font-size="20px" fill="#000000" text-anchor="start" style="white-space: pre;" direction="ltr">audio processing</text></g><g transform="translate(863 203.5) rotate(0 77.5 13)"><text x="0" y="18" font-family="Virgil, Segoe UI Emoji" font-size="20px" fill="#000000" text-anchor="start" style="white-space: pre;" direction="ltr">video processing</text></g><g transform="translate(898 442.5) rotate(0 8.5 13)"><text x="0" y="18" font-family="Virgil, Segoe UI Emoji" font-size="20px" fill="#000000" text-anchor="start" style="white-space: pre;" direction="ltr">...</text></g><g transform="translate(97 81.5) rotate(0 98.5 13)"><text x="0" y="18" font-family="Virgil, Segoe UI Emoji" font-size="20px" fill="#000000" text-anchor="start" style="white-space: pre;" direction="ltr">microphone interface</text></g><g transform="translate(101 162.5) rotate(0 84 13)"><text x="0" y="18" font-family="Virgil, Segoe UI Emoji" font-size="20px" fill="#000000" text-anchor="start" style="white-space: pre;" direction="ltr">camera interface</text></g><g transform="translate(103 247.5) rotate(0 77 13)"><text x="0" y="18" font-family="Virgil, Segoe UI Emoji" font-size="20px" fill="#000000" text-anchor="start" style="white-space: pre;" direction="ltr">motor interface</text></g></svg>