<?xml version="1.0" standalone="no"?>
<!DOCTYPE svg PUBLIC "-//W3C//DTD SVG 20010904//EN"
 "http://www.w3.org/TR/2001/REC-SVG-20010904/DTD/svg10.dtd">
<svg version="1.0" xmlns="http://www.w3.org/2000/svg"
 width="1080.000000pt" height="1080.000000pt" viewBox="0 0 1080.000000 1080.000000"
 preserveAspectRatio="xMidYMid meet">
<metadata>
Created by potrace 1.14, written by Peter Selinger 2001-2017
</metadata>
<g transform="translate(0.000000,1080.000000) scale(0.100000,-0.100000)"
fill="#000000" stroke="none">
<path d="M0 7156 l0 -3644 62 20 c149 46 279 61 546 61 l252 1 0 52 c0 97 17
65 23 -43 3 -58 10 -109 14 -112 5 -3 8 -28 8 -56 0 -41 -3 -50 -17 -49 -21 2
-21 0 -9 -24 5 -9 12 -25 15 -34 3 -12 21 -19 56 -24 28 -4 53 -11 56 -15 3
-5 11 -9 17 -9 22 1 -27 30 -50 30 -20 0 -23 5 -23 39 0 21 -9 67 -20 101 -16
50 -20 90 -20 203 0 86 -4 137 -9 131 -5 -5 -11 -20 -14 -34 -2 -14 -5 5 -6
42 -1 47 5 80 19 113 11 26 18 51 15 55 -3 5 8 17 25 26 31 19 43 51 15 40
-23 -8 -12 36 26 109 45 83 95 149 176 226 165 160 361 249 603 273 57 6 70
12 103 44 79 76 227 258 325 399 36 51 109 203 126 263 9 30 20 102 26 160 10
119 14 132 47 178 24 31 20 44 -6 20 -11 -11 -12 -8 -6 12 25 83 20 82 93 2
36 -41 90 -94 119 -118 30 -23 53 -47 53 -51 -1 -4 6 -10 15 -13 16 -6 16 -7
1 -23 -16 -16 -16 -17 1 -17 11 0 28 -7 39 -15 17 -13 16 -13 -12 -3 -60 22
-110 -36 -66 -75 26 -24 68 -21 86 5 9 12 16 17 16 11 0 -29 -42 -50 -88 -44
-16 2 45 -62 73 -77 11 -6 15 -12 8 -12 -7 0 -10 -7 -7 -15 8 -19 82 -29 116
-16 32 12 78 51 78 65 0 6 -5 4 -10 -4 -6 -9 -10 -10 -10 -3 0 28 20 19 64
-27 l46 -48 15 -118 c18 -150 55 -230 145 -323 l63 -65 -6 -75 c-4 -42 -20
-143 -37 -225 -32 -161 -35 -186 -20 -186 5 0 7 6 4 14 -3 8 0 17 7 22 7 4 10
3 7 -2 -3 -5 1 -15 9 -23 13 -12 14 -11 9 10 -3 13 2 6 13 -16 22 -46 111
-268 111 -278 0 -14 -88 -28 -159 -25 l-76 3 -3 -30 -3 -31 75 -13 c46 -7 103
-10 144 -5 67 6 69 5 75 -17 4 -13 2 -28 -3 -33 -16 -16 -191 -18 -248 -3 -39
10 -55 11 -57 3 -3 -6 -14 -49 -25 -96 -12 -46 -25 -91 -30 -100 -8 -15 6 -18
133 -28 78 -7 188 -13 244 -14 87 -1 102 -4 106 -19 12 -44 155 -102 201 -81
23 10 25 15 20 59 -2 26 -6 65 -7 87 -2 22 -10 43 -20 51 -9 7 -17 18 -17 25
0 8 -8 22 -17 32 -11 13 -14 22 -6 26 10 7 10 51 -2 187 -4 39 -7 103 -8 143
l-2 74 -40 22 c-45 25 -55 54 -31 88 13 19 16 19 22 5 3 -9 15 -17 25 -17 10
0 19 -5 19 -11 0 -5 -3 -8 -7 -6 -5 3 -9 -5 -9 -18 -2 -21 1 -22 27 -12 35 14
60 64 38 78 -8 5 -27 9 -42 9 -16 0 -26 4 -22 10 3 5 0 7 -8 4 -11 -4 -16 9
-20 56 -4 33 -14 71 -22 83 -8 13 -12 26 -9 30 4 4 0 17 -9 30 -8 13 -20 40
-25 60 -9 32 -7 41 14 72 13 20 24 37 24 38 0 1 -46 2 -103 2 -143 1 -207 26
-289 114 -57 61 -90 115 -94 153 -1 10 -6 23 -12 30 -22 27 -27 206 -5 184 4
-3 17 20 29 52 13 31 28 58 34 60 5 2 10 11 10 19 0 33 129 170 157 167 7 -1
11 2 8 6 -3 5 -2 10 2 13 5 2 2 2 -5 0 -7 -1 -10 2 -7 8 4 6 29 8 63 5 l57 -6
-57 16 c-55 15 -57 15 -107 -10 -57 -29 -152 -57 -191 -55 l-25 1 25 8 25 7
-30 7 c-61 15 -71 19 -115 39 l-45 20 30 13 c17 7 36 13 42 14 7 0 20 11 28
24 13 19 14 29 6 45 -6 11 -11 27 -11 37 0 9 -15 37 -33 63 -19 25 -45 67 -60
92 -28 50 -72 96 -48 50 8 -15 9 -21 2 -17 -16 10 -43 64 -46 92 -1 13 -21 48
-44 78 -22 30 -41 60 -41 66 0 6 -5 8 -10 5 -6 -4 -8 -11 -5 -16 4 -5 2 -9 -3
-9 -11 0 -42 61 -42 82 0 10 3 9 10 -2 22 -34 9 14 -21 76 -28 57 -58 100 -43
60 3 -8 3 -20 -1 -27 -5 -7 -20 14 -40 52 -17 35 -43 81 -58 102 -14 21 -29
47 -32 58 -5 14 -16 19 -40 19 -25 0 -32 4 -31 18 0 9 -5 16 -11 15 -7 -2 -13
7 -13 19 0 45 -20 1 -25 -53 -5 -60 21 -245 42 -299 4 -8 7 -17 8 -20 1 -3 7
-18 14 -34 6 -16 10 -35 7 -43 -3 -7 -1 -23 4 -35 5 -13 9 -17 9 -10 1 7 6 10
12 6 6 -3 9 -15 6 -25 -3 -11 -2 -17 3 -14 4 3 11 -3 14 -12 4 -9 1 -20 -6
-24 -17 -11 -48 8 -42 26 3 8 -1 22 -10 30 -9 9 -16 12 -16 6 0 -6 -5 -11 -11
-11 -6 0 -8 9 -4 20 7 21 -31 110 -47 110 -4 0 -8 12 -8 28 0 15 -6 39 -14 54
-8 15 -17 41 -21 59 -6 24 -9 28 -17 18 -6 -9 -8 4 -4 41 4 37 2 50 -4 40 -14
-21 -13 50 1 125 29 157 122 238 325 285 129 30 122 27 116 56 -3 14 0 29 6
33 5 3 13 42 16 86 7 99 19 151 34 148 20 -5 -55 174 -81 196 -10 7 -17 20
-17 28 0 8 -5 11 -12 7 -7 -5 -8 -3 -3 6 6 10 11 9 21 -4 6 -9 15 -13 18 -8 3
6 -6 18 -20 27 -15 10 -23 12 -19 4 6 -9 3 -11 -9 -6 -10 4 -30 7 -44 7 -19 0
-23 3 -14 9 11 7 11 11 -2 24 -14 14 -13 17 17 35 38 23 135 65 270 116 114
44 109 32 87 190 -14 97 -15 134 -6 143 16 16 36 -59 50 -187 3 -33 22 -90 29
-90 1 0 54 17 117 38 63 22 152 49 197 62 l83 24 6 48 c10 77 87 174 152 193
16 5 22 2 22 -10 0 -10 5 -13 12 -9 7 4 8 3 4 -5 -4 -6 -12 -8 -18 -5 -6 4 -9
1 -6 -7 3 -8 14 -13 24 -12 18 1 18 0 -1 -10 -26 -16 -85 -76 -85 -87 0 -11
61 -1 75 11 5 5 22 9 38 9 29 0 29 1 24 41 -5 35 -3 40 11 34 10 -4 46 -16 82
-27 36 -11 73 -22 82 -25 10 -3 15 -10 11 -16 -4 -6 10 -8 41 -3 25 3 66 9 89
12 36 5 45 3 51 -12 4 -9 2 -22 -4 -28 -18 -18 -11 -32 25 -45 19 -7 33 -16
31 -20 -6 -10 -19 -8 224 -20 113 -6 229 -13 259 -17 44 -6 55 -4 63 9 5 9 26
21 47 27 21 5 66 22 99 38 l60 27 -61 1 c-57 1 -60 0 -33 -11 26 -11 27 -12 7
-18 -11 -3 -19 -1 -15 4 6 11 0 11 -48 0 -25 -6 -36 -5 -32 1 4 6 -4 4 -17 -3
-34 -18 -254 -19 -298 -2 -18 8 -48 13 -65 12 -17 -1 -38 1 -46 4 -35 13 -59
14 -64 3 -3 -7 -5 -7 -5 2 -1 8 -9 10 -26 6 -15 -4 -25 -2 -25 5 0 6 -9 11
-21 11 -13 0 -18 -4 -13 -12 4 -7 3 -8 -4 -4 -7 4 -12 13 -12 21 0 19 -49 55
-74 54 -19 -1 -18 -2 4 -9 l25 -8 -28 -1 c-17 -1 -30 5 -34 15 -5 13 -7 13
-14 2 -7 -10 -9 -10 -9 0 0 6 -7 12 -15 12 -8 0 -19 9 -25 20 -6 11 -15 20
-21 20 -5 0 -30 20 -56 44 -65 62 -82 76 -91 76 -4 0 -12 10 -17 23 -6 12 -16
21 -23 19 -18 -3 -36 17 -72 82 -36 68 -44 117 -43 301 0 110 3 149 17 180 30
71 70 102 157 123 26 7 54 14 63 18 14 5 14 2 5 -26 -26 -72 11 -184 77 -238
54 -45 103 -53 333 -53 298 -1 419 21 497 88 31 26 97 127 134 205 18 38 40
70 51 73 15 5 17 10 9 26 -10 18 -51 40 -130 70 -42 16 -100 51 -100 62 0 10
18 9 42 -4 36 -19 91 -18 140 3 41 17 49 26 58 59 13 49 24 51 18 4 -2 -19 -3
-35 -1 -35 8 0 94 43 97 49 7 11 -35 71 -49 71 -8 0 -21 -10 -30 -22 l-17 -23
7 25 c4 14 11 26 16 28 4 2 5 10 2 18 -8 21 63 49 84 33 8 -7 29 -13 46 -13
38 -1 44 -27 9 -36 l-24 -5 24 -21 c39 -37 71 -48 134 -48 75 0 122 25 138 71
17 50 29 57 59 33 15 -12 27 -30 27 -41 0 -11 6 -22 13 -24 21 -7 217 -10 217
-3 0 10 -97 67 -149 87 -74 30 -82 47 -83 192 -1 156 5 187 38 195 14 4 28 3
32 0 3 -4 -4 -10 -17 -13 -22 -6 -23 -7 -6 -19 10 -8 14 -18 9 -25 -12 -20
-12 -63 0 -72 8 -6 7 -10 -2 -14 -16 -6 -15 -33 2 -33 18 0 39 122 22 132 -7
5 -7 8 3 8 9 0 11 7 8 22 -4 12 -1 29 6 37 10 12 8 13 -15 8 -15 -4 -30 -3
-33 3 -3 5 -2 10 4 10 6 0 9 6 7 13 -1 6 -1 9 1 5 9 -15 43 -8 43 8 0 10 -6
14 -15 10 -8 -3 -15 -1 -15 4 0 6 7 10 15 10 8 0 15 7 15 15 0 8 -4 15 -10 15
-6 0 -5 9 1 24 7 14 9 40 5 60 -4 20 -6 39 -6 42 1 4 -4 10 -10 14 -7 4 -9 13
-6 19 4 6 12 9 17 6 5 -4 9 -2 9 4 0 13 58 44 69 37 5 -3 33 0 64 6 41 9 54
15 49 26 -3 10 0 13 9 10 13 -4 21 -37 47 -195 6 -33 25 -92 44 -130 26 -53
44 -75 81 -100 64 -43 156 -69 299 -84 104 -11 123 -11 179 5 83 23 109 43
144 113 28 53 30 66 29 156 -1 53 2 97 5 97 3 0 33 -15 66 -33 91 -49 105 -77
105 -206 -1 -58 -8 -137 -16 -176 -8 -38 -15 -78 -15 -88 0 -9 -4 -15 -10 -12
-9 6 -13 -8 -10 -34 2 -7 -2 -10 -8 -6 -7 4 -11 -3 -11 -17 0 -19 -2 -20 -11
-8 -9 13 -10 12 -5 -2 3 -10 -1 -33 -9 -51 -8 -19 -11 -38 -7 -42 4 -4 -9 -21
-28 -37 -19 -17 -27 -28 -16 -24 33 11 90 -12 119 -49 54 -68 136 -91 210 -60
20 8 39 15 42 15 3 0 3 -41 0 -92 -6 -98 -2 -108 43 -108 37 0 133 -38 160
-62 31 -29 88 -146 97 -199 5 -31 13 -43 33 -51 16 -6 117 -11 242 -12 276 -1
342 12 452 92 39 27 56 51 94 127 44 89 47 100 52 195 5 97 5 100 28 100 33 0
155 -41 149 -50 -3 -4 11 -11 31 -15 89 -16 110 -45 107 -149 -1 -39 -3 -91
-6 -116 -11 -122 -19 -194 -32 -295 -8 -60 -17 -141 -20 -180 -12 -167 -65
-249 -176 -269 -63 -11 -211 -63 -322 -112 -90 -40 -107 -52 -105 -68 2 -15
14 -23 43 -29 47 -9 171 -5 200 8 11 4 7 -2 -10 -15 -16 -13 -34 -27 -40 -32
-16 -14 78 0 110 16 17 9 43 27 59 41 16 14 34 25 40 25 15 0 86 59 86 70 0 5
-30 -2 -68 -16 -37 -14 -62 -21 -57 -16 20 18 119 52 184 64 36 6 74 18 83 26
9 8 22 38 28 67 24 117 110 134 358 74 97 -24 182 -57 182 -71 0 -5 5 -6 10
-3 5 3 10 0 10 -9 0 -8 5 -17 10 -19 6 -3 7 -5 3 -4 -5 1 -46 21 -93 44 -87
43 -217 73 -317 73 -41 0 -43 -1 -37 -25 7 -29 -11 -112 -37 -170 -29 -64 -20
-179 13 -159 7 5 8 2 3 -5 -10 -16 29 -57 80 -84 29 -15 58 -21 105 -21 85 -1
153 31 242 112 40 36 83 66 107 73 35 10 43 9 74 -9 32 -20 34 -25 36 -81 2
-62 -19 -122 -53 -150 -21 -18 -20 -5 3 27 23 34 44 99 38 116 -5 14 -57 29
-57 17 0 -4 -15 -12 -32 -19 -18 -7 -45 -23 -60 -36 l-27 -24 21 -44 c28 -57
44 -310 27 -441 -6 -48 -12 -136 -14 -195 -2 -59 -4 -117 -4 -130 -1 -15 -5
-21 -13 -16 -7 4 -8 3 -4 -5 9 -13 -3 -76 -12 -66 -7 7 -59 -126 -68 -175 -4
-19 -11 -40 -16 -47 -5 -7 -7 -22 -3 -35 5 -18 4 -20 -4 -8 -9 13 -11 11 -11
-6 0 -12 -7 -41 -15 -64 -8 -24 -13 -45 -11 -47 2 -2 12 20 22 49 19 52 19 53
22 19 2 -18 -6 -63 -17 -100 -17 -57 -27 -114 -57 -341 -3 -19 -5 -40 -6 -47
-2 -17 -18 -5 -18 13 0 19 -19 18 -26 -1 -4 -8 -12 -15 -20 -15 -8 0 -14 -4
-14 -9 0 -5 -7 -12 -16 -15 -8 -3 -12 -2 -9 4 3 6 1 11 -4 11 -6 1 -17 2 -23
3 -7 1 -19 -4 -26 -11 -7 -7 -19 -10 -26 -7 -12 5 -11 -8 4 -63 18 -68 92
-339 109 -400 8 -29 6 -35 -16 -51 l-26 -19 26 -38 c14 -21 24 -42 21 -47 -6
-10 5 -9 31 2 l20 9 -20 1 c-18 1 -17 2 4 11 14 5 31 7 39 4 8 -3 21 0 28 6
23 19 42 -7 48 -64 6 -54 19 -419 17 -472 -4 -99 -81 -415 -101 -415 -4 0 -10
-17 -14 -38 -19 -110 -25 -175 -19 -185 4 -6 6 -28 4 -49 -1 -21 2 -38 7 -38
8 0 35 -45 36 -63 1 -4 6 -11 11 -15 6 -4 11 -18 12 -32 1 -14 6 -81 11 -150
5 -69 6 -129 2 -133 -7 -8 -11 22 -26 198 -5 56 -11 75 -32 98 -14 15 -29 27
-34 27 -15 0 -41 -52 -42 -86 -1 -19 -7 -38 -13 -42 -7 -5 -17 -32 -23 -62
-14 -76 -34 -470 -35 -690 0 -174 1 -188 24 -238 26 -57 71 -102 102 -102 30
0 107 57 125 92 14 26 15 51 8 162 -4 83 -10 122 -15 106 -6 -21 -7 -22 -9 -5
l-1 20 -8 -20 c-7 -16 -11 -8 -19 35 -6 30 -13 82 -16 115 l-5 60 10 -50 c27
-129 29 -133 24 -50 -3 52 -1 73 5 60 5 -11 9 -40 9 -65 1 -32 4 -41 11 -30 5
8 11 12 13 10 2 -3 31 -43 66 -90 96 -131 133 -180 167 -219 99 -115 284 -364
284 -381 0 -5 5 -10 10 -10 6 0 10 -4 10 -10 0 -5 20 -37 44 -72 24 -35 56
-90 71 -123 19 -40 52 -82 101 -130 81 -78 116 -123 205 -257 33 -51 70 -103
82 -115 24 -27 24 -27 -89 -13 -44 6 -123 14 -175 20 -52 5 -132 14 -179 20
-209 26 -458 48 -485 44 -24 -5 -27 -3 -15 6 13 10 12 11 -3 6 -9 -3 -52 1
-95 9 -42 8 -108 16 -147 19 -73 5 -179 17 -380 41 -66 8 -185 21 -265 30
-139 15 -510 58 -615 71 -27 3 -75 1 -105 -4 -63 -12 -78 -8 -29 7 l34 11 -43
-4 c-23 -2 -40 -1 -38 3 3 4 -3 7 -12 7 -9 1 -78 9 -152 18 -74 9 -178 21
-230 27 -52 5 -105 11 -117 13 -45 9 -31 -13 33 -50 120 -70 160 -130 151
-223 -7 -74 -46 -179 -59 -160 -7 11 -8 9 -4 -5 10 -31 -70 -159 -84 -135 -5
6 -9 3 -13 -10 -3 -14 -1 -19 6 -14 7 4 0 -7 -14 -24 -14 -17 -31 -46 -38 -64
-7 -19 -17 -43 -21 -54 -35 -85 -45 -136 -45 -242 0 -81 -3 -113 -12 -113 -6
0 -14 4 -18 9 -3 6 -18 6 -37 1 -23 -7 -38 -5 -59 7 -27 16 -29 16 -43 -2 -25
-33 -39 -113 -34 -195 6 -97 28 -141 78 -151 40 -9 64 -35 126 -139 84 -141
96 -237 29 -233 -150 9 -171 4 -205 -52 -37 -60 -45 -143 -21 -227 l14 -48
2108 0 2109 0 0 5400 0 5400 -5400 0 -5400 0 0 -3644z m5920 2929 c0 -6 -56
-30 -91 -39 -13 -4 -4 5 21 18 43 24 70 32 70 21z m126 -55 c-1 -27 -2 -28
-13 -13 -17 22 -16 43 1 43 8 0 13 -11 12 -30z m-126 0 c0 -17 -43 -50 -79
-60 -48 -13 -61 -13 -61 4 0 15 97 59 111 50 5 -3 9 0 9 5 0 6 5 11 10 11 6 0
10 -4 10 -10z m322 -130 c16 -17 16 -21 2 -35 -9 -8 -21 -15 -27 -15 -20 0
-40 17 -33 28 3 6 0 13 -6 15 -8 3 -6 6 5 6 10 1 15 6 12 11 -12 19 30 10 47
-10z m-282 -120 c0 -5 -7 -10 -15 -10 -8 0 -15 5 -15 10 0 6 7 10 15 10 8 0
15 -4 15 -10z m127 -86 c-3 -3 -12 -4 -19 -1 -8 3 -5 6 6 6 11 1 17 -2 13 -5z
m373 -4 c0 -5 -9 -10 -20 -10 -11 0 -20 5 -20 10 0 6 9 10 20 10 11 0 20 -4
20 -10z m-160 -54 c0 -3 -4 -8 -10 -11 -5 -3 -10 -1 -10 4 0 6 5 11 10 11 6 0
10 -2 10 -4z m106 -18 c-1 -13 -7 -23 -16 -23 -8 0 -16 10 -18 23 -3 16 2 22
16 22 14 0 19 -7 18 -22z m114 2 c0 -5 -7 -7 -15 -4 -8 4 -15 8 -15 10 0 2 7
4 15 4 8 0 15 -4 15 -10z m-1211 -346 c2 -2 2 -6 -1 -9 -8 -9 -68 7 -62 16 5
8 52 2 63 -7z m2670 -120 c69 -37 134 -73 144 -82 33 -29 8 -24 -45 9 -29 18
-98 56 -153 86 -55 29 -94 53 -86 53 8 0 71 -30 140 -66z m-644 -4 c3 -5 1
-10 -4 -10 -6 0 -11 5 -11 10 0 6 2 10 4 10 3 0 8 -4 11 -10z m-95 -28 c0 -18
-41 -45 -79 -52 -50 -9 -57 -3 -27 21 41 32 106 51 106 31z m454 -43 c-4 -8 1
-9 17 -4 50 16 53 16 29 1 -19 -12 -21 -15 -8 -16 30 0 88 -33 88 -49 0 -9
-12 -24 -26 -34 -30 -22 -83 -16 -134 15 -33 19 -33 21 -15 34 18 13 17 14
-11 15 -24 0 -25 2 -10 8 16 6 17 9 6 16 -11 7 -10 10 6 16 30 12 66 11 58 -2z
m-3348 -30 c7 -12 -12 -29 -33 -29 -7 0 -13 9 -13 20 0 22 34 28 46 9z m-227
-3 c-2 -3 -27 -14 -54 -26 -52 -22 -52 -13 0 14 27 14 65 22 54 12z m441 0 c0
-2 -12 -11 -27 -20 l-28 -17 24 20 c23 21 31 25 31 17z m-353 -80 c26 -4 86
-5 133 -2 69 3 78 2 50 -6 -52 -15 -213 -5 -245 16 -14 9 -25 22 -25 28 0 7 9
2 19 -9 12 -13 39 -24 68 -27z m283 29 c-7 -8 -27 -15 -44 -14 -31 1 -31 1 9
14 22 7 42 13 44 14 2 1 -2 -6 -9 -14z m-495 -15 c-10 -11 -24 -20 -30 -20 -7
0 -18 -7 -26 -16 -15 -18 -69 -48 -75 -41 -4 4 134 96 145 97 2 0 -4 -9 -14
-20z m3410 -141 c0 -8 -12 -15 -27 -17 -31 -4 -37 12 -10 27 21 13 37 9 37
-10z m-2689 -40 c21 -17 17 -28 -11 -35 -14 -3 -23 -9 -21 -13 7 -11 -49 -5
-73 8 -28 16 -27 33 6 53 28 16 70 11 99 -13z m3378 -34 c-6 -16 -24 -21 -24
-7 0 11 11 22 21 22 5 0 6 -7 3 -15z m-3806 -77 c-5 -15 -48 -24 -48 -10 0 14
12 22 33 22 10 0 17 -5 15 -12z m3072 2 c0 -13 -30 -13 -50 0 -11 7 -7 10 18
10 17 0 32 -4 32 -10z m220 -10 c-19 -13 -30 -13 -30 0 0 6 10 10 23 10 18 0
19 -2 7 -10z m223 -17 c-7 -2 -21 -2 -30 0 -10 3 -4 5 12 5 17 0 24 -2 18 -5z
m-248 -13 c3 -5 1 -10 -4 -10 -6 0 -11 5 -11 10 0 6 2 10 4 10 3 0 8 -4 11
-10z m381 -15 c-3 -20 -20 -20 -24 -1 -2 9 3 16 11 16 9 0 14 -7 13 -15z
m-4568 -611 c34 -10 26 -24 -13 -24 -33 0 -43 8 -28 23 8 8 12 8 41 1z m236
-20 c3 -8 2 -12 -4 -9 -6 3 -10 10 -10 16 0 14 7 11 14 -7z m5178 -130 c21 -6
21 -7 3 -20 -13 -10 -15 -17 -7 -27 18 -21 -20 -38 -71 -31 -37 5 -43 9 -42
30 0 14 6 29 14 33 7 5 11 14 7 20 -7 11 55 8 96 -5z m389 -81 c13 -16 12 -17
-3 -4 -10 7 -18 15 -18 17 0 8 8 3 21 -13z m-5916 -53 c-3 -5 -12 -7 -20 -3
-21 7 -19 13 6 13 11 0 18 -4 14 -10z m-988 -1472 c-3 -8 -6 -5 -6 6 -1 11 2
17 5 13 3 -3 4 -12 1 -19z m22 -65 c0 -25 -1 -26 -9 -8 -12 27 -12 35 0 35 6
0 10 -12 9 -27z m22 -86 c-8 -8 -11 -8 -11 0 0 6 -3 20 -7 30 -7 17 -6 17 11
0 14 -14 16 -21 7 -30z m42 -75 c-3 -12 -9 -19 -14 -16 -5 3 -3 14 3 24 15 24
19 21 11 -8z m112 -92 c-3 -5 -12 -10 -18 -10 -7 0 -6 4 3 10 19 12 23 12 15
0z m6261 -59 c0 -11 -5 -17 -13 -14 -10 4 -11 9 -2 19 15 18 15 18 15 -5z
m-39 -43 c-3 -8 -6 -5 -6 6 -1 11 2 17 5 13 3 -3 4 -12 1 -19z m-5738 -165
c17 -32 15 -48 -4 -33 -9 7 -14 19 -11 26 3 8 0 11 -10 7 -10 -4 -12 0 -7 13
4 10 2 15 -3 11 -5 -3 -10 3 -10 13 0 18 1 18 17 1 9 -9 21 -27 28 -38z m-229
-139 c0 -3 -13 4 -30 16 -16 12 -30 24 -30 26 0 3 14 -4 30 -16 17 -12 30 -24
30 -26z m603 -1481 c-13 -5 -4 -60 12 -73 11 -9 12 -5 4 24 -8 29 -7 40 5 52
14 13 16 13 16 1 0 -9 3 -24 6 -34 5 -15 4 -15 -5 -3 -6 8 -11 10 -11 4 0 -6
6 -17 14 -24 8 -6 12 -19 9 -27 -5 -12 -2 -15 9 -10 11 4 14 1 11 -12 -3 -11
2 -21 12 -25 9 -3 14 -10 11 -15 -3 -5 1 -11 9 -15 8 -3 15 -11 15 -18 0 -9
-3 -9 -8 -2 -4 6 -15 13 -25 17 -10 4 -25 20 -35 37 -12 20 -22 28 -34 24 -14
-4 -19 3 -24 35 -4 22 -13 46 -20 52 -21 17 -17 31 6 24 13 -4 20 -2 21 7 0 9
2 9 6 -1 3 -8 2 -16 -4 -18z m32 -113 c3 -5 1 -10 -4 -10 -6 0 -11 5 -11 10 0
6 2 10 4 10 3 0 8 -4 11 -10z m5434 -164 c-9 -8 -10 -7 -5 7 3 10 7 24 7 30 1
7 3 4 6 -7 3 -10 -1 -23 -8 -30z m118 -198 c-2 -13 -4 -5 -4 17 -1 22 1 32 4
23 2 -10 2 -28 0 -40z m-120 10 c-3 -7 -5 -2 -5 12 0 14 2 19 5 13 2 -7 2 -19
0 -25z m-1249 -1565 c-10 -2 -28 -2 -40 0 -13 2 -5 4 17 4 22 1 32 -1 23 -4z
m-75 -10 c-7 -2 -21 -2 -30 0 -10 3 -4 5 12 5 17 0 24 -2 18 -5z m770 -70 c-7
-2 -19 -2 -25 0 -7 3 -2 5 12 5 14 0 19 -2 13 -5z m100 -10 c-7 -2 -21 -2 -30
0 -10 3 -4 5 12 5 17 0 24 -2 18 -5z m80 -10 c-7 -2 -19 -2 -25 0 -7 3 -2 5
12 5 14 0 19 -2 13 -5z m784 -89 c-3 -3 -12 -4 -19 -1 -8 3 -5 6 6 6 11 1 17
-2 13 -5z m100 -10 c-3 -3 -12 -4 -19 -1 -8 3 -5 6 6 6 11 1 17 -2 13 -5z
m330 -40 c-3 -3 -12 -4 -19 -1 -8 3 -5 6 6 6 11 1 17 -2 13 -5z m-3019 -825
c-3 -8 -7 -3 -11 10 -4 17 -3 21 5 13 5 -5 8 -16 6 -23z m237 -357 c-7 -7 -43
74 -50 110 -4 20 -4 42 1 49 4 8 16 -21 30 -72 12 -46 21 -86 19 -87z m40
-212 c3 -5 4 -14 0 -20 -8 -13 -35 -1 -35 16 0 16 26 19 35 4z m-247 -142 c-3
-7 -11 -13 -18 -13 -7 0 -15 6 -17 13 -3 7 4 12 17 12 13 0 20 -5 18 -12z
m2322 -34 c0 -2 -7 -4 -15 -4 -8 0 -15 4 -15 10 0 5 7 7 15 4 8 -4 15 -8 15
-10z"/>
<path d="M5460 9580 c0 -5 5 -10 11 -10 5 0 7 5 4 10 -3 6 -8 10 -11 10 -2 0
-4 -4 -4 -10z"/>
<path d="M5869 9467 c-9 -7 -20 -23 -24 -37 l-8 -25 21 25 c12 14 21 20 22 13
0 -6 -4 -15 -10 -18 -17 -10 -11 -36 15 -67 14 -16 25 -25 25 -19 0 6 9 11 20
11 11 0 25 9 32 19 9 14 16 17 24 10 17 -14 29 28 14 46 -7 8 -9 15 -5 15 5 0
-2 9 -15 20 -26 23 -86 26 -111 7z"/>
<path d="M5501 9424 c0 -11 3 -14 6 -6 3 7 2 16 -1 19 -3 4 -6 -2 -5 -13z"/>
<path d="M6383 9422 c-27 -4 -63 -47 -63 -73 0 -30 37 -61 63 -53 27 8 37 22
37 51 0 16 5 20 21 16 13 -4 16 -8 10 -13 -7 -3 -9 -15 -5 -26 5 -16 4 -16 -5
-4 -9 12 -11 9 -11 -14 0 -28 0 -29 20 -11 36 33 18 116 -27 127 -10 2 -28 2
-40 0z"/>
<path d="M5836 9358 c3 -5 10 -6 15 -3 13 9 11 12 -6 12 -8 0 -12 -4 -9 -9z"/>
<path d="M5410 9160 c0 -5 5 -10 10 -10 6 0 10 5 10 10 0 6 -4 10 -10 10 -5 0
-10 -4 -10 -10z"/>
<path d="M5961 9155 c-18 -8 -41 -15 -50 -15 -30 0 -190 -53 -185 -61 11 -18
86 -9 128 15 42 23 43 23 38 4 -5 -19 -1 -20 74 -15 l79 6 -82 -12 c-45 -7
-88 -18 -95 -24 -13 -14 -82 -18 -74 -4 8 12 -143 6 -177 -8 -68 -27 -244
-142 -314 -205 -29 -26 -66 -49 -91 -56 -38 -10 -42 -14 -36 -33 10 -32 11
-32 38 -1 33 37 33 18 1 -37 -25 -45 -33 -89 -15 -89 5 0 7 -6 4 -14 -11 -28
26 -77 73 -98 50 -22 35 -22 453 1 302 16 436 28 505 46 90 24 205 84 224 117
9 15 19 28 23 28 15 0 201 170 210 192 8 20 44 41 61 35 7 -3 0 -10 -15 -16
-37 -14 -36 -22 2 -15 17 4 46 0 70 -10 22 -9 40 -12 40 -7 0 19 -113 100
-184 132 -72 32 -93 49 -62 49 8 0 22 -7 30 -16 20 -19 20 -6 1 20 -15 20 -63
25 -74 8 -5 -8 -34 -2 -91 20 -187 68 -427 98 -509 63z m164 -55 c-16 -4 -39
-8 -50 -8 -16 0 -15 2 5 8 14 4 36 8 50 8 22 0 22 -1 -5 -8z m390 -229 c27
-10 51 -23 52 -28 6 -16 -80 -67 -107 -65 -32 3 -91 22 -108 35 -10 8 -6 17
20 44 38 39 69 42 143 14z m65 -76 c0 -2 -10 -10 -22 -16 -21 -11 -22 -11 -9
4 13 16 31 23 31 12z m-1060 -94 c0 -9 -66 -71 -75 -71 -10 0 -4 11 26 45 30
34 49 44 49 26z m64 -34 c13 -22 -9 -38 -64 -48 -60 -11 -68 1 -24 38 42 36
70 39 88 10z m352 -19 l33 -12 -26 -13 c-36 -19 -97 -18 -89 2 3 9 0 15 -9 15
-8 0 -15 5 -15 10 0 14 66 13 106 -2z m-549 -74 c-3 -3 -12 -4 -19 -1 -8 3 -5
6 6 6 11 1 17 -2 13 -5z"/>
<path d="M5032 9082 c9 -4 30 -19 46 -34 41 -36 66 -48 101 -48 16 0 40 -4 54
-9 35 -13 35 -68 0 -105 -15 -16 -22 -27 -17 -25 6 2 40 17 77 33 l67 29 0 43
c0 52 -8 76 -24 67 -6 -3 -2 3 8 15 23 26 21 26 -34 7 -62 -22 -128 -19 -204
10 -37 14 -72 25 -79 24 -6 0 -5 -3 5 -7z"/>
<path d="M8278 8973 c7 -3 16 -2 19 1 4 3 -2 6 -13 5 -11 0 -14 -3 -6 -6z"/>
<path d="M7084 8648 l-26 -21 26 -14 c28 -15 36 -26 11 -17 -8 4 -15 1 -15 -6
0 -10 -3 -10 -15 0 -12 10 -16 10 -19 -1 -18 -57 -22 -78 -21 -104 1 -16 -3
-33 -9 -37 -6 -4 -10 -37 -9 -78 1 -38 -3 -70 -8 -70 -5 0 -9 -19 -8 -42 0
-41 1 -42 12 -18 7 14 20 33 30 43 10 10 16 25 13 32 -3 9 0 12 10 8 8 -3 14
-2 13 3 -4 24 2 55 10 50 15 -10 19 43 5 61 -13 17 -13 17 -15 -2 -1 -11 -2
-25 -2 -32 0 -6 -6 -9 -13 -6 -10 4 -14 -3 -14 -21 0 -16 -6 -26 -15 -26 -8 0
-15 5 -15 10 0 6 5 10 10 10 6 0 10 13 10 30 0 21 4 28 14 24 14 -6 15 9 2 81
-6 30 -5 30 6 -2 6 -18 15 -33 20 -33 5 0 7 4 4 8 -2 4 -1 14 4 22 8 13 12 12
24 -5 9 -12 15 -15 16 -7 0 7 4 11 8 8 5 -3 4 -28 -2 -55 -5 -27 -13 -48 -18
-45 -4 3 -8 -6 -8 -20 0 -14 -4 -26 -10 -26 -5 0 -10 -11 -10 -25 0 -16 -6
-25 -15 -25 -9 0 -15 -9 -15 -25 0 -15 -6 -25 -15 -25 -8 0 -17 -11 -21 -25
-3 -14 -10 -22 -15 -19 -5 3 -9 -13 -9 -35 0 -23 5 -41 10 -41 6 0 10 6 10 13
0 7 9 20 20 30 11 9 20 26 20 37 0 11 4 20 9 20 13 0 74 127 66 139 -3 6 -1
11 6 11 6 0 10 10 7 23 -2 13 2 29 10 37 13 12 14 7 8 -36 -4 -27 -12 -53 -17
-58 -5 -6 -9 -18 -9 -28 0 -10 -4 -18 -10 -18 -5 0 -10 -9 -10 -20 0 -19 -5
-29 -37 -64 -7 -8 -15 -25 -19 -40 -3 -14 -10 -23 -15 -20 -5 3 -14 -6 -21
-20 -6 -14 -16 -26 -21 -26 -6 0 -6 -13 -2 -32 4 -18 8 -46 9 -63 1 -20 7 -31
19 -33 10 -2 17 3 17 12 0 8 6 21 13 28 14 15 46 63 63 94 17 33 54 142 54
162 0 9 5 24 10 32 7 11 9 5 8 -23 -1 -21 -5 -40 -9 -42 -4 -3 -10 -23 -14
-45 -4 -22 -11 -40 -16 -40 -5 0 -9 -7 -9 -15 0 -17 -15 -46 -42 -84 -10 -13
-18 -33 -18 -45 0 -17 -2 -18 -10 -6 -7 12 -12 8 -21 -17 -6 -18 -17 -33 -25
-33 -16 0 -20 -55 -4 -65 9 -6 14 11 13 43 -1 9 3 10 11 2 7 -5 16 -7 19 -3 4
3 7 -1 7 -10 0 -10 -5 -14 -15 -11 -15 6 -16 3 -20 -48 -2 -35 12 -36 27 -3 6
14 15 25 20 25 4 0 8 6 8 14 0 8 6 21 13 28 26 28 94 204 83 215 -6 6 -26 -40
-26 -58 0 -5 -11 -27 -25 -49 -14 -22 -25 -46 -25 -55 0 -8 -7 -15 -15 -15
-12 0 -11 6 5 32 10 17 16 36 13 41 -3 6 -1 7 4 4 11 -7 63 136 63 172 0 11 5
23 11 26 7 5 9 -8 5 -41 -5 -45 -5 -46 4 -12 5 20 6 65 2 100 -6 45 -4 70 5
88 7 14 11 31 8 39 -3 7 0 30 6 50 9 29 8 48 -5 91 -29 96 -79 129 -132 88z
m81 -8 c3 -5 1 -10 -4 -10 -6 0 -11 5 -11 10 0 6 2 10 4 10 3 0 8 -4 11 -10z
m-95 -90 c0 -5 -8 -10 -17 -10 -15 0 -16 2 -3 10 19 12 20 12 20 0z m125 -130
c3 -5 1 -10 -4 -10 -6 0 -11 5 -11 10 0 6 2 10 4 10 3 0 8 -4 11 -10z m-30
-106 c-9 -33 -19 -69 -22 -81 -3 -13 -9 -23 -13 -23 -4 0 -11 -11 -14 -25 -4
-14 -11 -25 -16 -25 -6 0 -10 -6 -10 -13 0 -8 -9 -24 -20 -37 -11 -13 -20 -29
-20 -37 0 -7 -6 -13 -14 -13 -8 0 -17 -6 -19 -12 -3 -8 -6 -6 -6 5 -1 9 3 17
9 17 13 0 41 56 32 64 -3 4 1 4 11 0 16 -6 21 4 20 43 0 6 6 9 13 6 8 -3 14 1
14 9 0 8 8 32 19 54 10 21 22 63 26 92 5 35 11 50 17 44 6 -6 3 -31 -7 -68z"/>
<path d="M7090 8468 c0 -30 15 -46 23 -24 3 8 -1 22 -8 33 -13 17 -14 16 -15
-9z"/>
<path d="M3912 8423 c-41 -20 -62 -59 -62 -113 0 -42 19 -49 21 -7 0 14 3 17
6 8 4 -10 10 -5 19 15 l12 29 1 -41 c1 -26 8 -47 19 -57 23 -21 76 -22 95 -2
8 8 18 11 22 7 4 -4 4 4 0 17 -5 16 -4 21 4 17 7 -5 10 1 7 16 -3 13 -5 31 -5
42 -1 24 -64 86 -87 86 -11 0 -34 -8 -52 -17z"/>
<path d="M4515 8430 c-17 -9 -15 -10 10 -6 17 2 39 0 50 -5 18 -9 18 -9 -3 -5
-19 4 -21 2 -11 -10 7 -8 21 -12 33 -9 19 6 20 5 3 -6 -11 -6 -25 -12 -32 -13
-69 -10 -53 -136 18 -136 56 0 84 56 56 113 -9 19 -8 20 3 6 7 -9 19 -14 26
-12 6 3 13 0 13 -6 3 -26 4 -30 12 -37 4 -4 7 4 7 17 0 25 -22 63 -53 94 -22
21 -102 30 -132 15z m110 -50 c-3 -5 -12 -10 -18 -10 -7 0 -6 4 3 10 19 12 23
12 15 0z"/>
<path d="M7790 8388 c-21 -26 -29 -43 -22 -46 7 -2 12 -8 12 -13 0 -6 -4 -7
-10 -4 -16 10 21 -68 39 -82 24 -18 55 -16 85 8 31 24 35 72 9 109 -16 22 -16
23 1 17 10 -4 20 -7 22 -7 2 0 4 -7 4 -15 0 -8 6 -12 15 -9 9 4 16 -3 21 -21
5 -19 9 -23 15 -14 10 17 -15 76 -43 99 -15 13 -39 19 -69 20 -42 0 -49 -4
-79 -42z m14 -23 c-4 -8 -11 -15 -16 -15 -6 0 -5 6 2 15 7 8 14 15 16 15 2 0
1 -7 -2 -15z"/>
<path d="M6070 8406 c-14 -9 -19 -15 -12 -16 23 0 27 -2 41 -13 7 -6 27 -10
43 -8 20 2 28 -1 24 -8 -4 -6 -16 -11 -27 -11 -10 0 -19 -3 -20 -7 0 -5 -2
-24 -4 -43 -4 -31 -3 -33 9 -17 23 29 29 19 7 -12 -54 -75 -24 -160 56 -161
39 0 80 34 92 77 7 24 5 41 -11 72 -11 23 -24 38 -29 35 -5 -3 -9 2 -9 10 0
21 23 16 32 -7 5 -12 15 -16 33 -13 19 4 28 -1 40 -22 l15 -27 -6 30 c-10 46
-35 85 -77 119 -33 26 -48 31 -105 33 -46 2 -75 -1 -92 -11z m200 -55 c0 9 3
10 11 2 6 -6 8 -16 5 -22 -9 -13 -33 -4 -40 16 -5 13 -4 14 9 3 12 -10 15 -10
15 1z m-50 -44 c0 -5 -9 -7 -20 -4 -11 3 -20 0 -20 -6 0 -6 -3 -8 -6 -4 -3 3
-3 10 0 16 8 12 46 10 46 -2z m10 -97 c0 -5 -5 -10 -11 -10 -5 0 -7 5 -4 10 3
6 8 10 11 10 2 0 4 -4 4 -10z"/>
<path d="M4515 8400 c27 -12 43 -12 25 0 -8 5 -22 9 -30 9 -10 0 -8 -3 5 -9z"/>
<path d="M5290 8363 c-25 -9 -52 -36 -82 -82 -22 -36 -28 -56 -27 -100 l0 -56
15 39 c8 22 23 46 34 53 14 10 19 21 15 34 -4 11 -2 19 5 19 7 0 14 -9 17 -21
3 -12 11 -18 19 -15 18 7 18 1 0 -27 -43 -67 -1 -150 67 -133 51 12 92 165 59
221 -6 11 -12 15 -12 8 0 -7 -7 -10 -15 -7 -13 5 -13 8 1 21 33 33 -39 67 -96
46z m55 -31 c-3 -3 0 -11 6 -19 7 -8 8 -13 1 -13 -5 0 -15 6 -21 14 -9 11 -9
15 1 19 7 3 2 6 -12 6 -19 1 -22 3 -10 11 14 9 46 -7 35 -18z m-35 -20 c3 -2
-4 -2 -14 0 -10 1 -21 -3 -24 -11 -2 -8 0 -11 6 -7 5 3 32 3 58 -1 44 -6 46
-8 19 -13 -16 -3 -30 -10 -30 -17 0 -6 -3 -15 -7 -19 -5 -4 -8 -2 -8 4 0 7 -6
12 -13 12 -7 0 -21 10 -31 22 -17 19 -17 22 -2 33 8 7 12 16 8 21 -6 7 11 -4
38 -24z m80 24 c0 -2 -7 -7 -16 -10 -8 -3 -12 -2 -9 4 6 10 25 14 25 6z"/>
<path d="M5280 8280 c0 -5 7 -10 16 -10 8 0 12 5 9 10 -3 6 -10 10 -16 10 -5
0 -9 -4 -9 -10z"/>
<path d="M8370 8320 c0 -32 -19 -82 -20 -52 0 6 -6 12 -12 12 -8 0 -13 -16
-14 -43 -1 -23 1 -36 4 -28 3 10 10 3 22 -19 l17 -33 11 76 c8 48 8 84 2 99
-8 21 -9 20 -10 -12z"/>
<path d="M8336 8083 c-8 -46 -57 -98 -82 -89 -7 3 -16 0 -20 -5 -4 -6 -21 -8
-43 -5 -28 5 -33 4 -21 -4 12 -9 10 -10 -12 -6 -14 3 -34 8 -45 12 -10 3 -8
-1 7 -10 l25 -16 -30 6 c-23 4 -26 3 -15 -5 19 -14 9 -14 -25 -1 -23 9 -26 8
-22 -5 5 -10 0 -14 -16 -14 -31 1 -99 -26 -90 -36 5 -4 -5 -5 -20 -1 -21 5
-27 4 -21 -5 5 -9 -1 -10 -22 -5 -19 4 -24 3 -15 -3 10 -7 2 -14 -35 -31 -27
-13 -59 -22 -70 -21 -12 1 -24 -5 -27 -13 -4 -9 -14 -16 -24 -16 -15 0 -16 2
-3 11 12 8 11 9 -5 5 -85 -22 -194 -37 -125 -17 18 6 2 10 -60 16 -47 4 -103
9 -124 9 -29 1 -41 6 -48 21 -8 18 -8 18 -4 -3 4 -19 1 -23 -17 -20 -14 2 -21
10 -21 21 1 9 -2 17 -6 17 -4 0 -13 -28 -20 -63 l-13 -63 -81 -13 c-45 -7 -91
-19 -103 -27 -35 -22 -62 -17 -75 14 -6 15 -10 33 -9 41 1 7 -2 10 -8 6 -6 -3
-11 0 -11 7 0 8 -11 37 -25 64 -26 53 -30 54 -92 40 -33 -8 -67 -36 -43 -36 9
0 11 -17 7 -62 -3 -35 -6 -64 -6 -66 -1 -2 -6 0 -12 3 -13 9 -8 -27 6 -37 6
-5 5 -8 -2 -8 -7 0 -13 -7 -13 -15 0 -9 -11 -21 -25 -27 -14 -6 -25 -17 -25
-24 0 -7 -5 -16 -12 -20 -7 -5 -9 -2 -4 7 4 8 1 6 -7 -3 -8 -10 -21 -18 -29
-18 -17 0 -64 -38 -61 -50 1 -4 -10 -10 -25 -13 -15 -3 -38 -15 -50 -26 -13
-11 -30 -17 -37 -15 -7 3 -16 0 -20 -5 -3 -6 -11 -9 -16 -6 -5 4 -9 1 -9 -4 0
-6 -7 -11 -15 -11 -7 0 -18 -7 -23 -16 -5 -9 -18 -17 -28 -18 -41 -4 -134 -30
-134 -38 0 -4 -9 -8 -20 -8 -11 0 -20 5 -20 11 0 12 -149 3 -189 -12 -17 -7
-27 -7 -29 0 -2 6 -8 11 -13 11 -6 0 -8 -3 -6 -7 3 -5 -27 -9 -65 -10 -39 -1
-75 -6 -81 -12 -13 -13 -123 -14 -184 -2 -47 9 -68 -3 -57 -34 6 -14 4 -15
-12 -7 -38 21 -153 72 -161 72 -4 0 -21 7 -37 15 -16 8 -34 14 -40 13 -15 -3
-86 32 -86 43 0 12 -55 39 -77 39 -17 -1 -16 -2 2 -16 11 -9 31 -20 45 -25 14
-5 35 -25 47 -44 32 -48 95 -79 160 -78 34 1 56 -4 64 -13 19 -23 2 -29 -84
-29 -93 0 -120 13 -190 89 -30 32 -37 36 -32 18 4 -13 1 -29 -5 -37 -8 -10 -9
-19 -3 -27 12 -15 5 -88 -8 -88 -12 0 -6 -37 8 -51 7 -7 22 -7 49 0 108 31
352 62 549 71 219 10 349 4 480 -25 103 -22 204 -18 188 8 -3 6 -1 7 5 3 7 -4
20 -2 29 3 16 9 15 10 -6 11 -20 0 -21 2 -11 15 7 8 19 15 26 15 49 0 219 98
201 117 -3 3 -15 -4 -27 -15 -12 -11 -30 -18 -39 -15 -14 4 -14 3 -1 -6 12 -8
8 -11 -18 -11 -20 0 -61 -15 -99 -36 -46 -25 -73 -34 -89 -30 -13 4 -24 10
-24 15 0 14 36 19 55 8 13 -7 16 -6 10 2 -4 8 -2 11 6 10 14 -2 100 32 129 51
8 5 36 19 63 31 34 16 47 27 47 43 1 11 7 32 15 46 17 29 19 44 5 35 -6 -3 -7
1 -3 10 4 11 8 13 13 5 5 -8 10 -7 19 3 13 17 4 50 -12 40 -6 -3 -7 -1 -3 5
24 39 41 -19 19 -62 -14 -26 -15 -55 -9 -191 18 -440 27 -486 117 -576 56 -56
110 -79 189 -79 140 0 249 96 315 275 14 39 28 77 32 85 3 8 7 29 10 45 22
177 142 386 269 470 59 39 139 69 162 60 7 -2 10 0 7 5 -3 6 -14 10 -25 10
-20 0 -172 69 -181 82 -3 5 -19 13 -35 18 -28 8 -27 8 12 9 32 1 43 5 47 20 3
12 18 22 38 26 31 7 100 34 354 141 44 19 97 37 118 40 20 4 37 10 37 15 0 5
6 6 14 3 8 -3 28 2 44 10 33 17 56 69 50 108 -3 16 -6 11 -12 -19z m-1016
-333 c0 -5 -5 -10 -11 -10 -5 0 -7 5 -4 10 3 6 8 10 11 10 2 0 4 -4 4 -10z
m213 -7 c-7 -2 -19 -2 -25 0 -7 3 -2 5 12 5 14 0 19 -2 13 -5z m126 -181 c21
-7 21 -8 -8 -36 -40 -38 -71 -29 -71 20 0 32 2 34 29 29 16 -3 39 -8 50 -13z
m-725 -154 l-19 -21 26 16 c23 15 27 15 45 2 19 -15 19 -15 -5 -35 -28 -24
-57 -26 -79 -4 -15 15 -14 18 12 40 34 30 45 31 20 2z m409 -42 c7 -18 -1 -26
-29 -26 -25 0 -39 14 -29 30 9 15 52 12 58 -4z m-1258 -16 c3 -5 1 -10 -4 -10
-6 0 -11 5 -11 10 0 6 2 10 4 10 3 0 8 -4 11 -10z m-859 -27 c-10 -10 -19 5
-10 18 6 11 8 11 12 0 2 -7 1 -15 -2 -18z m737 20 c-7 -2 -21 -2 -30 0 -10 3
-4 5 12 5 17 0 24 -2 18 -5z m-322 -30 c13 -16 12 -17 -3 -4 -10 7 -18 15 -18
17 0 8 8 3 21 -13z m706 -39 c-3 -3 -12 -4 -19 -1 -8 3 -5 6 6 6 11 1 17 -2
13 -5z m-12 -34 c3 -5 1 -10 -4 -10 -6 0 -11 5 -11 10 0 6 2 10 4 10 3 0 8 -4
11 -10z m493 -34 c-2 -1 -11 -8 -20 -15 -16 -12 -18 -11 -18 7 0 15 5 19 20
15 12 -3 19 -6 18 -7z m269 -122 c-3 -3 -12 -4 -19 -1 -8 3 -5 6 6 6 11 1 17
-2 13 -5z"/>
<path d="M7187 8090 c-3 -11 -1 -20 4 -20 5 0 9 9 9 20 0 11 -2 20 -4 20 -2 0
-6 -9 -9 -20z"/>
<path d="M7170 8045 c0 -8 -4 -23 -9 -33 -5 -9 -17 -34 -27 -54 -10 -21 -22
-38 -26 -38 -5 0 -8 -8 -8 -18 0 -10 -9 -25 -20 -35 -11 -9 -20 -29 -20 -44 0
-22 -2 -25 -10 -13 -8 13 -10 12 -10 -2 0 -20 26 -24 33 -5 3 7 6 5 6 -5 1
-10 -6 -18 -14 -18 -17 0 -20 -25 -5 -35 6 -3 18 7 28 24 9 17 20 31 25 31 11
0 8 -10 -8 -26 -8 -9 -15 -21 -15 -27 0 -19 49 46 50 65 0 9 4 19 9 23 12 7
10 85 -1 85 -4 0 -8 7 -8 15 0 18 20 20 20 3 0 -7 5 -5 11 5 6 10 8 21 5 24
-3 4 -6 1 -6 -6 0 -7 -4 -10 -9 -7 -5 4 -5 18 2 35 6 17 13 28 16 26 4 -2 6 8
6 21 0 13 -3 24 -7 24 -5 0 -8 -7 -8 -15z m-46 -180 c-10 -19 -24 -37 -30 -39
-7 -3 -2 11 12 31 13 20 24 40 24 46 0 6 3 7 7 4 3 -4 -2 -23 -13 -42z m17
-28 c-8 -8 -11 -7 -11 4 0 9 3 19 7 23 4 4 9 2 11 -4 3 -7 -1 -17 -7 -23z"/>
<path d="M7310 7993 c0 -24 2 -43 4 -43 8 0 12 60 4 72 -4 8 -8 -4 -8 -29z"/>
<path d="M4230 7996 c0 -3 4 -16 10 -30 7 -19 17 -26 35 -26 21 0 25 5 25 30
0 28 -3 30 -35 30 -19 0 -35 -2 -35 -4z"/>
<path d="M7406 7978 c-4 -17 -8 -20 -15 -10 -6 11 -10 9 -14 -7 -3 -13 -1 -19
5 -15 15 9 30 -19 15 -28 -9 -6 -8 -10 3 -18 8 -5 11 -10 6 -10 -5 0 -3 -6 3
-13 6 -8 7 -18 3 -22 -4 -5 -2 -5 5 -2 6 4 9 15 6 25 -2 11 1 19 9 20 45 5 82
13 96 23 16 10 16 10 0 5 -12 -3 -15 -1 -11 10 8 22 -18 68 -29 52 -6 -11 -10
-11 -16 0 -11 17 -37 -30 -29 -52 3 -8 2 -18 -3 -21 -11 -7 -25 59 -15 74 3 6
2 11 -3 11 -5 0 -12 -10 -16 -22z"/>
<path d="M8489 7995 c-4 -5 -9 -30 -13 -55 l-6 -45 16 34 c14 31 17 88 3 66z"/>
<path d="M7353 7925 c0 -22 2 -30 4 -17 2 12 2 30 0 40 -3 9 -5 -1 -4 -23z"/>
<path d="M7302 7900 c0 -14 2 -19 5 -12 2 6 2 18 0 25 -3 6 -5 1 -5 -13z"/>
<path d="M4066 7875 c4 -8 8 -15 10 -15 2 0 4 7 4 15 0 8 -4 15 -10 15 -5 0
-7 -7 -4 -15z"/>
<path d="M3760 7840 c-11 -8 -7 -9 15 -4 37 8 45 14 19 14 -10 0 -26 -5 -34
-10z"/>
<path d="M3708 7823 c7 -3 16 -2 19 1 4 3 -2 6 -13 5 -11 0 -14 -3 -6 -6z"/>
<path d="M3987 7794 c-10 -11 -8 -44 2 -44 6 0 13 4 16 10 8 12 -9 43 -18 34z"/>
<path d="M3798 7773 c7 -3 16 -2 19 1 4 3 -2 6 -13 5 -11 0 -14 -3 -6 -6z"/>
<path d="M5640 7758 c0 -6 5 -27 12 -45 10 -28 17 -33 45 -33 32 0 33 1 33 45
l0 45 -45 0 c-28 0 -45 -4 -45 -12z"/>
<path d="M8431 7724 c0 -11 3 -14 6 -6 3 7 2 16 -1 19 -3 4 -6 -2 -5 -13z"/>
<path d="M4076 7714 c-38 -7 -73 -17 -77 -21 -6 -6 35 -177 45 -190 1 -1 28 8
61 19 50 16 79 19 170 16 133 -4 201 -30 254 -97 36 -45 38 -42 -48 -61 -44
-10 -55 -10 -62 1 -7 12 -9 11 -9 -1 0 -15 -86 -49 -128 -51 -9 0 -12 -3 -6
-5 7 -3 72 6 145 20 157 30 351 55 394 52 45 -4 48 2 24 44 l-22 39 -24 -25
c-14 -15 -23 -20 -23 -11 0 7 -10 23 -23 35 -50 47 -118 10 -82 -44 17 -27 58
-34 49 -9 -4 8 -1 15 5 15 6 0 11 -9 11 -20 0 -16 -7 -20 -33 -20 -26 0 -36 6
-45 25 -18 38 -15 62 10 79 25 18 83 21 93 7 7 -12 45 -10 45 2 0 19 -109 114
-160 139 -139 67 -396 96 -564 62z m614 -104 c0 -5 -2 -10 -4 -10 -3 0 -8 5
-11 10 -3 6 -1 10 4 10 6 0 11 -4 11 -10z m80 -194 c0 -3 -4 -8 -10 -11 -5 -3
-10 -1 -10 4 0 6 5 11 10 11 6 0 10 -2 10 -4z"/>
<path d="M8440 7678 c1 -7 7 -26 14 -43 11 -26 11 -35 -4 -65 -20 -40 -45
-149 -60 -263 -8 -61 -15 -83 -33 -99 -12 -11 -16 -17 -9 -13 10 5 11 0 6 -22
-9 -37 -14 -42 -14 -14 0 12 -4 20 -9 17 -5 -3 -7 -15 -4 -26 3 -12 0 -20 -6
-20 -7 0 -10 -4 -7 -9 7 -10 -11 -116 -26 -151 -18 -44 -26 -55 -37 -52 -10 2
-16 -27 -12 -51 1 -5 -4 -5 -10 -1 -9 5 -10 2 -6 -9 4 -11 2 -14 -9 -10 -8 3
-14 19 -14 39 0 19 -27 100 -60 181 -33 80 -60 150 -60 156 0 11 -21 59 -65
152 l-24 50 6 -160 6 -160 37 -50 c20 -27 66 -90 101 -138 35 -48 73 -100 84
-115 11 -15 40 -55 64 -90 23 -35 44 -62 45 -60 2 2 6 16 10 31 5 21 4 27 -5
21 -9 -5 -10 -2 -4 12 4 10 10 36 13 58 3 28 7 35 14 25 8 -11 9 -10 4 4 -3 9
0 30 6 45 6 15 10 31 9 36 -2 8 13 62 26 96 4 8 7 18 7 21 2 13 37 40 45 35 5
-3 7 4 3 16 -4 16 -2 19 8 13 10 -6 12 -4 7 9 -6 15 7 60 34 121 26 59 55 166
47 171 -11 7 -10 7 -25 -26 -11 -23 -12 -22 -12 18 -1 45 18 58 39 25 9 -17
11 -17 20 -1 6 9 29 19 53 23 80 12 97 17 92 25 -3 5 11 14 32 20 54 15 108
43 110 57 2 9 -22 11 -96 7 -87 -5 -104 -3 -152 17 -62 26 -87 45 -140 112
-22 27 -39 43 -39 35z m-6 -499 c8 -12 19 -18 25 -15 13 8 5 -44 -15 -91 -11
-29 -18 -33 -48 -33 -33 0 -36 2 -36 29 0 17 4 32 9 36 6 3 13 26 17 50 7 50
24 58 48 24z"/>
<path d="M3226 7626 c-99 -28 -181 -57 -184 -64 -2 -7 1 -12 8 -12 6 0 8 -4 5
-10 -3 -5 3 -10 15 -10 17 0 181 43 292 76 16 5 64 75 50 73 -4 0 -88 -24
-186 -53z m-46 -46 c0 -5 -4 -10 -9 -10 -6 0 -13 5 -16 10 -3 6 1 10 9 10 9 0
16 -4 16 -10z"/>
<path d="M4930 7651 c0 -6 4 -13 10 -16 6 -3 7 1 4 9 -7 18 -14 21 -14 7z"/>
<path d="M3832 7608 c-5 -8 -6 -22 -1 -33 7 -18 8 -18 8 -2 1 10 5 16 11 12 6
-4 5 -15 -2 -30 -6 -13 -14 -22 -19 -20 -4 3 -10 -4 -14 -15 -5 -15 -12 -19
-25 -15 -31 10 -60 -15 -53 -45 5 -25 5 -25 -12 -5 -16 19 -16 18 -11 -25 3
-25 8 -64 12 -87 9 -61 -11 -55 -27 7 -7 28 -16 50 -19 50 -10 0 -71 -136 -68
-150 2 -7 -15 -17 -37 -24 -35 -10 -42 -10 -56 5 -12 11 -14 20 -7 27 7 7 3
12 -11 17 -13 4 -21 14 -20 23 2 9 -1 28 -6 42 -5 14 -8 35 -6 46 1 12 -5 24
-13 27 -9 4 -19 24 -22 47 -5 32 -11 40 -28 40 -18 0 -19 2 -6 11 11 8 8 9
-15 4 -36 -8 -57 -25 -31 -25 15 0 16 -3 6 -15 -7 -8 -23 -15 -36 -15 -12 0
-29 -6 -36 -13 -7 -7 -22 -12 -33 -12 -11 0 -25 -7 -32 -15 -10 -13 -15 -12
-37 9 -14 14 -29 21 -33 18 -3 -4 -1 -7 5 -7 7 0 12 -7 12 -15 0 -18 -12 -19
-27 -4 -14 14 -46 4 -41 -13 5 -15 32 -18 68 -8 16 4 31 5 35 2 4 -4 12 -7 18
-7 6 0 14 -16 18 -35 3 -19 9 -44 12 -55 5 -16 2 -21 -13 -22 -21 -2 -23 2
-20 58 1 34 -18 58 -34 42 -11 -11 -6 -22 7 -17 15 6 22 -42 6 -51 -7 -5 -6
-11 2 -21 9 -11 9 -14 0 -14 -13 0 -9 -60 8 -132 7 -31 6 -38 -13 -47 -21 -11
-21 -11 2 -7 12 2 22 0 22 -5 0 -5 -3 -9 -7 -9 -27 -1 -33 -17 -18 -47 20 -40
11 -59 -33 -72 -36 -10 -35 -10 11 -4 42 5 47 3 40 -12 -4 -13 -3 -16 5 -11
18 11 15 -19 -3 -34 -12 -10 -16 -8 -23 11 -9 22 -9 22 -14 -9 -5 -32 8 -42
28 -22 18 18 39 -8 38 -49 -1 -37 1 -41 37 -55 22 -9 47 -16 55 -16 15 0 132
57 144 70 3 3 28 20 55 38 53 33 55 39 8 21 -15 -6 -48 -12 -73 -14 -43 -3
-44 -3 -17 9 15 7 24 16 20 21 -5 4 0 5 10 2 10 -4 84 17 172 48 155 54 202
74 177 75 -7 0 -10 5 -7 10 4 6 11 8 16 5 5 -3 6 1 3 9 -9 24 -21 19 -33 -14
-13 -39 -46 -41 -55 -3 -8 30 2 39 52 49 17 3 32 10 32 15 0 5 7 9 15 9 8 0
15 4 15 9 0 6 -9 9 -19 8 -11 0 -17 -5 -15 -9 3 -4 0 -8 -5 -8 -6 0 -11 7 -11
15 0 8 6 15 13 15 9 0 8 3 -2 9 -11 7 -9 13 7 29 11 11 24 17 28 14 4 -4 4 4
1 18 -4 14 -7 28 -7 33 0 4 -9 -2 -20 -13 -11 -11 -29 -20 -40 -20 -11 0 -20
-5 -20 -12 0 -6 -3 -8 -6 -5 -4 3 -16 1 -27 -4 -14 -8 -21 -8 -26 0 -4 5 -17
8 -29 4 -12 -3 -20 -9 -17 -13 3 -5 0 -12 -6 -16 -8 -4 -9 -3 -5 4 4 7 1 12
-8 12 -9 0 -16 -6 -16 -14 0 -7 -9 -16 -20 -19 -11 -3 -18 -1 -14 4 13 22 -37
6 -52 -16 -20 -30 -44 -33 -44 -5 0 11 -5 20 -10 20 -6 0 -10 8 -8 18 3 18 73
45 96 37 7 -3 10 0 7 5 -3 6 3 10 14 10 10 0 21 -5 23 -11 6 -17 78 8 78 26 0
20 21 30 30 15 7 -11 17 -11 54 0 26 7 49 17 53 23 4 6 0 8 -11 4 -9 -4 -14
-3 -11 2 3 5 21 15 39 21 29 9 35 17 41 50 4 24 2 45 -7 59 -10 17 -10 23 0
33 8 7 12 9 11 3 -1 -5 5 -26 14 -45 20 -40 19 -35 -13 72 -16 56 -26 75 -37
71 -11 -4 -12 3 -7 36 5 33 4 41 -8 41 -9 0 -20 -6 -26 -12z m31 -161 c20 -50
21 -64 5 -70 -10 -4 -9 -8 2 -16 13 -10 13 -11 0 -11 -13 0 -13 -1 0 -10 20
-12 6 -23 -19 -15 -20 6 -29 34 -34 100 -1 18 3 29 9 28 7 -1 10 6 7 17 -10
37 12 20 30 -23z m37 26 c0 -14 -19 -38 -25 -32 -8 8 5 39 16 39 5 0 9 -3 9
-7z m-137 -38 c-7 -21 -13 -19 -13 6 0 11 4 18 10 14 5 -3 7 -12 3 -20z m23
-12 c-10 -10 -19 5 -10 18 6 11 8 11 12 0 2 -7 1 -15 -2 -18z m-516 -13 c0 -5
-4 -10 -9 -10 -6 0 -13 5 -16 10 -3 6 1 10 9 10 9 0 16 -4 16 -10z m530 -110
c0 -5 -2 -10 -4 -10 -3 0 -8 5 -11 10 -3 6 -1 10 4 10 6 0 11 -4 11 -10z m-70
-20 c0 -5 -4 -10 -10 -10 -5 0 -10 5 -10 10 0 6 5 10 10 10 6 0 10 -4 10 -10z
m60 -120 c24 -13 15 -44 -17 -59 -14 -7 -26 -10 -27 -9 -5 8 -26 59 -26 63 0
3 24 11 43 14 5 0 17 -3 27 -9z m-553 -32 c-3 -8 -6 -5 -6 6 -1 11 2 17 5 13
3 -3 4 -12 1 -19z m429 -55 c-7 -18 -26 -16 -42 5 -17 22 -17 27 2 47 15 15
17 14 31 -11 7 -15 11 -34 9 -41z m-311 27 c-3 -5 -13 -10 -21 -10 -8 0 -12 5
-9 10 3 6 13 10 21 10 8 0 12 -4 9 -10z m227 -22 c-7 -7 -12 -8 -12 -2 0 14
12 26 19 19 2 -3 -1 -11 -7 -17z m-47 2 c-3 -5 -11 -10 -16 -10 -6 0 -7 5 -4
10 3 6 11 10 16 10 6 0 7 -4 4 -10z m150 -97 c-7 -21 -25 -15 -37 13 -11 23
-10 28 7 40 18 13 20 12 27 -13 4 -15 6 -34 3 -40z m-114 14 c-1 -12 -15 -9
-19 4 -3 6 1 10 8 8 6 -3 11 -8 11 -12z m164 3 c-3 -5 -12 -10 -18 -10 -7 0
-6 4 3 10 19 12 23 12 15 0z m-467 -65 c-6 -14 -15 -25 -20 -25 -9 0 -4 14 15
38 15 19 18 14 5 -13z m327 15 c3 -5 -3 -10 -14 -10 -12 0 -21 5 -21 10 0 6 6
10 14 10 8 0 18 -4 21 -10z m-230 -90 c3 -5 -1 -10 -10 -10 -9 0 -13 5 -10 10
3 6 8 10 10 10 2 0 7 -4 10 -10z"/>
<path d="M3905 7590 c-4 -6 4 -41 16 -78 17 -51 24 -62 29 -47 4 11 4 22 -1
25 -13 8 -40 91 -33 101 3 5 3 9 0 9 -3 0 -8 -5 -11 -10z"/>
<path d="M8928 7573 c7 -3 16 -2 19 1 4 3 -2 6 -13 5 -11 0 -14 -3 -6 -6z"/>
<path d="M8630 7552 c0 -12 19 -26 26 -19 2 2 -2 10 -11 17 -9 8 -15 8 -15 2z"/>
<path d="M2860 7515 c-52 -19 -103 -39 -112 -45 -10 -5 -24 -10 -31 -10 -7 0
-22 -7 -33 -15 -18 -14 -17 -15 11 -9 17 4 34 9 40 12 5 4 16 7 25 7 52 5 96
19 108 36 9 14 20 18 34 13 14 -4 18 -2 14 5 -4 6 -3 11 3 11 5 0 12 -6 14
-12 4 -8 6 -7 6 4 1 9 13 21 29 26 21 8 22 10 7 11 -11 0 -63 -15 -115 -34z"/>
<path d="M3307 7533 c-15 -2 -25 -7 -23 -11 2 -4 -6 -7 -17 -8 -33 -1 -88 -14
-106 -24 -15 -8 -15 -9 0 -15 23 -9 101 11 155 40 46 25 46 26 -9 18z"/>
<path d="M8670 7530 c0 -5 9 -10 21 -10 11 0 17 5 14 10 -3 6 -13 10 -21 10
-8 0 -14 -4 -14 -10z"/>
<path d="M8730 7530 c-12 -8 -11 -10 5 -9 11 1 34 5 50 9 l30 8 -35 1 c-19 0
-42 -4 -50 -9z"/>
<path d="M3268 7474 c-5 -4 -31 -9 -76 -13 -7 0 -10 -6 -7 -11 4 -6 11 -8 16
-5 5 4 9 0 9 -7 0 -10 2 -11 8 0 5 8 16 10 27 6 13 -5 16 -4 11 5 -5 8 -3 12
5 10 25 -3 39 1 39 11 0 11 -23 14 -32 4z"/>
<path d="M4195 7466 c-62 -28 -106 -85 -105 -134 1 -9 7 0 14 21 23 63 63 96
133 111 42 9 105 -9 143 -40 19 -16 28 -20 24 -10 -18 48 -149 80 -209 52z"/>
<path d="M7810 7459 c-19 -12 -52 -37 -72 -56 l-37 -36 60 -28 c41 -19 83 -52
134 -105 53 -54 75 -71 75 -58 -1 55 -21 223 -31 251 -18 56 -68 68 -129 32z"/>
<path d="M2838 7403 c7 -3 16 -2 19 1 4 3 -2 6 -13 5 -11 0 -14 -3 -6 -6z"/>
<path d="M2768 7369 c-14 -15 -14 -18 -2 -23 8 -3 14 -13 14 -23 0 -10 4 -24
9 -31 7 -11 9 -10 14 3 4 9 3 13 -3 10 -14 -9 -12 9 2 23 9 9 9 12 -1 12 -21
0 -6 24 20 32 23 7 23 7 -3 4 -15 -2 -29 0 -30 3 -2 4 -11 -1 -20 -10z"/>
<path d="M5169 7343 c0 -16 -2 -36 -4 -45 -2 -10 1 -21 6 -24 6 -4 6 -11 -1
-19 -8 -10 -8 -15 0 -20 21 -13 26 7 22 93 -2 46 -22 59 -23 15z"/>
<path d="M4930 7306 c0 -9 40 -13 46 -5 3 5 -6 9 -20 9 -14 0 -26 -2 -26 -4z"/>
<path d="M5050 7300 c0 -6 -11 -8 -27 -5 -27 5 -27 5 -4 -5 43 -19 15 -20 -65
-4 -69 15 -93 15 -189 4 -152 -16 -369 -57 -373 -69 -2 -6 -13 -21 -24 -33
-15 -17 -18 -19 -14 -5 3 9 0 17 -7 18 -7 0 -3 5 8 10 14 6 4 8 -34 4 -30 -4
-63 -11 -73 -16 -23 -12 -70 1 -102 29 -20 16 -20 16 -6 -2 22 -28 72 -46 127
-46 52 -1 76 -13 87 -47 5 -16 2 -22 -11 -26 -14 -3 -11 -6 12 -16 17 -7 47
-21 68 -32 63 -32 82 -20 70 44 -4 22 -2 29 5 22 17 -16 26 -65 12 -65 -6 0
-10 -6 -8 -12 3 -7 23 -15 45 -18 l40 -6 43 98 c35 81 48 101 74 113 122 55
284 48 441 -20 l40 -17 -23 25 c-33 35 -112 90 -112 77z m20 -20 c0 -5 -4 -10
-10 -10 -5 0 -10 5 -10 10 0 6 5 10 10 10 6 0 10 -4 10 -10z m71 -47 c13 -16
12 -17 -3 -4 -10 7 -18 15 -18 17 0 8 8 3 21 -13z m-749 -55 c-7 -7 -12 -8
-12 -2 0 14 12 26 19 19 2 -3 -1 -11 -7 -17z m9 -31 c-10 -9 -11 -8 -5 6 3 10
9 15 12 12 3 -3 0 -11 -7 -18z m59 -21 c0 -2 -9 -6 -20 -9 -11 -3 -18 -1 -14
4 5 9 34 13 34 5z m25 -50 c0 -11 -7 -21 -15 -23 -13 -4 -13 -3 0 6 13 9 12
11 -5 12 l-20 0 20 10 c15 7 8 8 -25 5 -32 -4 -39 -2 -25 4 33 15 70 8 70 -14z"/>
<path d="M5130 7275 c0 -10 29 -24 34 -17 3 6 -3 12 -14 15 -11 3 -20 4 -20 2z"/>
<path d="M3805 7230 c-13 -6 -15 -9 -5 -9 8 0 22 4 30 9 18 12 2 12 -25 0z"/>
<path d="M5452 7199 c-195 -23 -387 -92 -522 -187 -62 -45 -184 -177 -222
-243 -21 -35 -55 -106 -75 -158 l-38 -95 -13 55 c-9 32 -15 116 -16 210 -1
132 -3 153 -14 138 -7 -11 -11 -27 -8 -37 3 -9 -5 -30 -18 -46 l-23 -28 0 28
c0 16 2 23 4 16 4 -10 8 -10 19 -1 8 6 14 16 14 21 0 6 -6 6 -14 -1 -11 -9
-15 -9 -19 1 -4 11 -6 10 -6 0 -1 -7 -6 -10 -12 -6 -8 4 -8 1 -1 -13 7 -12 7
-24 0 -37 -8 -15 -8 -17 2 -11 10 6 11 4 5 -11 -4 -10 -10 -58 -13 -105 l-4
-87 -42 -13 c-22 -7 -43 -16 -46 -19 -3 -4 -27 -17 -53 -29 -26 -13 -46 -25
-43 -28 2 -3 33 9 68 25 66 30 136 51 108 32 -8 -5 -23 -10 -33 -10 -11 0 -17
-5 -14 -12 6 -18 -12 -50 -23 -43 -6 3 -7 -1 -4 -10 5 -11 2 -14 -12 -8 -11 4
-15 3 -10 -5 4 -6 0 -22 -9 -36 -9 -14 -12 -25 -6 -28 6 -1 2 -14 -8 -27 -22
-28 -41 -21 -41 16 0 15 -3 24 -6 20 -3 -3 -1 -45 6 -94 7 -48 13 -94 13 -100
0 -14 17 -18 17 -4 0 5 11 9 25 9 13 0 22 -4 19 -9 -8 -14 11 -11 66 11 59 23
73 20 60 -16 -13 -32 3 -104 26 -121 21 -15 44 -17 44 -3 0 6 -4 10 -10 10 -5
0 -10 23 -10 52 0 28 2 49 4 47 6 -6 43 -172 51 -229 3 -25 11 -63 17 -85 6
-22 14 -57 18 -77 7 -35 6 -36 -17 -27 -34 13 -103 11 -103 -2 0 -13 -42 46
-53 74 -8 21 47 77 100 102 18 9 31 21 27 26 -15 25 -122 -30 -191 -98 -37
-36 -42 -46 -37 -73 7 -35 -11 -61 -55 -80 -36 -14 -51 -58 -51 -148 0 -44 -4
-72 -11 -72 -5 0 -8 -4 -5 -8 4 -7 -10 -11 -52 -14 -15 -2 -9 -24 30 -102 l30
-59 32 59 c18 32 40 73 49 89 9 17 26 62 37 100 30 105 22 100 135 79 l97 -18
-4 -43 c-3 -43 4 -53 38 -53 9 0 14 11 14 35 0 19 10 55 22 80 18 38 20 49 10
65 -16 25 -15 30 3 30 11 0 13 9 9 43 -4 30 9 102 46 262 126 546 143 593 245
703 96 104 241 162 404 162 111 0 162 -15 214 -60 68 -60 78 -102 88 -375 9
-255 16 -311 54 -417 38 -106 127 -209 200 -230 22 -7 42 -15 45 -19 3 -4 41
-19 84 -33 64 -22 94 -26 157 -24 42 2 72 6 66 10 -11 7 7 12 41 11 7 -1 11 1
8 4 -6 7 70 107 118 155 32 32 36 41 36 90 -1 34 -11 78 -28 123 -27 67 -52
107 -158 255 -56 77 -122 214 -176 363 -21 60 -45 115 -53 124 -8 8 -15 20
-16 26 -3 46 -10 63 -42 110 -57 82 -131 128 -246 153 -72 15 -223 16 -339 3z
m-14 -226 c-21 -2 -57 -2 -80 0 -24 2 -7 4 37 4 44 0 63 -2 43 -4z m-145 -10
c-7 -2 -19 -2 -25 0 -7 3 -2 5 12 5 14 0 19 -2 13 -5z m220 0 c-7 -2 -19 -2
-25 0 -7 3 -2 5 12 5 14 0 19 -2 13 -5z m-313 -22 c-53 -17 -126 -53 -180 -87
-16 -10 -13 -5 8 14 35 31 172 91 207 91 11 0 -5 -8 -35 -18z m360 9 c8 -5 11
-10 5 -10 -5 0 -17 5 -25 10 -8 5 -10 10 -5 10 6 0 17 -5 25 -10z m60 -40 c0
-15 -5 -12 -26 11 -19 22 -19 22 4 10 12 -6 22 -16 22 -21z m290 -40 c0 -5 -4
-10 -10 -10 -5 0 -10 5 -10 10 0 6 5 10 10 10 6 0 10 -4 10 -10z m-21 -76 c31
-6 31 -7 11 -21 -28 -20 -80 -34 -80 -22 0 12 23 49 31 49 4 0 21 -3 38 -6z
m-1035 -169 c-4 -8 -8 -15 -10 -15 -2 0 -4 7 -4 15 0 8 4 15 10 15 5 0 7 -7 4
-15z m1253 -20 c-21 -20 -31 -24 -45 -16 -10 7 -12 11 -4 11 7 0 11 4 8 9 -7
11 10 19 44 20 l25 1 -28 -25z m93 -129 c0 -2 -8 -10 -17 -17 -16 -13 -17 -12
-4 4 13 16 21 21 21 13z m-71 -93 c-40 -47 -42 -49 -34 -33 10 19 47 60 53 60
3 0 -5 -12 -19 -27z m-1729 -57 c0 -23 -16 -27 -17 -5 -1 10 2 19 8 19 5 0 9
-6 9 -14z m211 -571 c1 -17 -18 -17 -25 0 -4 11 -1 15 10 13 8 -2 15 -7 15
-13z"/>
<path d="M3547 7174 c-16 -9 -26 -18 -23 -21 3 -3 20 4 38 16 38 24 27 28 -15
5z"/>
<path d="M3148 7053 c7 -3 16 -2 19 1 4 3 -2 6 -13 5 -11 0 -14 -3 -6 -6z"/>
<path d="M7490 6849 c-59 -103 -159 -195 -249 -229 -54 -21 -175 -37 -151 -21
8 6 24 8 35 5 16 -4 17 -3 5 5 -11 9 -3 10 30 5 25 -4 42 -4 38 0 -3 4 -35 9
-70 11 -38 2 -55 0 -43 -5 17 -6 15 -9 -15 -14 -19 -4 -46 -3 -60 2 -24 9 -24
10 14 17 32 6 36 9 21 18 -12 6 -20 6 -24 -1 -10 -16 -67 -20 -63 -4 2 9 -4
11 -18 7 -11 -3 -20 -2 -20 4 0 5 8 12 18 14 9 2 5 3 -10 1 -32 -4 -87 43
-134 115 -15 24 -30 38 -32 32 -2 -6 -9 -8 -14 -5 -8 5 -9 -6 -4 -35 4 -29 3
-40 -4 -36 -7 4 -9 -2 -4 -19 4 -16 2 -26 -5 -26 -13 0 -15 -77 -2 -82 5 -1
11 -19 13 -38 2 -19 11 -49 21 -66 9 -17 13 -34 10 -38 -4 -3 1 -6 10 -6 9 0
17 -6 17 -14 0 -7 10 -20 21 -28 14 -9 22 -25 23 -45 0 -17 4 -29 7 -27 3 2 6
-3 6 -10 0 -15 -44 -19 -53 -5 -3 5 -10 9 -16 9 -6 0 -3 -9 7 -20 10 -12 13
-20 6 -20 -8 0 -8 -5 1 -20 9 -14 14 -16 20 -7 5 8 8 4 8 -10 0 -13 -6 -23
-14 -23 -8 0 -18 -6 -22 -12 -4 -7 -4 -10 1 -6 10 9 55 -54 55 -76 0 -27 -18
-17 -36 19 -19 42 -27 45 -18 9 4 -16 3 -25 -3 -21 -5 3 -15 -3 -21 -14 -12
-18 -11 -19 5 -10 16 8 21 4 33 -22 10 -23 10 -32 2 -35 -7 -2 -12 -19 -12
-38 0 -30 -3 -34 -27 -35 -16 -1 -32 0 -38 1 -5 1 -7 -2 -3 -5 4 -4 1 -16 -6
-27 -8 -11 -11 -28 -9 -39 4 -14 -7 -31 -37 -59 -27 -25 -40 -45 -37 -55 14
-35 57 -5 57 40 0 8 5 15 10 15 6 0 10 -5 10 -11 0 -6 7 -17 15 -26 13 -13 21
-13 45 -3 16 7 27 16 24 21 -10 17 6 45 26 45 24 0 25 -5 5 -33 -8 -12 -12
-28 -9 -37 6 -16 -10 -23 -19 -8 -2 4 -2 1 -1 -6 2 -7 -4 -21 -14 -31 -9 -10
-28 -33 -42 -51 -14 -18 -43 -54 -65 -81 -23 -26 -41 -56 -41 -66 -1 -10 -5
-31 -9 -48 -8 -28 -7 -29 11 -15 16 12 15 10 -2 -10 -19 -22 -62 -166 -108
-362 -6 -25 -14 -50 -19 -54 -14 -14 -7 -24 18 -22 14 1 25 8 25 15 0 21 53
13 125 -17 27 -12 113 -24 150 -21 54 4 137 -46 165 -98 6 -13 18 -71 27 -129
13 -93 12 -111 -1 -151 -8 -25 -18 -64 -22 -86 -3 -22 -11 -48 -16 -58 -7 -14
-17 -206 -19 -369 -1 -33 -24 -39 -158 -36 -99 3 -134 7 -145 18 -23 23 -46
183 -46 316 0 67 -3 149 -6 182 l-7 61 -143 3 c-131 3 -145 1 -168 -17 -14
-11 -29 -32 -35 -46 -9 -26 -8 -27 65 -54 106 -39 109 -45 108 -225 -1 -85 -8
-176 -17 -220 -8 -41 -14 -77 -12 -78 2 -2 25 -6 52 -8 26 -2 84 -9 128 -14
94 -12 87 -12 239 -14 l119 -1 10 29 c7 21 6 30 -4 37 -12 7 -11 9 1 9 8 0 21
10 28 21 16 26 39 10 27 -18 -4 -10 -10 -26 -12 -37 -11 -58 -70 -154 -135
-218 l-68 -67 10 -47 c13 -56 29 -90 30 -61 0 10 5 15 10 12 6 -3 10 0 10 7 0
10 2 10 9 -1 5 -7 10 -9 12 -3 2 5 19 2 39 -9 25 -14 29 -19 15 -19 -17 0 -17
-2 -5 -10 12 -8 12 -10 -5 -11 -36 -1 -69 -9 -79 -19 -6 -6 -2 -56 9 -132 10
-68 21 -145 25 -171 6 -43 40 -101 40 -69 0 8 5 9 18 3 22 -12 296 -43 422
-47 52 -2 111 -7 130 -11 19 -3 39 -5 45 -4 10 3 181 -15 239 -24 27 -5 28 -4
22 28 -5 25 -2 35 13 44 16 10 20 9 25 -4 4 -9 2 -21 -3 -26 -11 -11 33 -64
60 -72 13 -4 18 -16 17 -45 0 -21 3 -43 6 -49 4 -6 -5 -13 -21 -17 -46 -10
-49 -12 -18 -13 l30 -2 -40 -18 c-49 -24 -44 -25 17 -7 l47 15 22 -50 c13 -27
33 -56 47 -65 13 -8 21 -22 18 -29 -5 -15 14 -25 49 -25 12 0 28 -6 34 -13 6
-8 31 -24 55 -36 44 -23 63 -55 46 -76 -6 -7 -6 -16 -2 -20 4 -5 -1 -5 -10 -2
-10 3 -17 2 -15 -2 1 -5 -7 -17 -19 -27 -11 -11 -27 -30 -34 -44 -7 -14 -21
-31 -32 -38 -10 -7 -18 -20 -18 -28 0 -19 -39 -18 -47 2 -3 8 1 27 8 41 11 21
11 27 1 30 -6 3 -9 10 -6 15 4 7 2 8 -4 4 -6 -4 -8 -14 -5 -23 4 -9 -1 -21
-11 -29 -10 -6 -17 -15 -17 -18 1 -3 1 -10 1 -15 0 -4 -24 -3 -53 4 -44 10
-60 10 -85 -1 -18 -7 -34 -9 -37 -4 -3 5 -12 7 -20 3 -8 -3 -27 -2 -41 1 -22
6 -25 11 -20 31 5 19 3 23 -9 19 -8 -4 -15 -12 -15 -20 0 -8 -4 -14 -10 -14
-5 0 -10 4 -10 9 0 20 -91 62 -141 65 -39 2 -55 7 -68 25 -9 12 -20 18 -25 14
-10 -11 -166 -10 -166 0 0 5 -4 5 -10 2 -5 -3 -10 -2 -10 3 0 9 -8 11 -65 14
-19 1 -35 5 -35 10 0 4 -7 8 -15 8 -11 0 -15 -12 -15 -52 0 -52 19 -108 21
-63 0 11 3 14 6 8 9 -24 23 -13 24 20 2 30 2 30 6 5 4 -24 7 -27 23 -18 11 6
36 8 56 6 27 -4 44 1 62 15 23 18 25 18 39 2 7 -10 12 -13 11 -8 -2 6 2 10 7
10 6 0 9 -3 8 -7 -4 -10 -4 -10 35 1 20 6 32 6 32 0 0 -5 -7 -9 -15 -9 -8 0
-15 -5 -15 -11 0 -5 3 -8 8 -6 4 2 17 -9 30 -24 14 -17 18 -29 11 -29 -30 0 3
-11 76 -25 44 -8 100 -21 125 -29 25 -8 68 -17 95 -20 28 -3 61 -8 75 -11 84
-16 125 -22 140 -18 10 3 21 0 24 -6 4 -6 16 -11 27 -11 10 0 19 -4 19 -9 0
-8 26 -15 85 -24 11 -2 27 2 35 8 23 18 49 25 55 16 2 -5 28 -7 57 -6 31 2 68
-3 88 -12 19 -8 71 -24 115 -34 68 -15 91 -16 153 -7 48 7 69 14 60 19 -12 8
-11 10 11 13 15 2 26 16 13 16 -7 0 -12 9 -12 20 0 17 -7 20 -43 20 -39 0
-107 17 -162 40 -11 5 -37 11 -57 15 -41 6 -98 48 -98 71 0 8 -4 14 -9 14 -5
0 -12 8 -15 18 -6 19 -14 21 -95 25 -65 3 -76 20 -27 38 39 14 49 39 16 39
-15 0 -22 8 -26 29 -4 20 -15 33 -35 41 -30 13 -89 67 -89 82 0 5 5 6 11 3 5
-4 25 -9 42 -12 18 -3 34 -9 35 -14 2 -5 9 -15 16 -22 7 -6 15 -20 19 -29 3
-10 11 -18 18 -18 6 0 9 -7 5 -15 -3 -8 -1 -15 5 -15 6 0 8 -4 5 -9 -10 -15
22 -21 34 -6 17 21 -46 143 -74 141 -26 -2 -105 17 -134 33 -12 6 -22 20 -22
31 0 11 -16 35 -35 54 -38 38 -43 51 -21 59 10 4 13 17 9 44 -3 22 0 56 5 76
6 20 7 35 3 32 -11 -6 -47 35 -55 62 -5 16 -26 28 -86 48 -43 14 -83 32 -88
38 -6 7 -16 63 -23 124 -11 100 -15 114 -33 119 -22 7 -102 59 -124 81 -7 7
-18 13 -24 13 -5 0 -8 7 -5 14 4 10 1 13 -7 10 -8 -3 -33 18 -60 48 -48 55
-62 84 -23 52 l22 -19 -19 22 c-10 13 -22 20 -27 17 -13 -8 -29 31 -22 55 3
12 2 21 -3 20 -21 -4 -28 2 -14 11 13 8 12 10 -2 10 -12 0 -18 8 -18 24 0 13
-2 39 -5 57 -5 27 -4 30 4 13 11 -25 27 -37 56 -42 103 -15 175 -30 155 -32
-21 -2 -20 -3 10 -11 62 -15 95 -17 103 -5 5 7 7 3 5 -9 -2 -16 5 -21 40 -29
23 -5 42 -13 42 -17 0 -5 5 -9 10 -9 6 0 10 5 10 10 0 6 11 22 23 36 30 32
107 176 107 199 0 13 5 15 18 10 54 -24 305 -57 402 -54 19 1 -1 5 -45 10
-128 13 -276 39 -328 57 l-48 16 7 71 c3 38 7 81 8 95 1 14 6 31 10 38 4 7 3
12 -2 12 -5 0 -6 24 -2 53 3 28 6 79 6 112 l-1 59 -40 7 c-22 3 -58 9 -81 13
l-41 6 -11 -53 c-7 -28 -19 -101 -27 -162 -22 -163 -68 -334 -94 -349 -5 -4
-31 -2 -58 3 -64 12 -196 35 -207 35 -17 1 -25 56 -19 127 3 38 8 69 11 69 3
0 11 -8 19 -17 14 -17 14 -17 6 2 -11 27 -6 315 6 340 25 52 38 111 28 126
-14 23 11 69 53 95 19 13 49 34 65 47 34 28 127 69 195 87 66 17 113 33 128
43 18 14 15 34 -8 40 -11 3 -20 11 -20 19 0 8 -27 27 -61 43 l-60 29 38 11
c21 7 44 10 51 7 6 -2 12 1 12 8 0 9 -13 11 -47 6 -27 -4 -59 -7 -73 -6 -27 0
-47 15 -33 23 12 8 6 123 -8 150 -10 17 -9 19 5 14 10 -4 19 -1 22 8 4 8 17
15 29 15 13 0 35 4 49 10 17 6 26 6 26 0 0 -6 8 -10 17 -10 14 0 12 6 -11 26
-27 26 -31 26 -83 17 -29 -5 -50 -6 -46 -2 5 5 18 10 30 12 12 2 31 11 41 20
10 9 24 17 30 17 7 0 12 5 12 11 0 14 24 37 41 39 45 7 59 0 59 -28 0 -24 -6
-30 -35 -39 -30 -10 -49 -3 -27 10 4 2 1 2 -5 1 -7 -2 -13 2 -13 8 0 6 -3 9
-6 6 -3 -4 0 -16 6 -28 8 -15 18 -20 31 -17 17 4 18 3 8 -9 -9 -11 -8 -14 3
-14 8 0 19 5 26 12 9 9 12 9 12 0 0 -7 -5 -12 -11 -12 -8 0 -8 -4 0 -14 9 -11
6 -12 -16 -9 -19 3 -24 2 -15 -5 24 -16 45 -66 43 -102 -1 -24 2 -31 8 -21 7
10 18 0 45 -40 l37 -54 -7 45 c-4 25 -11 52 -16 60 -6 10 -7 7 -2 -10 6 -24 6
-24 -9 -5 -14 19 -14 21 10 34 l26 13 -24 14 c-17 9 -19 13 -8 14 19 0 79 -52
79 -68 0 -14 36 -25 50 -17 6 4 23 8 38 10 14 1 28 8 30 14 2 6 10 11 18 11 8
0 14 9 14 20 0 22 25 28 33 8 3 -8 6 -6 6 5 1 9 5 17 9 17 5 0 9 13 10 29 0
22 -3 28 -14 24 -8 -3 -14 1 -14 11 0 18 -31 21 -61 6 -10 -6 -19 -7 -19 -2 0
5 -7 9 -15 9 -8 0 -15 -6 -15 -14 0 -7 5 -13 11 -13 5 0 7 -5 4 -10 -4 -6 -15
0 -27 15 -11 14 -24 22 -29 19 -6 -3 -10 0 -8 7 3 28 -1 39 -16 39 -8 0 -17
11 -21 25 -4 14 -9 24 -12 21 -8 -9 -43 14 -36 25 3 5 -9 23 -27 38 -17 16
-29 33 -26 39 4 5 -1 9 -11 8 -9 0 -16 5 -14 12 1 8 -2 11 -7 7 -6 -3 -16 3
-23 15 -7 11 -19 20 -26 20 -7 0 -11 4 -8 9 3 4 0 16 -7 26 -12 15 -13 13 -9
-16 2 -19 -3 -50 -12 -69 -8 -19 -15 -29 -16 -22 0 6 -4 12 -9 12 -4 0 -3 -16
3 -35 6 -19 14 -35 18 -35 5 0 8 -5 8 -11 0 -15 -30 9 -30 25 0 6 -9 22 -20
36 -11 14 -20 36 -20 50 0 20 -2 22 -11 10 -7 -11 -8 -6 -4 20 7 35 24 65 22
37 -2 -16 0 -17 30 -17 13 0 14 3 5 12 -15 15 -15 28 -1 28 12 0 39 25 39 35
0 4 -7 5 -15 1 -8 -3 -15 -1 -15 4 0 19 -53 65 -71 62 -10 -2 -19 2 -19 7 0 6
4 11 8 11 13 0 7 43 -6 48 -7 2 -12 10 -12 18 0 8 -5 14 -11 14 -5 0 -7 5 -4
10 3 6 2 10 -4 10 -6 0 -8 6 -5 14 3 7 -2 16 -10 19 -9 4 -16 13 -16 22 0 8
-4 15 -9 15 -5 0 -24 12 -42 28 -18 15 -34 26 -36 25 -8 -7 -23 -2 -23 7 0 5
6 7 13 5 9 -4 11 7 9 40 -4 40 -7 45 -29 45 -13 0 -21 4 -18 10 3 6 1 10 -5
10 -6 0 -10 8 -9 18 4 23 -10 62 -22 62 -6 0 -8 4 -4 9 3 6 -1 42 -9 81 -13
62 -13 80 -2 131 8 33 14 60 15 62 0 4 8 31 37 120 27 82 28 89 12 98 -10 5
-15 16 -12 24 4 9 0 15 -7 15 -9 0 -10 3 -4 8 14 10 17 32 5 32 -5 0 -10 5
-10 11 0 5 5 7 10 4 6 -4 10 7 10 24 0 17 -1 31 -2 31 -2 0 -19 -28 -38 -61z
m-192 -360 c15 -17 44 -49 65 -71 20 -22 37 -45 37 -51 0 -5 21 -57 47 -114
32 -73 49 -100 55 -91 6 9 7 6 3 -8 -3 -12 2 -39 12 -60 15 -30 16 -38 4 -42
-18 -6 -51 -39 -51 -51 0 -5 27 -8 60 -6 44 3 58 1 54 -8 -2 -7 7 -37 21 -66
15 -29 24 -60 20 -68 -3 -11 -1 -13 10 -9 8 3 15 1 15 -4 0 -6 -11 -10 -25
-10 -14 0 -24 3 -24 8 3 18 -2 32 -11 32 -5 0 -10 -7 -10 -15 0 -8 -5 -15 -11
-15 -5 0 -7 5 -4 10 3 6 1 10 -4 10 -6 0 -11 -6 -12 -12 0 -7 -4 -4 -9 7 -6
13 -9 15 -9 5 -1 -12 -18 -16 -79 -17 -42 -2 -90 -7 -107 -12 -21 -6 -10 -7
41 -4 92 7 258 -5 279 -21 14 -10 6 -11 -41 -5 -95 12 -275 10 -311 -3 -29
-11 -39 -25 -34 -51 1 -4 -5 -15 -14 -23 -13 -14 -15 -13 -15 8 0 18 -2 20 -9
9 -8 -12 -13 -11 -30 10 l-21 24 16 -32 c8 -18 20 -35 25 -39 12 -7 1 -66 -21
-116 -17 -39 -65 -84 -74 -70 -3 5 -19 7 -36 4 -18 -2 -30 0 -30 7 0 6 -7 11
-16 11 -11 0 -14 6 -10 18 5 14 4 14 -9 -2 -8 -11 -15 -16 -15 -12 0 12 21 48
41 69 14 16 17 47 3 47 -13 0 -43 -47 -39 -61 3 -10 -1 -19 -10 -23 -9 -3 -14
-9 -11 -14 2 -4 1 -14 -4 -21 -9 -16 -30 -6 -30 15 0 8 -10 19 -22 24 -23 9
-23 9 -1 9 12 1 24 -5 27 -11 3 -9 9 -7 20 6 12 15 13 22 4 34 -10 12 -14 11
-24 -3 -11 -15 -13 -13 -12 15 1 17 4 26 8 20 5 -8 9 -5 12 7 7 27 -71 29 -90
2 -7 -11 -18 -17 -23 -14 -12 8 -11 1 3 -30 6 -14 16 -25 22 -25 6 0 6 -4 -1
-11 -15 -15 -36 -1 -29 18 4 9 -1 17 -14 20 -15 4 -19 11 -14 25 3 11 7 30 9
41 4 24 23 82 36 110 5 9 7 17 5 17 -2 0 -13 3 -23 7 -16 6 -17 5 -3 -12 13
-16 13 -18 0 -13 -10 3 -24 -11 -42 -41 -15 -25 -28 -43 -28 -39 0 12 34 83
44 89 5 4 6 13 3 20 -2 8 4 29 15 47 17 28 18 35 6 50 -12 16 -11 16 7 2 11
-8 27 -22 35 -30 8 -9 12 -11 8 -6 -12 16 -9 45 8 79 9 18 20 34 23 37 14 11
31 62 25 72 -4 7 -2 8 4 4 13 -8 36 40 28 58 -3 6 -8 1 -11 -11 -6 -19 -25
-33 -25 -19 0 12 31 56 64 93 21 23 37 45 36 48 0 4 25 20 57 36 66 33 99 76
101 129 1 38 30 110 44 110 6 0 22 -14 36 -31z m-416 -161 c-8 -8 -9 -4 -5 13
4 13 8 18 11 10 2 -7 -1 -18 -6 -23z m614 -119 c1 -25 -1 -28 -8 -15 -5 10 -7
24 -4 32 8 21 11 17 12 -17z m-616 -4 c0 -8 -4 -15 -10 -15 -5 0 -10 7 -10 15
0 8 5 15 10 15 6 0 10 -7 10 -15z m707 -177 c-3 -8 -6 -5 -6 6 -1 11 2 17 5
13 3 -3 4 -12 1 -19z m-17 -9 c0 -6 -4 -7 -10 -4 -5 3 -10 11 -10 16 0 6 5 7
10 4 6 -3 10 -11 10 -16z m96 -157 c-11 -10 -14 3 -8 33 l7 30 3 -28 c2 -16 1
-31 -2 -35z m84 -136 c0 -8 -5 -18 -11 -21 -6 -4 -8 -13 -5 -21 3 -8 1 -14 -4
-14 -6 0 -10 9 -10 20 0 11 5 20 11 20 6 0 9 7 5 15 -3 8 -1 15 4 15 6 0 10
-6 10 -14z m-1051 -141 c8 0 16 -5 18 -12 3 -8 -4 -9 -23 -4 -15 4 -30 13 -32
20 -3 10 0 11 9 5 8 -5 20 -9 28 -9z m245 -21 c20 -8 11 -24 -15 -24 -19 0
-25 11 -12 23 8 8 8 8 27 1z m-214 -29 c0 -8 -4 -15 -10 -15 -5 0 -10 7 -10
15 0 8 5 15 10 15 6 0 10 -7 10 -15z m-26 -11 c4 -10 12 -14 22 -10 20 8 54
-11 54 -29 0 -8 4 -15 8 -15 5 0 34 -24 64 -52 31 -29 76 -65 100 -79 35 -21
45 -34 57 -72 7 -26 17 -47 22 -47 12 0 11 -37 -1 -45 -5 -3 -10 -27 -10 -51
0 -25 -4 -44 -9 -42 -5 2 -24 23 -43 48 -24 30 -41 44 -54 42 -61 -10 -82 -5
-126 31 -25 20 -50 37 -55 37 -12 0 -26 30 -18 38 3 3 5 -1 5 -8 0 -9 8 -5 21
9 23 24 19 42 -5 22 -19 -16 -32 4 -16 24 10 12 10 19 -1 32 -13 15 -12 15 8
2 20 -12 21 -15 8 -29 -22 -25 -18 -36 5 -15 15 13 20 14 20 5 0 -10 3 -11 10
-4 15 15 -51 86 -69 75 -7 -5 -10 -14 -7 -20 4 -6 2 -11 -3 -11 -6 0 -11 6
-11 13 0 8 -3 8 -8 1 -14 -20 -42 -25 -42 -6 0 15 -2 15 -10 2 -6 -9 -10 -10
-10 -3 0 21 12 43 21 37 5 -3 9 4 9 15 0 12 5 21 11 21 5 0 8 4 5 8 -2 4 9 18
25 31 28 23 29 25 13 42 -10 11 -12 19 -7 19 6 0 14 -7 17 -16z m326 -34 c5 0
7 8 4 18 -5 15 -4 15 6 -1 13 -21 -1 -49 -47 -92 -27 -24 -73 -35 -73 -16 0
15 31 42 40 36 5 -3 11 -1 15 5 3 5 1 10 -4 10 -6 0 -11 9 -11 21 0 12 4 17
11 14 6 -4 18 3 27 16 14 21 17 22 20 7 2 -10 7 -18 12 -18z m580 -7 c-11 -17
-11 -17 -6 0 3 10 6 24 7 30 0 9 2 9 5 0 3 -7 0 -20 -6 -30z m331 14 c-10 -9
-11 -8 -5 6 3 10 9 15 12 12 3 -3 0 -11 -7 -18z m42 -42 c-3 -9 -8 -14 -10
-11 -3 3 -2 9 2 15 9 16 15 13 8 -4z m-478 -15 c4 -6 11 -7 17 -4 8 5 9 1 5
-12 -7 -18 -6 -18 7 -1 7 9 22 16 32 16 16 -1 16 -2 2 -6 -21 -6 -32 -34 -16
-44 7 -4 10 -10 7 -13 -3 -3 -21 5 -39 19 -19 14 -39 25 -46 25 -7 0 -15 4
-18 9 -3 4 7 6 22 4 21 -4 24 -2 12 6 -9 7 -10 11 -3 11 6 0 15 -5 18 -10z
m158 -21 c17 -8 23 -17 20 -30 -3 -10 -9 -16 -14 -13 -5 3 -9 1 -9 -5 0 -5
-13 -8 -30 -6 -27 3 -30 0 -38 -38 -9 -39 -10 -40 -11 -10 -1 17 -4 38 -7 47
-4 10 1 18 12 23 11 4 25 15 32 25 15 21 14 21 45 7z m64 -30 c-10 -6 -14 -15
-10 -22 4 -7 -1 -5 -11 3 -17 13 -17 14 1 21 27 11 40 10 20 -2z m-260 -12
c-3 -8 3 -13 14 -13 11 0 17 5 15 13 -3 7 1 10 9 6 8 -3 13 -8 10 -12 -2 -4 5
-14 16 -21 18 -14 28 -47 10 -36 -5 3 -11 -3 -14 -14 -4 -15 -13 -20 -39 -19
l-33 0 24 17 23 16 -33 11 c-39 13 -46 27 -24 49 20 19 29 21 22 3z m83 -117
c0 -5 -5 -10 -11 -10 -5 0 -7 5 -4 10 3 6 8 10 11 10 2 0 4 -4 4 -10z m-23
-52 c-3 -8 -6 -5 -6 6 -1 11 2 17 5 13 3 -3 4 -12 1 -19z m-757 -15 c0 -10 -7
-26 -14 -36 -13 -17 -15 -17 -31 0 -17 16 -16 18 5 35 28 23 40 23 40 1z m694
-3 c-7 -7 -19 -7 -35 -1 -23 9 -22 10 11 10 23 1 31 -2 24 -9z m-407 -167 c-2
-16 -4 -3 -4 27 0 30 2 43 4 28 2 -16 2 -40 0 -55z m33 -427 c-6 -16 -17 -26
-30 -26 -30 0 -28 52 3 65 29 13 41 -4 27 -39z m-200 -525 c0 -5 -9 -7 -20 -4
-11 3 -20 7 -20 9 0 2 9 4 20 4 11 0 20 -4 20 -9z m43 -11 c-5 -18 -14 -20
-84 -20 -44 0 -79 4 -79 9 0 11 25 21 48 20 14 0 13 -2 -3 -8 -13 -6 1 -8 42
-8 42 0 64 4 67 14 8 20 15 15 9 -7z m-188 -10 c3 -5 2 -10 -4 -10 -5 0 -13 5
-16 10 -3 6 -2 10 4 10 5 0 13 -4 16 -10z m678 -15 c4 -8 2 -17 -3 -20 -6 -4
-10 3 -10 14 0 25 6 27 13 6z m112 -25 c-16 -7 -12 -9 18 -9 22 -1 46 -8 55
-18 16 -16 16 -16 -3 -9 -11 4 -56 12 -100 19 -60 8 -74 13 -55 18 14 4 43 7
65 7 31 1 35 -1 20 -8z m285 -100 c0 -5 -4 -10 -9 -10 -6 0 -13 5 -16 10 -3 6
1 10 9 10 9 0 16 -4 16 -10z m-135 -435 c22 -2 45 -18 45 -31 0 -8 6 -14 13
-15 6 0 2 -4 -11 -10 -17 -6 -32 -4 -54 7 -49 26 -58 37 -39 50 9 7 20 9 26 6
5 -4 15 -7 20 -7z m210 -265 c11 -10 27 -20 35 -23 13 -5 12 -6 -1 -6 -9 -1
-29 9 -44 21 -20 15 -30 18 -33 10 -6 -18 -18 -14 -18 7 0 22 30 18 61 -9z
m-15 -35 c16 -19 0 -19 -26 0 -16 12 -16 14 -3 15 9 0 22 -7 29 -15z m705
-715 c3 -5 25 -10 47 -10 23 0 38 -3 35 -7 -13 -12 -122 -2 -137 13 -12 12
-10 14 17 14 18 0 35 -4 38 -10z"/>
<path d="M6958 5813 c7 -3 16 -2 19 1 4 3 -2 6 -13 5 -11 0 -14 -3 -6 -6z"/>
<path d="M7010 5780 c0 -5 7 -10 16 -10 8 0 12 5 9 10 -3 6 -10 10 -16 10 -5
0 -9 -4 -9 -10z"/>
<path d="M7139 5776 c13 -5 29 -5 42 0 17 8 13 9 -21 9 -34 0 -38 -1 -21 -9z"/>
<path d="M7065 5759 l-30 -7 35 -1 c19 0 42 4 50 9 12 7 11 9 -5 7 -11 -1 -33
-4 -50 -8z"/>
<path d="M7013 5653 c-15 -5 -17 -23 -4 -23 5 0 11 7 15 15 3 8 4 15 3 14 -1
0 -8 -3 -14 -6z"/>
<path d="M6830 5350 c0 -5 5 -10 10 -10 6 0 10 5 10 10 0 6 -4 10 -10 10 -5 0
-10 -4 -10 -10z"/>
<path d="M6792 5318 c-7 -7 -12 -16 -12 -22 0 -5 -7 -17 -15 -26 -14 -15 -14
-18 -1 -23 11 -4 13 -1 9 10 -4 11 -2 14 8 11 17 -6 34 10 43 40 8 25 -11 31
-32 10z"/>
<path d="M7692 3441 c-11 -6 -10 -10 4 -15 9 -3 19 -4 22 -1 3 3 0 5 -7 5 -7
0 -9 5 -6 10 7 12 4 12 -13 1z"/>
<path d="M5265 6826 c-85 -27 -173 -97 -155 -125 6 -11 11 -8 24 10 8 14 39
39 68 56 85 51 175 56 228 12 14 -11 18 -18 10 -14 -12 5 -11 3 1 -7 9 -7 19
-29 23 -48 l6 -35 -14 30 c-35 74 -121 106 -196 71 -19 -9 -24 -12 -10 -8 43
12 109 8 126 -10 15 -15 14 -17 -14 -32 -17 -9 -32 -21 -35 -28 -3 -8 -6 -6
-6 5 -1 21 -46 24 -54 3 -9 -22 -45 -26 -69 -6 -20 16 -21 20 -8 35 14 17 13
17 -7 6 -12 -6 -36 -31 -53 -56 -33 -47 -64 -75 -35 -31 13 20 15 30 7 38 -8
8 -14 3 -22 -18 -12 -31 -5 -110 11 -119 5 -4 9 -18 8 -33 -1 -27 -1 -27 -12
5 -19 50 -27 50 -12 -1 8 -25 11 -46 8 -46 -3 0 11 -13 32 -30 50 -40 98 -48
155 -26 25 10 53 18 62 19 9 1 15 3 13 6 -8 7 17 31 26 25 5 -3 9 0 9 6 0 6 4
9 9 5 11 -6 42 35 35 46 -3 5 4 17 15 28 24 24 45 121 37 167 -9 46 -50 91
-94 104 -46 13 -67 12 -117 -4z m45 -125 c0 -5 -7 -14 -15 -21 -13 -10 -15 -9
-15 9 0 12 6 21 15 21 8 0 15 -4 15 -9z m-39 -80 c-8 -5 -20 -7 -28 -4 -21 8
-15 13 15 13 20 0 23 -3 13 -9z m9 -25 c0 -2 -15 -6 -34 -8 -19 -2 -32 0 -30
4 5 8 64 12 64 4z m30 -70 c0 -2 -7 -7 -16 -10 -8 -3 -12 -2 -9 4 6 10 25 14
25 6z m100 -17 c-7 -11 -14 -18 -17 -15 -3 3 0 12 7 21 18 21 23 19 10 -6z
m-217 -16 c-7 -2 -19 -2 -25 0 -7 3 -2 5 12 5 14 0 19 -2 13 -5z"/>
<path d="M6710 6710 c0 -5 5 -10 10 -10 6 0 10 5 10 10 0 6 -4 10 -10 10 -5 0
-10 -4 -10 -10z"/>
<path d="M2830 6658 c-7 -13 -25 -34 -41 -48 -29 -26 -50 -80 -30 -80 6 0 11
-6 11 -12 0 -7 -16 4 -35 24 -40 43 -52 29 -19 -23 13 -20 21 -39 18 -41 -2
-3 2 -11 11 -18 8 -7 15 -16 15 -21 0 -4 19 -27 43 -49 25 -25 33 -37 20 -30
-13 6 -23 16 -23 22 0 6 -3 8 -7 5 -7 -8 -43 21 -43 35 0 5 -10 19 -21 31
l-21 22 7 -25 c15 -58 29 -78 89 -125 59 -47 146 -152 146 -176 0 -5 5 -7 10
-4 21 13 13 30 -41 94 -16 18 -20 81 -6 81 7 0 6 4 -2 9 -12 8 -9 12 15 23 16
7 46 31 67 53 21 22 42 39 46 38 5 -1 17 7 27 19 11 12 13 18 7 14 -15 -8 -18
10 -3 19 10 6 -5 51 -23 70 -7 7 -7 6 -3 -2 12 -22 -23 -15 -42 8 -61 73 -106
107 -117 89 -5 -8 -13 -6 -25 5 -17 16 -19 15 -30 -7z"/>
<path d="M7220 6661 c0 -6 6 -11 13 -11 8 0 7 -4 -3 -10 -9 -6 -10 -10 -3 -10
19 0 24 17 8 30 -10 9 -15 9 -15 1z"/>
<path d="M7190 6640 c-9 -6 -10 -10 -3 -10 6 0 15 5 18 10 8 12 4 12 -15 0z"/>
<path d="M7028 6613 c6 -2 18 -2 25 0 6 3 1 5 -13 5 -14 0 -19 -2 -12 -5z"/>
<path d="M3591 6538 c-11 -30 -4 -40 20 -28 21 12 21 12 13 34 -9 23 -23 20
-33 -6z"/>
<path d="M2400 6500 c0 -5 5 -10 11 -10 5 0 7 5 4 10 -3 6 -8 10 -11 10 -2 0
-4 -4 -4 -10z"/>
<path d="M5076 6437 c9 -24 41 -41 41 -21 0 7 -3 12 -5 9 -3 -3 -14 3 -24 12
-18 16 -18 16 -12 0z"/>
<path d="M3386 6423 c-33 -9 -45 -17 -37 -23 8 -4 11 -17 7 -31 -3 -13 -3 -18
0 -11 3 6 9 10 14 7 5 -3 17 6 28 20 11 14 24 25 30 25 5 0 15 7 22 15 16 19
3 19 -64 -2z"/>
<path d="M5218 6393 c7 -3 16 -2 19 1 4 3 -2 6 -13 5 -11 0 -14 -3 -6 -6z"/>
<path d="M8490 6336 c0 -9 20 -16 66 -21 36 -4 68 -5 70 -2 4 4 -113 37 -131
37 -3 0 -5 -6 -5 -14z"/>
<path d="M2768 6313 c24 -34 63 -66 70 -58 5 5 -39 50 -73 75 -17 13 -16 11 3
-17z"/>
<path d="M8866 6315 c-9 -26 -7 -32 5 -12 6 10 9 21 6 23 -2 3 -7 -2 -11 -11z"/>
<path d="M2876 6197 c3 -10 9 -15 12 -12 3 3 0 11 -7 18 -10 9 -11 8 -5 -6z"/>
<path d="M2910 6141 c0 -6 4 -13 10 -16 6 -3 7 1 4 9 -7 18 -14 21 -14 7z"/>
<path d="M2974 6113 c2 -10 10 -50 17 -90 7 -43 16 -70 22 -66 6 3 7 2 4 -4
-4 -6 0 -19 8 -29 8 -10 15 -23 15 -28 0 -16 -69 78 -73 99 -3 16 -5 15 -6 -5
0 -14 10 -45 24 -70 14 -25 28 -53 32 -62 3 -10 10 -18 15 -18 5 0 7 -3 5 -7
-8 -12 46 -13 60 -1 7 6 10 14 7 19 -5 8 5 10 59 13 6 0 26 10 43 23 17 12 44
25 60 29 16 3 39 13 52 21 l23 14 -25 20 c-14 11 -26 26 -26 33 0 7 -10 21
-21 32 -12 10 -25 29 -30 42 -5 12 -12 22 -17 22 -5 0 -14 -10 -19 -22 l-11
-23 -6 25 c-9 32 -37 51 -65 43 -15 -4 -20 -11 -16 -23 4 -13 -3 -21 -25 -30
-21 -9 -27 -16 -21 -24 6 -7 3 -19 -9 -34 l-18 -22 -22 70 c-12 38 -26 70 -32
70 -5 0 -7 -8 -4 -17z"/>
<path d="M2428 5983 c7 -3 16 -2 19 1 4 3 -2 6 -13 5 -11 0 -14 -3 -6 -6z"/>
<path d="M6454 5918 c-41 -45 -49 -59 -30 -52 9 3 16 10 16 16 0 5 12 20 26
35 14 14 23 27 21 29 -2 2 -17 -11 -33 -28z"/>
<path d="M2990 5860 c0 -5 5 -10 10 -10 6 0 10 5 10 10 0 6 -4 10 -10 10 -5 0
-10 -4 -10 -10z"/>
<path d="M6607 5785 c-18 -25 -18 -25 7 -25 13 0 26 -6 29 -12 2 -8 8 -9 13
-4 5 5 4 11 -3 13 -7 3 -13 16 -13 29 0 30 -10 30 -33 -1z"/>
<path d="M6722 5760 c0 -14 2 -19 5 -12 2 6 2 18 0 25 -3 6 -5 1 -5 -13z"/>
<path d="M6567 5723 c-4 -3 -7 -11 -7 -17 0 -6 5 -5 12 2 6 6 9 14 7 17 -3 3
-9 2 -12 -2z"/>
<path d="M6610 5690 c0 -5 5 -10 11 -10 5 0 7 5 4 10 -3 6 -8 10 -11 10 -2 0
-4 -4 -4 -10z"/>
<path d="M3575 5628 c-11 -6 -23 -16 -27 -22 -4 -6 -34 -11 -68 -10 -33 1 -60
-1 -60 -3 0 -2 14 -9 30 -15 22 -7 33 -18 37 -39 9 -49 24 -53 110 -34 118 25
120 26 100 37 -10 5 -17 14 -17 21 0 7 4 6 10 -3 9 -13 10 -13 10 0 1 9 6 5
15 -10 8 -14 14 -20 15 -13 0 6 3 18 6 27 5 14 -6 16 -79 16 -47 0 -88 4 -92
9 -3 5 5 11 17 13 13 2 24 11 26 21 4 20 -5 21 -33 5z"/>
<path d="M3920 5610 c0 -5 7 -7 15 -4 8 4 15 8 15 10 0 2 -7 4 -15 4 -8 0 -15
-4 -15 -10z"/>
<path d="M6612 5588 c-7 -7 -12 -21 -12 -32 0 -17 3 -16 15 8 17 32 15 42 -3
24z"/>
<path d="M6418 5555 c-26 -34 -22 -40 7 -11 26 26 31 36 18 36 -5 0 -16 -11
-25 -25z"/>
<path d="M3750 5560 c0 -6 7 -10 15 -10 8 0 15 2 15 4 0 2 -7 6 -15 10 -8 3
-15 1 -15 -4z"/>
<path d="M3315 5543 c-18 -14 -18 -15 -2 -9 10 3 23 6 28 6 5 0 9 5 9 10 0 14
-12 12 -35 -7z"/>
<path d="M6568 5537 c-3 -19 -2 -25 4 -19 6 6 8 18 6 28 -3 14 -5 12 -10 -9z"/>
<path d="M6520 5509 c0 -5 5 -7 10 -4 6 3 10 8 10 11 0 2 -4 4 -10 4 -5 0 -10
-5 -10 -11z"/>
<path d="M8640 5332 c-66 -26 -297 -105 -434 -148 -109 -34 -120 -36 -131 -21
-13 18 -30 24 -20 7 3 -5 1 -10 -4 -10 -6 0 -11 -5 -11 -11 0 -6 7 -9 15 -5 8
3 15 1 15 -5 0 -6 -8 -9 -17 -7 -13 3 -17 12 -15 30 1 15 -3 30 -9 34 -9 5
-10 2 -6 -9 3 -10 2 -17 -3 -17 -6 0 -10 -9 -10 -21 0 -13 11 -25 35 -35 36
-15 44 -29 23 -37 -8 -3 -6 -6 5 -6 9 -1 17 -7 17 -14 0 -7 14 -35 30 -61 30
-47 30 -47 11 -74 -21 -30 -102 -194 -98 -198 4 -4 121 192 151 252 33 67 84
108 166 135 36 12 116 40 179 62 102 36 112 41 90 50 l-24 10 23 4 c12 3 20 9
17 14 -4 5 -2 9 3 9 21 0 21 31 0 39 l-22 8 22 5 c12 4 20 2 16 -3 -3 -5 2 -9
10 -9 9 0 16 -4 16 -10 0 -5 5 -10 11 -10 6 0 8 9 4 20 -4 11 -2 20 4 20 6 0
11 -5 11 -11 0 -5 5 -7 10 -4 6 3 10 11 10 16 0 6 -4 7 -10 4 -5 -3 -10 1 -10
9 0 20 -14 20 -70 -2z m10 -46 c0 -11 -19 -15 -25 -6 -3 5 1 10 9 10 9 0 16
-2 16 -4z"/>
<path d="M7720 5304 c0 -8 5 -12 10 -9 6 4 8 11 5 16 -9 14 -15 11 -15 -7z"/>
<path d="M8076 5201 c-10 -16 7 -20 44 -11 22 5 27 8 13 9 -12 1 -28 4 -36 7
-8 3 -18 1 -21 -5z"/>
<path d="M7980 5165 c0 -8 4 -15 10 -15 5 0 7 7 4 15 -4 8 -8 15 -10 15 -2 0
-4 -7 -4 -15z"/>
<path d="M8008 5078 c9 -9 15 -9 24 0 9 9 7 12 -12 12 -19 0 -21 -3 -12 -12z"/>
<path d="M6500 4970 c0 -5 5 -10 10 -10 6 0 10 5 10 10 0 6 -4 10 -10 10 -5 0
-10 -4 -10 -10z"/>
<path d="M4658 4825 c4 -22 7 -71 6 -110 0 -62 -5 -80 -41 -150 -87 -171 -110
-246 -99 -333 5 -38 14 -53 44 -80 20 -18 51 -40 68 -48 29 -14 32 -19 30 -60
0 -24 2 -44 6 -44 4 0 6 -8 6 -17 -2 -31 11 -92 27 -130 16 -38 20 -74 8 -72
-5 1 -11 0 -15 -1 -13 -4 -28 -7 -40 -9 -8 -1 -6 -6 5 -12 9 -5 17 -20 17 -32
-1 -21 -2 -20 -25 8 -14 17 -23 37 -19 45 3 8 2 11 -2 7 -10 -10 -36 31 -28
45 4 6 3 8 -3 5 -5 -3 -17 8 -27 24 -10 17 -20 28 -22 26 -5 -4 26 -77 36 -87
3 -3 19 -32 36 -66 20 -40 28 -67 23 -80 -6 -17 -8 -17 -14 -2 -6 16 -8 16
-28 -2 -11 -11 -27 -20 -34 -20 -7 0 -13 -5 -13 -10 0 -15 -58 -73 -78 -78 -9
-2 -25 -4 -34 -5 -10 -1 -18 -5 -18 -9 0 -4 -9 -8 -19 -8 -32 0 -13 -33 30
-54 28 -12 38 -23 35 -33 -5 -12 1 -13 27 -9 23 4 27 4 12 -3 -21 -9 -16 -10
75 -24 17 -3 13 -5 -12 -6 -33 -1 -90 17 -248 78 -30 11 -63 21 -73 21 -13 0
-17 5 -13 16 3 8 2 13 -3 10 -5 -3 -47 -8 -93 -10 -45 -2 -113 -9 -150 -16
-71 -13 -83 -26 -53 -56 16 -17 21 -39 6 -29 -5 3 -12 2 -15 -3 -2 -4 -19 -9
-37 -10 -18 -2 -41 -11 -51 -22 -31 -33 -21 -114 15 -125 l22 -6 -22 -11 c-13
-6 -23 -18 -23 -26 0 -17 -61 -73 -72 -66 -4 3 -8 0 -8 -5 0 -6 15 -11 33 -11
24 0 28 -3 17 -10 -13 -8 -13 -10 2 -10 9 0 20 5 23 10 3 6 11 10 16 10 13 0
-11 -25 -31 -33 -11 -4 -9 -6 5 -6 17 -1 17 -3 5 -11 -10 -6 -11 -10 -2 -10 6
0 12 -4 12 -10 0 -5 -7 -10 -16 -10 -14 0 -14 -2 0 -15 8 -8 19 -15 24 -15 5
0 9 -7 9 -15 0 -8 -4 -15 -8 -15 -4 0 -9 -6 -12 -12 -3 -10 7 -12 40 -9 25 2
49 -1 55 -7 6 -6 -1 -9 -19 -10 -15 0 -113 -6 -218 -14 -120 -9 -212 -11 -250
-5 -55 8 -159 17 -370 32 -103 7 -168 12 -177 14 -5 0 -8 22 -8 49 -1 59 -15
38 -23 -35 -8 -73 -52 -160 -85 -168 -21 -5 -23 -8 -11 -16 10 -8 7 -9 -13 -5
-14 3 -37 2 -50 -3 -21 -9 -21 -10 -3 -11 l20 -1 -20 -10 -20 -9 20 3 c11 2
19 9 17 16 -2 9 3 11 13 7 9 -3 22 -6 28 -6 21 0 -38 -27 -73 -33 -19 -3 -46
-9 -60 -12 -21 -5 -20 -4 5 8 21 9 25 15 15 19 -22 8 -851 -9 -1095 -22 -115
-6 -370 -23 -565 -37 -335 -23 -839 -43 -887 -35 -23 4 -24 3 13 89 16 36 19
87 4 78 -6 -3 -10 4 -10 17 -1 34 -33 99 -69 136 -17 17 -33 32 -36 32 -3 0
-5 -679 -5 -1510 l0 -1510 2414 0 2415 0 6 58 c4 31 16 109 27 172 46 268 58
369 67 576 6 120 16 318 22 440 10 179 10 252 -1 381 -16 192 -11 263 30 405
28 99 30 116 24 208 -4 54 -10 97 -14 95 -5 -3 -57 0 -116 5 -135 12 -340 32
-374 36 -14 2 -92 10 -175 18 -82 8 -211 22 -285 32 -74 9 -165 17 -202 18
-36 1 -64 4 -61 9 2 4 -17 7 -42 7 -26 0 -101 6 -168 14 -67 8 -176 19 -242
25 -178 16 -198 18 -350 36 -77 8 -207 22 -290 30 -137 14 -279 29 -520 55
-49 6 -137 13 -195 17 -163 11 -72 20 285 28 343 8 426 18 521 65 34 16 68 30
76 30 8 0 22 8 31 18 15 16 31 18 144 16 145 -4 166 -6 174 -17 3 -4 14 -8 25
-8 10 0 226 2 479 5 435 5 464 4 524 -15 35 -10 80 -19 101 -19 22 0 41 -4 44
-8 3 -5 22 -9 43 -10 21 -1 54 -5 73 -8 19 -3 107 -10 195 -15 223 -12 217
-10 245 -67 32 -61 32 -88 3 -121 -21 -21 -22 -27 -9 -29 9 -2 16 -12 16 -23
0 -12 9 -21 25 -25 21 -5 25 -12 26 -43 l1 -36 10 35 c7 22 8 91 3 190 -4 85
-7 182 -6 215 2 77 73 391 118 520 50 144 166 407 215 489 32 52 49 97 65 170
13 55 30 108 40 118 14 15 32 18 130 18 62 0 113 -3 113 -8 0 -4 18 -6 41 -4
l41 4 -4 -56 -3 -56 43 0 c27 0 42 4 42 13 0 6 11 22 24 35 25 23 42 30 31 12
-3 -5 1 -10 10 -10 9 0 13 5 10 11 -11 17 29 6 45 -14 14 -16 15 -13 18 40 3
81 13 115 38 140 10 10 13 9 17 -5 2 -9 17 26 34 78 28 89 32 96 64 107 24 8
28 12 13 12 -34 1 -84 -20 -94 -39 -6 -10 -10 -34 -10 -53 0 -42 -15 -56 -58
-55 -23 1 -32 6 -32 18 0 9 -7 25 -15 36 -8 10 -15 26 -15 35 0 26 -77 57
-131 53 -46 -2 -47 -1 -78 46 -19 29 -29 55 -25 65 7 18 124 80 193 101 25 8
82 17 126 21 l80 7 -70 8 c-72 8 -234 -5 -315 -24 -55 -13 -137 -53 -169 -82
-13 -11 -20 -14 -16 -6 8 13 6 13 -8 1 -9 -7 -15 -17 -12 -21 6 -10 -33 -45
-41 -37 -9 9 -44 -11 -44 -24 0 -6 7 -9 15 -5 22 8 19 3 -17 -30 -18 -16 -24
-19 -14 -6 19 22 17 40 -3 28 -26 -17 -128 -167 -154 -230 -32 -74 -41 -168
-24 -230 7 -26 6 -28 -7 -17 -13 11 -24 11 -62 0 -25 -8 -54 -22 -64 -31 -11
-10 -23 -18 -29 -18 -5 0 -12 -6 -14 -12 -4 -10 -6 -10 -6 0 -2 21 -65 72 -74
59 -5 -7 -6 -4 -3 8 6 23 -9 53 -21 41 -4 -5 -2 -11 4 -13 10 -4 9 -8 -1 -19
-18 -17 -32 -19 -18 -1 7 8 6 22 -3 45 -15 34 -42 43 -52 15 -4 -11 -13 6 -24
48 -21 73 -23 91 -9 69 16 -24 12 19 -5 55 l-14 30 4 -30 c4 -28 4 -28 -7 4
-9 27 -9 36 0 39 14 4 16 52 2 52 -5 0 -10 -10 -11 -22 -1 -16 -4 -12 -9 11
-5 20 -4 45 1 59 7 18 6 28 -2 33 -6 3 -12 24 -13 45 0 22 -5 42 -10 46 -5 3
-10 22 -10 41 -1 19 -6 41 -12 48 -11 13 -24 55 -29 89 -4 24 -42 153 -54 180
-9 21 -9 19 -3 -15z m1220 -506 c-39 -21 -55 -19 -66 6 -19 42 -14 46 33 23
29 -14 41 -25 33 -29z m111 -78 c12 -8 12 -14 1 -40 -13 -32 -56 -81 -71 -81
-15 0 -10 26 9 51 11 13 22 36 26 52 7 29 13 32 35 18z m-1393 -62 c4 -7 21
-9 43 -5 26 4 32 3 21 -5 -11 -7 -6 -8 18 -4 35 7 55 -3 74 -38 8 -15 7 -18
-4 -11 -7 5 -17 9 -23 10 -5 1 -30 9 -54 18 -24 9 -51 16 -61 16 -10 0 -23 7
-30 15 -8 9 -9 15 -2 15 6 0 14 -5 18 -11z m41 5 c-3 -3 -12 -4 -19 -1 -8 3
-5 6 6 6 11 1 17 -2 13 -5z m1258 -74 c-9 -15 -45 -32 -45 -22 0 5 10 14 23
20 29 14 29 14 22 2z m43 -15 c-4 -11 -38 -15 -38 -4 0 8 21 18 33 15 5 -1 7
-6 5 -11z m-95 -42 c-3 -7 -6 -13 -8 -13 -2 0 -5 6 -8 13 -3 8 1 14 8 14 7 0
11 -6 8 -14z m-18 -23 c3 -5 2 -10 -4 -10 -5 0 -13 5 -16 10 -3 6 -2 10 4 10
5 0 13 -4 16 -10z m-1115 -280 c0 -5 -4 -10 -10 -10 -5 0 -10 5 -10 10 0 6 5
10 10 10 6 0 10 -4 10 -10z m-7 -87 c-3 -7 -6 -13 -8 -13 -2 0 -5 6 -8 13 -3
8 1 14 8 14 7 0 11 -6 8 -14z m-218 -143 c-3 -5 -12 -10 -18 -10 -7 0 -6 4 3
10 19 12 23 12 15 0z m-295 -267 c0 -3 -7 -3 -15 1 -8 3 -15 1 -15 -4 0 -10
15 -14 34 -11 17 3 46 -11 41 -20 -4 -5 2 -9 12 -10 34 -1 78 -7 148 -18 39
-7 86 -10 105 -7 33 5 40 0 138 -95 57 -55 102 -102 100 -105 -3 -2 -119 -6
-259 -8 -140 -3 -309 -8 -376 -12 -93 -5 -123 -4 -123 5 0 7 5 9 10 6 6 -3 10
-1 10 5 0 6 6 10 13 9 38 -5 47 1 37 25 -5 13 -6 26 -3 29 3 4 -6 9 -21 13
-31 7 -35 39 -7 47 10 2 27 21 36 41 10 20 22 33 28 29 6 -4 8 2 4 16 -4 18
-2 21 14 16 10 -4 19 -2 19 3 0 20 41 61 55 55 8 -3 15 -7 15 -10z m-1557
-500 c-7 -2 -19 -2 -25 0 -7 3 -2 5 12 5 14 0 19 -2 13 -5z m-390 -10 c-7 -2
-21 -2 -30 0 -10 3 -4 5 12 5 17 0 24 -2 18 -5z m44 1 c-3 -3 -12 -4 -19 -1
-8 3 -5 6 6 6 11 1 17 -2 13 -5z m111 -1 c-16 -2 -40 -2 -55 0 -16 2 -3 4 27
4 30 0 43 -2 28 -4z m319 -9 c-3 -3 -12 -4 -19 -1 -8 3 -5 6 6 6 11 1 17 -2
13 -5z m-1284 -21 c-7 -2 -19 -2 -25 0 -7 3 -2 5 12 5 14 0 19 -2 13 -5z m-78
-8 c-5 -2 -53 -5 -105 -8 -52 -2 -84 -1 -70 4 24 7 196 11 175 4z m1168 -2
c-7 -2 -19 -2 -25 0 -7 3 -2 5 12 5 14 0 19 -2 13 -5z m-1489 -18 c-4 -10 -13
-13 -27 -9 -25 8 -234 -6 -219 -15 5 -3 -44 -6 -109 -6 -65 -1 -119 3 -119 7
0 4 35 8 78 9 42 0 142 6 222 13 80 7 153 14 162 15 12 1 15 -4 12 -14z m79 8
c-7 -2 -19 -2 -25 0 -7 3 -2 5 12 5 14 0 19 -2 13 -5z m-1053 -35 c0 -5 -7 -8
-15 -8 -17 0 -18 2 -9 25 5 13 8 14 15 3 5 -7 9 -16 9 -20z m438 -5 c-32 -2
-86 -2 -120 0 -35 2 -9 3 57 3 66 0 94 -1 63 -3z"/>
<path d="M4167 3219 c7 -7 15 -10 18 -7 3 3 -2 9 -12 12 -14 6 -15 5 -6 -5z"/>
<path d="M1860 4660 c-11 -7 -9 -11 13 -19 16 -6 32 -11 36 -11 5 0 15 -9 22
-21 9 -13 20 -18 32 -14 27 11 21 21 -29 49 -52 29 -53 29 -74 16z"/>
<path d="M1860 4550 c0 -3 -51 -14 -112 -24 -62 -10 -117 -22 -123 -26 -5 -4
-21 -11 -35 -15 -42 -12 -120 -49 -120 -57 0 -5 -6 -8 -12 -8 -37 0 -308 -220
-308 -249 0 -6 -5 -11 -10 -11 -6 0 -14 -8 -17 -17 -4 -10 -15 -25 -24 -33
-15 -13 -34 -44 -77 -126 -5 -10 -15 -30 -20 -44 l-11 -25 0 28 c-1 15 -5 27
-10 27 -12 0 -22 -54 -10 -58 13 -5 11 -22 -11 -67 -10 -22 -16 -43 -14 -47 3
-4 0 -18 -6 -30 -11 -22 -10 -22 4 -4 14 17 16 18 16 3 0 -9 5 -17 11 -17 5 0
7 5 4 10 -3 6 -1 10 4 10 6 0 11 -20 11 -45 0 -45 0 -45 35 -45 19 0 35 -4 35
-10 0 -5 -4 -10 -8 -10 -5 0 -8 -15 -8 -34 1 -36 10 -36 19 -1 3 11 5 -10 6
-46 1 -46 6 -70 16 -79 8 -7 14 -20 14 -29 -1 -13 -2 -13 -6 2 -3 12 -11 16
-23 12 -16 -5 -17 0 -12 42 2 26 2 45 -2 42 -3 -3 -8 -32 -10 -63 -2 -41 0
-54 7 -47 15 15 27 14 27 -4 0 -31 25 -95 38 -95 10 0 10 -5 2 -20 -6 -11 -16
-17 -22 -14 -7 5 -9 2 -5 -8 7 -19 -11 -38 -37 -39 -18 -1 -17 -2 4 -9 14 -4
81 -31 150 -60 69 -28 158 -65 198 -81 103 -43 208 -66 342 -78 63 -5 142 -17
175 -25 122 -31 225 -33 435 -8 214 26 274 39 296 63 13 15 7 16 -76 13 -50
-2 -95 -6 -100 -9 -6 -3 -7 1 -4 9 3 9 16 16 29 16 12 0 33 9 47 19 14 11 46
25 71 32 28 7 47 17 47 25 0 8 4 14 8 14 5 0 10 25 11 56 3 67 19 67 -173 0
-130 -44 -243 -72 -254 -62 -3 3 4 6 16 6 12 0 22 4 22 9 0 5 3 17 6 26 6 14
1 16 -22 14 -29 -2 -45 2 -99 26 -103 46 -125 58 -131 66 -3 5 -17 9 -32 9
-21 0 -24 2 -12 10 14 9 7 15 -14 11 -4 -1 -14 6 -21 15 -8 11 -21 15 -38 12
-26 -5 -57 15 -44 29 4 3 -17 17 -45 30 -28 13 -58 31 -67 41 -9 10 -24 16
-33 14 -10 -2 -18 1 -18 7 0 5 -17 13 -37 16 -21 4 -47 10 -58 15 -17 7 -17 9
-2 9 9 1 17 6 17 11 0 10 -14 14 -37 11 -7 -1 -13 3 -13 9 0 5 -9 10 -19 10
-11 0 -23 5 -26 10 -3 6 -13 10 -21 10 -8 0 -14 -4 -14 -10 0 -5 7 -10 15 -10
17 0 18 -5 6 -28 -16 -30 21 -117 67 -163 23 -22 42 -47 42 -54 0 -7 15 -23
34 -34 19 -12 37 -28 40 -36 3 -8 12 -15 21 -15 18 0 20 -16 3 -24 -7 -3 -3
-3 10 0 15 4 22 1 22 -10 0 -11 -12 -15 -50 -14 -33 0 -48 4 -43 11 3 5 2 8
-3 5 -12 -8 -56 10 -50 20 2 4 -4 8 -14 9 -39 3 -180 175 -180 218 0 8 -4 15
-8 15 -4 0 -13 13 -19 30 -14 37 -42 50 -55 26 -6 -11 -16 -15 -29 -11 -13 5
-19 2 -19 -10 0 -15 -2 -15 -15 -1 -40 40 -60 108 -60 206 1 113 19 168 97
287 71 110 168 200 294 275 70 41 126 84 163 123 31 33 73 76 93 97 l38 37
-30 -2 c-16 -1 -30 -4 -30 -7z m-790 -737 c0 -17 -10 -16 -34 2 -19 14 -19 15
7 13 15 -1 27 -8 27 -15z m30 2 c0 -8 -4 -15 -10 -15 -5 0 -7 7 -4 15 4 8 8
15 10 15 2 0 4 -7 4 -15z m27 -272 c-2 -16 -4 -3 -4 27 0 30 2 43 4 28 2 -16
2 -40 0 -55z m473 22 c0 -8 -7 -15 -15 -15 -9 0 -12 6 -9 15 4 8 10 15 15 15
5 0 9 -7 9 -15z m-215 -25 c-3 -5 -10 -10 -16 -10 -5 0 -9 5 -9 10 0 6 7 10
16 10 8 0 12 -4 9 -10z m115 -236 c49 -42 87 -81 83 -87 -3 -5 -1 -7 5 -3 6 3
13 2 16 -3 8 -13 -114 -25 -178 -17 -63 7 -187 46 -211 66 -25 20 -75 102 -69
112 3 4 64 8 135 8 l130 0 89 -76z m254 -103 c4 -5 -3 -7 -14 -4 -23 6 -26 13
-6 13 8 0 17 -4 20 -9z m493 -17 c-3 -3 -12 -4 -19 -1 -8 3 -5 6 6 6 11 1 17
-2 13 -5z m-90 -10 c-3 -3 -12 -4 -19 -1 -8 3 -5 6 6 6 11 1 17 -2 13 -5z
m-84 -11 c-7 -2 -21 -2 -30 0 -10 3 -4 5 12 5 17 0 24 -2 18 -5z"/>
<path d="M5460 4505 c-7 -8 -8 -15 -2 -15 5 0 15 7 22 15 7 8 8 15 2 15 -5 0
-15 -7 -22 -15z"/>
<path d="M6162 4363 c-7 -32 -15 -68 -18 -80 -5 -17 -2 -23 9 -23 22 0 31 18
17 35 -9 11 -9 15 -1 15 6 0 11 7 11 15 0 8 7 15 15 15 19 0 19 -37 0 -70 -18
-32 -18 -100 0 -123 7 -11 11 -25 8 -33 -3 -8 1 -14 8 -14 20 0 48 -30 42 -46
-3 -9 2 -14 17 -14 20 0 21 -2 9 -17 -12 -14 -12 -16 2 -11 9 4 20 -1 27 -12
9 -15 8 -17 -9 -13 -10 3 -19 0 -19 -6 0 -6 10 -12 23 -12 17 -1 18 -2 4 -6
-23 -6 -17 -24 11 -34 21 -8 22 -5 24 44 2 76 2 77 16 86 8 5 13 37 15 97 l2
89 -34 3 -34 3 6 64 c3 48 1 69 -10 82 -8 10 -12 13 -9 7 4 -8 -12 -7 -52 2
-31 8 -59 14 -62 14 -4 0 -11 -26 -18 -57z m128 -29 c0 -6 -3 -26 -6 -43 l-6
-31 -30 28 c-16 16 -26 35 -23 43 6 17 65 20 65 3z"/>
<path d="M5983 4363 c-12 -2 -24 -11 -27 -18 -6 -16 15 -16 26 0 5 6 15 5 28
-3 20 -12 20 -11 10 8 -6 11 -12 19 -13 19 -1 -1 -12 -4 -24 -6z"/>
<path d="M5969 4296 c7 -8 19 -12 27 -9 18 7 10 16 -18 20 -17 3 -19 1 -9 -11z"/>
<path d="M6915 4290 c-3 -5 -1 -10 4 -10 6 0 11 5 11 10 0 6 -2 10 -4 10 -3 0
-8 -4 -11 -10z"/>
<path d="M6813 4283 c9 -2 25 -2 35 0 9 3 1 5 -18 5 -19 0 -27 -2 -17 -5z"/>
<path d="M6126 4225 c-12 -38 -14 -75 -5 -75 4 0 15 -7 23 -16 13 -12 16 -12
16 -2 0 8 -4 18 -9 24 -6 5 -11 29 -13 54 -3 44 -3 44 -12 15z"/>
<path d="M4851 4204 c0 -11 3 -14 6 -6 3 7 2 16 -1 19 -3 4 -6 -2 -5 -13z"/>
<path d="M4861 4144 c0 -11 3 -14 6 -6 3 7 2 16 -1 19 -3 4 -6 -2 -5 -13z"/>
<path d="M4630 4090 c0 -5 5 -10 11 -10 5 0 7 5 4 10 -3 6 -8 10 -11 10 -2 0
-4 -4 -4 -10z"/>
<path d="M6170 4077 c0 -27 17 -47 41 -47 9 0 24 -15 33 -34 19 -40 20 -46 6
-46 -5 0 -10 12 -11 28 0 15 -3 21 -6 15 -2 -7 -15 -13 -28 -13 -55 0 -74 -25
-25 -32 21 -3 34 0 40 11 8 14 9 14 10 -1 0 -13 8 -18 26 -18 24 0 25 2 19 32
-10 43 -26 68 -45 68 -11 0 -12 2 -2 8 9 7 8 13 -8 27 -19 18 -20 18 -20 -3 0
-12 -4 -22 -9 -22 -4 0 -6 11 -3 25 2 15 0 25 -7 25 -6 0 -11 -10 -11 -23z"/>
<path d="M8468 4063 c7 -3 16 -2 19 1 4 3 -2 6 -13 5 -11 0 -14 -3 -6 -6z"/>
<path d="M5850 4002 c0 -18 6 -22 34 -22 19 0 38 5 41 10 4 6 -6 10 -22 10
-16 0 -34 5 -41 12 -9 9 -12 7 -12 -10z"/>
<path d="M5999 4013 c-1 -4 -1 -11 0 -15 0 -5 -6 -8 -15 -8 -8 0 -12 5 -9 10
3 6 2 10 -3 10 -9 0 -26 -30 -20 -35 2 -1 42 -5 91 -9 l87 -6 0 24 c0 27 -15
42 -25 26 -3 -5 -11 -10 -16 -10 -6 0 -8 3 -6 8 3 4 -15 8 -39 10 -24 1 -45
-1 -45 -5z"/>
<path d="M6421 4004 c0 -11 3 -14 6 -6 3 7 2 16 -1 19 -3 4 -6 -2 -5 -13z"/>
<path d="M4510 3979 c0 -17 33 -83 37 -73 2 7 -5 27 -16 45 -12 19 -21 31 -21
28z"/>
<path d="M1903 3584 c-21 -32 -8 -58 31 -62 34 -4 56 13 56 44 0 46 -60 58
-87 18z m57 -3 c0 -5 -9 -7 -20 -4 -11 3 -20 7 -20 9 0 2 9 4 20 4 11 0 20 -4
20 -9z m-15 -21 c3 -5 1 -10 -4 -10 -6 0 -11 5 -11 10 0 6 2 10 4 10 3 0 8 -4
11 -10z"/>
<path d="M932 3580 c0 -14 2 -19 5 -12 2 6 2 18 0 25 -3 6 -5 1 -5 -13z"/>
<path d="M939 3534 c-2 -39 3 -79 12 -88 5 -6 6 13 2 45 -6 57 -12 75 -14 43z"/>
<path d="M4318 3513 c7 -3 16 -2 19 1 4 3 -2 6 -13 5 -11 0 -14 -3 -6 -6z"/>
<path d="M4350 3500 c0 -5 7 -10 15 -10 8 0 15 5 15 10 0 6 -7 10 -15 10 -8 0
-15 -4 -15 -10z"/>
<path d="M3630 3449 c0 -5 5 -7 10 -4 6 3 10 8 10 11 0 2 -4 4 -10 4 -5 0 -10
-5 -10 -11z"/>
<path d="M3120 3441 c0 -6 -17 -11 -40 -11 -22 0 -40 -4 -40 -9 0 -5 34 -9 75
-9 41 0 79 -3 83 -6 5 -3 75 -10 156 -16 127 -9 151 -8 169 5 22 16 18 19 -21
15 -13 -1 -30 4 -38 10 -11 10 -14 10 -14 0 0 -9 -6 -9 -22 2 -26 17 -191 33
-168 17 15 -11 -96 -4 -126 8 -8 3 -14 0 -14 -6z"/>
<path d="M3627 3422 c-41 -25 -33 -35 23 -30 59 6 73 15 45 31 -29 17 -39 16
-68 -1z"/>
<path d="M2806 3373 c-11 -11 -6 -22 8 -17 8 3 16 -4 20 -20 3 -14 11 -26 16
-26 6 0 4 13 -5 29 -17 33 -29 44 -39 34z"/>
<path d="M2320 3235 c0 -9 6 -12 15 -9 8 4 15 7 15 9 0 2 -7 5 -15 9 -9 3 -15
0 -15 -9z"/>
<path d="M1047 3156 c-4 -27 -6 -79 -6 -115 2 -58 3 -53 10 39 10 112 7 157
-4 76z"/>
<path d="M7756 3015 c-9 -26 -7 -32 5 -12 6 10 9 21 6 23 -2 3 -7 -2 -11 -11z"/>
<path d="M1033 2900 c0 -36 2 -50 4 -32 2 17 2 47 0 65 -2 17 -4 3 -4 -33z"/>
<path d="M7807 2940 c-13 -12 -15 -20 -7 -25 6 -4 9 -14 5 -24 -5 -12 -3 -13
6 -4 7 7 16 8 23 2 6 -5 22 -18 35 -29 13 -11 21 -23 17 -27 -3 -4 -12 -1 -18
5 -7 7 -22 12 -35 12 -19 0 -24 -7 -29 -42 -6 -34 -9 -38 -15 -21 -10 29 -26
36 -33 17 -4 -10 -13 -14 -24 -10 -15 5 -15 4 -2 -6 8 -7 15 -22 14 -33 -1
-31 7 -38 22 -18 13 17 13 17 14 -2 0 -17 2 -17 10 -5 9 13 14 7 11 -12 -3
-19 17 -6 22 14 4 12 9 19 13 16 3 -4 17 5 29 20 l24 27 20 -22 c12 -12 21
-29 21 -37 0 -8 4 -18 10 -21 6 -4 7 1 3 11 -4 12 -3 15 5 10 7 -4 12 -13 12
-19 0 -7 8 -21 16 -32 16 -20 16 -20 10 2 -4 12 -3 24 2 27 9 5 7 70 -3 86 -3
5 -12 7 -20 3 -9 -3 -15 1 -15 11 0 9 -7 16 -15 16 -8 0 -15 3 -15 8 0 4 -13
16 -29 27 -16 10 -28 22 -25 26 2 4 -7 10 -20 13 -19 5 -22 11 -18 31 5 29 3
30 -21 5z"/>
<path d="M7715 2880 c-4 -6 -10 -8 -15 -5 -4 3 -10 -1 -13 -9 -3 -8 -16 -16
-29 -18 -32 -4 -35 -34 -4 -42 13 -3 31 -8 39 -12 17 -6 19 26 2 38 -6 5 2 18
20 33 17 13 25 24 18 25 -6 0 -15 -5 -18 -10z"/>
<path d="M5598 2864 c-5 -4 -8 -32 -8 -63 0 -59 -28 -434 -34 -463 -2 -10 2
-18 9 -18 17 0 21 21 36 195 10 106 15 140 20 115 l6 -35 2 38 c0 20 2 37 4
37 47 9 127 10 127 2 0 -6 -17 -13 -37 -15 -21 -2 -10 -3 25 0 38 2 62 0 62
-7 0 -5 18 -10 41 -10 22 0 38 4 35 9 -11 18 30 17 48 -1 17 -16 18 -18 3 -18
-9 0 -17 -7 -17 -15 0 -17 25 -20 35 -5 8 14 45 13 45 -1 0 -7 7 -8 18 -4 57
24 140 20 168 -8 4 -4 17 -7 30 -7 12 0 25 -7 28 -16 3 -8 2 -12 -3 -9 -5 3
-12 1 -16 -5 -3 -5 -1 -10 4 -10 6 0 12 -8 12 -17 1 -10 7 5 14 32 10 43 11
26 7 -130 -7 -267 13 -209 27 80 7 132 15 254 17 271 l6 31 -74 6 c-40 4 -145
13 -233 21 -228 21 -399 29 -407 20z"/>
<path d="M7731 2856 c-9 -10 -8 -15 3 -19 11 -4 13 -1 9 10 -5 12 -3 14 7 8 9
-5 11 -4 6 3 -9 15 -11 15 -25 -2z"/>
<path d="M2658 2773 c7 -3 16 -2 19 1 4 3 -2 6 -13 5 -11 0 -14 -3 -6 -6z"/>
<path d="M1022 2745 c0 -16 2 -22 5 -12 2 9 2 23 0 30 -3 6 -5 -1 -5 -18z"/>
<path d="M8103 2740 c-24 -10 -27 -18 -17 -44 8 -21 48 -21 65 0 9 11 10 20 3
32 -13 20 -24 23 -51 12z m11 -26 c3 -8 2 -12 -4 -9 -6 3 -10 10 -10 16 0 14
7 11 14 -7z"/>
<path d="M7570 2715 c-20 -25 -8 -50 25 -50 36 0 47 31 19 52 -23 17 -29 16
-44 -2z"/>
<path d="M5650 2629 c0 -11 5 -17 10 -14 6 3 10 13 10 21 0 8 -4 14 -10 14 -5
0 -10 -9 -10 -21z"/>
<path d="M7897 2643 c-24 -24 14 -70 47 -57 21 8 21 50 0 58 -20 8 -39 8 -47
-1z"/>
<path d="M7758 2613 c7 -3 16 -2 19 1 4 3 -2 6 -13 5 -11 0 -14 -3 -6 -6z"/>
<path d="M5895 2254 c-5 -2 -9 -28 -9 -56 l2 -53 -7 50 -6 50 -55 2 c-94 3
-343 -15 -378 -28 -33 -11 -33 -11 -13 -30 11 -11 29 -19 41 -19 11 0 20 -4
20 -10 0 -5 -11 -10 -25 -10 -16 0 -25 -6 -25 -15 0 -18 2 -19 45 -1 47 20 45
3 -2 -19 -21 -10 -43 -23 -49 -29 -7 -6 -26 -22 -43 -35 -17 -13 -31 -29 -31
-37 0 -8 -4 -14 -10 -14 -5 0 -16 -12 -24 -27 l-15 -28 -1 28 c0 16 -4 26 -10
22 -14 -9 -13 -48 2 -63 7 -7 8 -12 2 -12 -5 0 -7 -27 -5 -62 l3 -63 17 60
c14 48 36 100 68 154 1 1 7 0 13 -4 10 -6 -22 -72 -43 -86 -5 -4 -7 -12 -3
-17 8 -14 88 -11 98 3 5 6 8 5 8 -4 0 -9 4 -10 13 -4 17 14 58 23 51 12 -3 -5
7 -10 23 -10 17 -1 21 -3 11 -6 -19 -5 -25 -33 -7 -33 5 0 7 5 4 10 -4 6 5 10
20 10 14 0 24 4 21 9 -9 14 21 33 47 29 17 -2 32 6 51 28 32 40 63 49 71 23 4
-10 13 -19 21 -19 8 0 14 -5 14 -11 0 -6 6 -9 14 -6 8 3 17 1 20 -6 2 -7 6 -3
7 8 1 11 5 -14 9 -55 l6 -75 1 100 c1 67 -2 92 -8 75 -7 -23 -8 -24 -6 -2 1
12 7 24 12 25 18 4 17 -106 -4 -454 -19 -299 -25 -483 -15 -409 7 48 54 730
54 780 0 27 4 51 9 54 4 3 6 27 3 54 -3 38 -1 50 11 55 14 5 15 2 7 -19 -20
-52 -14 -64 34 -64 30 0 46 5 48 14 3 12 5 12 16 0 11 -12 10 -14 -3 -14 -8 0
-15 -9 -15 -20 0 -17 7 -20 39 -20 35 0 39 -3 45 -30 3 -17 12 -30 20 -30 8 0
16 -5 18 -11 2 -6 17 -11 33 -11 33 0 57 -24 49 -50 -4 -12 0 -18 10 -18 9 0
16 -5 16 -12 0 -9 3 -9 12 0 9 9 17 5 34 -15 20 -23 27 -25 78 -21 31 3 52 2
46 -2 -7 -5 -6 -11 5 -20 13 -11 15 -6 15 44 0 31 -4 56 -10 56 -5 0 -10 6
-10 13 0 7 -9 23 -20 35 -11 12 -20 25 -20 31 0 5 -15 21 -32 35 -18 14 -41
32 -50 41 -10 8 -21 15 -24 15 -3 0 -20 6 -37 14 -60 27 -128 45 -143 39 -9
-3 -20 0 -24 7 -5 8 -27 12 -59 12 -30 -1 -51 3 -51 9 0 6 -9 8 -20 4 -14 -4
-20 -2 -20 8 0 23 7 24 77 11 151 -28 211 -45 281 -81 126 -63 169 -135 179
-298 4 -58 9 -83 14 -70 4 11 8 34 8 52 1 45 11 69 22 51 7 -11 12 -11 31 1
13 8 34 16 48 18 14 1 36 4 50 6 29 4 43 47 16 47 -12 0 -16 10 -16 40 0 22
-4 40 -9 40 -5 0 -11 9 -14 21 -3 11 -11 19 -19 18 -7 -1 -18 -1 -24 0 -14 1
-26 41 -12 41 5 0 6 5 3 10 -3 6 -21 10 -39 10 -18 0 -45 9 -59 20 -16 13 -28
16 -32 10 -11 -17 -35 -11 -35 9 0 11 -11 28 -25 39 -29 23 -32 32 -10 32 15
0 22 29 8 31 -27 2 -64 9 -103 19 -25 6 -68 12 -95 14 -28 1 -59 8 -71 14 -11
6 -38 13 -60 16 -56 7 -98 18 -104 26 -3 4 -9 5 -15 4z m-392 -61 c-7 -2 -21
-2 -30 0 -10 3 -4 5 12 5 17 0 24 -2 18 -5z m57 -53 c-19 -13 -30 -13 -30 0 0
6 10 10 23 10 18 0 19 -2 7 -10z m740 -10 c0 -5 -5 -10 -11 -10 -5 0 -7 5 -4
10 3 6 8 10 11 10 2 0 4 -4 4 -10z m-418 -9 c3 -1 4 -10 1 -21 -5 -17 -7 -18
-17 -6 -8 11 -29 14 -76 12 -36 -1 -93 -3 -128 -4 -35 -1 -61 -6 -58 -11 3 -4
-5 -6 -18 -4 -24 5 -149 -48 -161 -67 -8 -12 -25 -13 -25 -1 0 4 17 19 38 33
86 57 174 75 347 71 50 -1 93 -2 97 -2z m208 -111 c-8 -5 -24 -9 -35 -9 -16 1
-16 2 5 9 35 11 48 11 30 0z m390 -20 c0 -5 -2 -10 -4 -10 -3 0 -8 5 -11 10
-3 6 -1 10 4 10 6 0 11 -4 11 -10z m-1055 -60 c3 -5 -1 -10 -10 -10 -9 0 -13
5 -10 10 3 6 8 10 10 10 2 0 7 -4 10 -10z m762 -6 c-3 -3 -12 -4 -19 -1 -8 3
-5 6 6 6 11 1 17 -2 13 -5z"/>
<path d="M5154 2145 c-4 -9 -5 -17 -3 -18 2 -2 21 -15 41 -30 60 -44 74 -34
35 24 -25 37 -63 50 -73 24z"/>
<path d="M5911 1934 c0 -11 3 -14 6 -6 3 7 2 16 -1 19 -3 4 -6 -2 -5 -13z"/>
<path d="M5901 1894 c0 -11 3 -14 6 -6 3 7 2 16 -1 19 -3 4 -6 -2 -5 -13z"/>
<path d="M5902 1835 c0 -16 2 -22 5 -12 2 9 2 23 0 30 -3 6 -5 -1 -5 -18z"/>
<path d="M5891 1744 c0 -11 3 -14 6 -6 3 7 2 16 -1 19 -3 4 -6 -2 -5 -13z"/>
<path d="M6800 1470 c0 -5 5 -10 10 -10 6 0 10 5 10 10 0 6 -4 10 -10 10 -5 0
-10 -4 -10 -10z"/>
<path d="M5234 1258 c-44 -49 -63 -79 -23 -38 19 20 40 43 48 53 23 29 7 19
-25 -15z"/>
<path d="M5816 979 c-5 -69 -6 -134 -4 -145 6 -25 21 203 16 241 -2 17 -8 -27
-12 -96z"/>
<path d="M5801 735 c-1 -6 -62 -9 -169 -7 -200 4 -199 5 -213 -109 -7 -54 -19
-92 -51 -153 -43 -81 -43 -81 -42 -186 0 -58 6 -144 13 -192 12 -80 15 -88 35
-88 22 0 23 5 45 258 27 310 37 375 61 397 15 13 42 16 156 16 170 0 199 -4
459 -50 63 -11 68 -39 56 -291 -6 -113 -13 -233 -16 -268 l-6 -62 47 0 c53 0
52 -12 14 130 -21 79 -22 98 -17 290 4 152 3 209 -6 221 -9 12 -61 24 -184 44
-133 22 -173 32 -176 44 -3 9 -5 12 -6 6z m-441 -407 c0 -18 -2 -20 -9 -8 -6
8 -7 18 -5 22 9 14 14 9 14 -14z"/>
</g>
</svg>
